M48
; DRILL file {KiCad 9.0.7} date 2026-02-19T21:01:17-0500
; FORMAT={-:-/ absolute / metric / decimal}
; #@! TF.CreationDate,2026-02-19T21:01:17-05:00
; #@! TF.GenerationSoftware,Kicad,Pcbnew,9.0.7
; #@! TF.FileFunction,Plated,1,2,PTH
FMAT,2
METRIC
; #@! TA.AperFunction,Plated,PTH,ViaDrill
T1C0.300
; #@! TA.AperFunction,Plated,PTH,ComponentDrill
T2C0.650
; #@! TA.AperFunction,Plated,PTH,ComponentDrill
T3C0.750
; #@! TA.AperFunction,Plated,PTH,ComponentDrill
T4C0.800
; #@! TA.AperFunction,Plated,PTH,ComponentDrill
T5C1.000
; #@! TA.AperFunction,Plated,PTH,ComponentDrill
T6C1.100
; #@! TA.AperFunction,Plated,PTH,ComponentDrill
T7C1.200
%
G90
G05
T1
X92.5Y-102.695
X92.5Y-106.8
X92.6Y-88.695
X92.6Y-92.5
X93.4Y-85.9
X93.5Y-91.8
X93.5Y-98.2
X93.5Y-105.5
X93.5Y-112.0
X95.6Y-93.5
X96.2Y-100.2
X97.5Y-108.1
X98.8Y-87.9
X98.8Y-94.5
X98.8Y-108.2
X98.81Y-101.69
X99.1Y-109.5
X100.45Y-95.71
X101.4Y-123.08
X102.0Y-93.5
X102.2Y-107.5
X103.2Y-96.8
X103.3Y-110.8
X103.586Y-102.6
X104.0Y-90.7
X104.9Y-98.5
X104.9Y-111.0
X105.2Y-93.5
X106.2Y-101.4
X107.05Y-114.8
X107.4Y-99.3
X108.2Y-89.6
X108.2Y-111.4
X108.5Y-101.2
X109.0Y-89.8
X109.0Y-91.8
X109.17Y-100.714
X109.3Y-103.8
X109.3Y-104.8
X109.4Y-106.0
X109.7Y-90.9
X109.9Y-99.9
X110.3Y-90.1
X110.5Y-106.9
X110.7Y-100.2
X110.7Y-110.5
X111.0Y-89.5
X111.5Y-98.5
X112.2Y-99.3
X113.4Y-89.0
X113.6Y-109.6
X113.8Y-91.1
X114.4Y-91.8
X114.5Y-107.1
X114.8Y-111.159
X114.95Y-89.8
X115.0Y-92.502
X115.25Y-110.25
X115.5Y-109.5
X115.5Y-117.7
X115.6Y-97.7
X115.6Y-107.5
X115.6Y-108.7
X115.7Y-93.0
X116.3Y-93.9
X117.1Y-94.6
X117.1Y-102.5
X117.7Y-93.6
X117.7Y-95.2
X117.9Y-105.4
X118.2Y-95.9
X118.9Y-96.6
X120.3Y-120.4
X120.437Y-95.559
X121.5Y-108.26
X122.6Y-105.0
X123.1Y-99.5
X126.1Y-81.0
X129.2Y-99.4
X133.2Y-94.3
X133.4Y-122.4
X141.4Y-92.3
X142.5Y-93.9
X143.0Y-89.4
X144.3Y-115.2
X146.5Y-109.2
X146.6Y-95.56
X148.0Y-107.1
X152.9Y-105.3
X153.3Y-107.7
X153.6Y-112.1
X153.7Y-109.6
X161.017Y-87.939
X163.1Y-107.0
X164.0Y-104.9
T2
X85.8Y-91.9
X85.8Y-93.17
X85.8Y-94.44
X85.8Y-95.71
X85.8Y-105.6
X85.8Y-106.87
X85.8Y-108.14
X85.8Y-109.41
X140.19Y-124.4
X141.46Y-124.4
X142.73Y-124.4
X144.0Y-124.4
X147.29Y-124.3
X148.56Y-124.3
X149.83Y-124.3
X151.1Y-124.3
T3
X100.16Y-118.68
X101.43Y-118.68
X102.7Y-118.68
T4
X170.95Y-117.05
X173.45Y-117.05
X176.95Y-117.0
X179.45Y-117.0
T5
X167.1Y-91.42
X167.1Y-93.96
X167.1Y-96.5
X167.1Y-99.04
X167.1Y-101.58
X167.1Y-104.12
X167.1Y-106.66
X167.1Y-109.2
X172.5Y-83.0
X172.5Y-85.54
X172.5Y-88.08
X172.5Y-90.62
X172.5Y-93.16
T6
X172.66Y-111.5
X175.2Y-111.5
X177.74Y-111.5
X185.2Y-108.5
X185.2Y-118.66
T7
X182.46Y-76.2
X185.0Y-76.2
M30
