%TF.GenerationSoftware,KiCad,Pcbnew,9.0.7*%
%TF.CreationDate,2026-02-19T21:01:26-05:00*%
%TF.ProjectId,DAC8822,44414338-3832-4322-9e6b-696361645f70,rev?*%
%TF.SameCoordinates,Original*%
%TF.FileFunction,Copper,L2,Bot*%
%TF.FilePolarity,Positive*%
%FSLAX46Y46*%
G04 Gerber Fmt 4.6, Leading zero omitted, Abs format (unit mm)*
G04 Created by KiCad (PCBNEW 9.0.7) date 2026-02-19 21:01:26*
%MOMM*%
%LPD*%
G01*
G04 APERTURE LIST*
G04 Aperture macros list*
%AMRoundRect*
0 Rectangle with rounded corners*
0 $1 Rounding radius*
0 $2 $3 $4 $5 $6 $7 $8 $9 X,Y pos of 4 corners*
0 Add a 4 corners polygon primitive as box body*
4,1,4,$2,$3,$4,$5,$6,$7,$8,$9,$2,$3,0*
0 Add four circle primitives for the rounded corners*
1,1,$1+$1,$2,$3*
1,1,$1+$1,$4,$5*
1,1,$1+$1,$6,$7*
1,1,$1+$1,$8,$9*
0 Add four rect primitives between the rounded corners*
20,1,$1+$1,$2,$3,$4,$5,0*
20,1,$1+$1,$4,$5,$6,$7,0*
20,1,$1+$1,$6,$7,$8,$9,0*
20,1,$1+$1,$8,$9,$2,$3,0*%
G04 Aperture macros list end*
%TA.AperFunction,ComponentPad*%
%ADD10R,1.000000X1.000000*%
%TD*%
%TA.AperFunction,ComponentPad*%
%ADD11C,1.000000*%
%TD*%
%TA.AperFunction,ComponentPad*%
%ADD12R,1.050000X1.500000*%
%TD*%
%TA.AperFunction,ComponentPad*%
%ADD13O,1.050000X1.500000*%
%TD*%
%TA.AperFunction,ComponentPad*%
%ADD14RoundRect,0.249999X-0.850001X0.850001X-0.850001X-0.850001X0.850001X-0.850001X0.850001X0.850001X0*%
%TD*%
%TA.AperFunction,ComponentPad*%
%ADD15C,2.200000*%
%TD*%
%TA.AperFunction,ComponentPad*%
%ADD16R,1.905000X2.000000*%
%TD*%
%TA.AperFunction,ComponentPad*%
%ADD17O,1.905000X2.000000*%
%TD*%
%TA.AperFunction,ComponentPad*%
%ADD18R,1.700000X1.700000*%
%TD*%
%TA.AperFunction,ComponentPad*%
%ADD19C,1.700000*%
%TD*%
%TA.AperFunction,ComponentPad*%
%ADD20C,1.600000*%
%TD*%
%TA.AperFunction,ComponentPad*%
%ADD21RoundRect,0.250000X0.750000X0.750000X-0.750000X0.750000X-0.750000X-0.750000X0.750000X-0.750000X0*%
%TD*%
%TA.AperFunction,ComponentPad*%
%ADD22C,2.000000*%
%TD*%
%TA.AperFunction,SMDPad,CuDef*%
%ADD23RoundRect,0.250000X0.250000X0.475000X-0.250000X0.475000X-0.250000X-0.475000X0.250000X-0.475000X0*%
%TD*%
%TA.AperFunction,SMDPad,CuDef*%
%ADD24RoundRect,0.250000X-0.250000X-0.475000X0.250000X-0.475000X0.250000X0.475000X-0.250000X0.475000X0*%
%TD*%
%TA.AperFunction,SMDPad,CuDef*%
%ADD25RoundRect,0.250000X-0.475000X0.250000X-0.475000X-0.250000X0.475000X-0.250000X0.475000X0.250000X0*%
%TD*%
%TA.AperFunction,ViaPad*%
%ADD26C,0.600000*%
%TD*%
%TA.AperFunction,ViaPad*%
%ADD27C,0.500000*%
%TD*%
%TA.AperFunction,Conductor*%
%ADD28C,0.200000*%
%TD*%
%TA.AperFunction,Conductor*%
%ADD29C,0.300000*%
%TD*%
%TA.AperFunction,Conductor*%
%ADD30C,0.400000*%
%TD*%
%TA.AperFunction,Conductor*%
%ADD31C,0.600000*%
%TD*%
G04 APERTURE END LIST*
D10*
%TO.P,J5,1,Pin_1*%
%TO.N,/Btn1*%
X144000000Y-124400000D03*
D11*
%TO.P,J5,2,Pin_2*%
%TO.N,/Btn2*%
X142730000Y-124400000D03*
%TO.P,J5,3,Pin_3*%
%TO.N,/Btn3*%
X141460000Y-124400000D03*
%TO.P,J5,4,Pin_4*%
%TO.N,/Btn4*%
X140190000Y-124400000D03*
%TD*%
D12*
%TO.P,U10,1,REF*%
%TO.N,/Adj*%
X100160000Y-118680000D03*
D13*
%TO.P,U10,2,A*%
%TO.N,GND*%
X101430000Y-118680000D03*
%TO.P,U10,3,K*%
%TO.N,Vref*%
X102700000Y-118680000D03*
%TD*%
D14*
%TO.P,D1,1,K*%
%TO.N,/Vsys*%
X185200000Y-108500000D03*
D15*
%TO.P,D1,2,A*%
%TO.N,+5V*%
X185200000Y-118660000D03*
%TD*%
D16*
%TO.P,U8,1,VI*%
%TO.N,+12V*%
X172660000Y-111500000D03*
D17*
%TO.P,U8,2,GND*%
%TO.N,GND*%
X175200000Y-111500000D03*
%TO.P,U8,3,VO*%
%TO.N,+5V*%
X177740000Y-111500000D03*
%TD*%
D18*
%TO.P,U9,1,VIN*%
%TO.N,+BATT*%
X172500000Y-83000000D03*
D19*
%TO.P,U9,2,GND*%
%TO.N,GND*%
X172500000Y-85540000D03*
%TO.P,U9,3,+12V*%
%TO.N,+12V*%
X172500000Y-88080000D03*
%TO.P,U9,4,GND*%
%TO.N,GND*%
X172500000Y-90620000D03*
%TO.P,U9,5,-12V*%
%TO.N,-12V*%
X172500000Y-93160000D03*
%TD*%
D20*
%TO.P,C6,1*%
%TO.N,+12V*%
X170950000Y-117050000D03*
%TO.P,C6,2*%
%TO.N,GND*%
X173450000Y-117050000D03*
%TD*%
D21*
%TO.P,J4,1,Pin_1*%
%TO.N,GND*%
X185000000Y-76200000D03*
D22*
%TO.P,J4,2,Pin_2*%
%TO.N,+BATT*%
X182460000Y-76200000D03*
%TD*%
D10*
%TO.P,J3,1,Pin_1*%
%TO.N,/Ch1*%
X85800000Y-105600000D03*
D11*
%TO.P,J3,2,Pin_2*%
%TO.N,GND*%
X85800000Y-106870000D03*
%TO.P,J3,3,Pin_3*%
X85800000Y-108140000D03*
%TO.P,J3,4,Pin_4*%
%TO.N,/Ch2*%
X85800000Y-109410000D03*
%TD*%
D10*
%TO.P,J6,1,Pin_1*%
%TO.N,+3.3V*%
X151100000Y-124300000D03*
D11*
%TO.P,J6,2,Pin_2*%
%TO.N,/Pot1*%
X149830000Y-124300000D03*
%TO.P,J6,3,Pin_3*%
%TO.N,/Pot2*%
X148560000Y-124300000D03*
%TO.P,J6,4,Pin_4*%
%TO.N,GND*%
X147290000Y-124300000D03*
%TD*%
D20*
%TO.P,C5,1*%
%TO.N,GND*%
X176950000Y-117000000D03*
%TO.P,C5,2*%
%TO.N,+5V*%
X179450000Y-117000000D03*
%TD*%
D10*
%TO.P,J2,1,Pin_1*%
%TO.N,/Ch3*%
X85800000Y-91900000D03*
D11*
%TO.P,J2,2,Pin_2*%
%TO.N,GND*%
X85800000Y-93170000D03*
%TO.P,J2,3,Pin_3*%
X85800000Y-94440000D03*
%TO.P,J2,4,Pin_4*%
%TO.N,/Ch4*%
X85800000Y-95710000D03*
%TD*%
D23*
%TO.P,C11,1*%
%TO.N,-12V*%
X97250000Y-104200000D03*
%TO.P,C11,2*%
%TO.N,+12V*%
X95350000Y-104200000D03*
%TD*%
%TO.P,C10,1*%
%TO.N,-12V*%
X97050000Y-96600000D03*
%TO.P,C10,2*%
%TO.N,+12V*%
X95150000Y-96600000D03*
%TD*%
D24*
%TO.P,C7,1*%
%TO.N,GND*%
X107050000Y-114800000D03*
%TO.P,C7,2*%
%TO.N,+5V*%
X108950000Y-114800000D03*
%TD*%
%TO.P,C8,1*%
%TO.N,GND*%
X111950000Y-81700000D03*
%TO.P,C8,2*%
%TO.N,+5V*%
X113850000Y-81700000D03*
%TD*%
D23*
%TO.P,C9,1*%
%TO.N,-12V*%
X97250000Y-90200000D03*
%TO.P,C9,2*%
%TO.N,+12V*%
X95350000Y-90200000D03*
%TD*%
D25*
%TO.P,C12,1*%
%TO.N,-12V*%
X96000000Y-107950000D03*
%TO.P,C12,2*%
%TO.N,+12V*%
X96000000Y-109850000D03*
%TD*%
D18*
%TO.P,J1,1,Pin_1*%
%TO.N,/Vsys*%
X167100000Y-91420000D03*
D19*
%TO.P,J1,2,Pin_2*%
%TO.N,GND*%
X167100000Y-93960000D03*
%TO.P,J1,3,Pin_3*%
%TO.N,/~{CS}*%
X167100000Y-96500000D03*
%TO.P,J1,4,Pin_4*%
%TO.N,/RST*%
X167100000Y-99040000D03*
%TO.P,J1,5,Pin_5*%
%TO.N,/REG*%
X167100000Y-101580000D03*
%TO.P,J1,6,Pin_6*%
%TO.N,/SDA*%
X167100000Y-104120000D03*
%TO.P,J1,7,Pin_7*%
%TO.N,/SCK*%
X167100000Y-106660000D03*
%TO.P,J1,8,Pin_8*%
%TO.N,/LED*%
X167100000Y-109200000D03*
%TD*%
D26*
%TO.N,GND*%
X114950000Y-89800000D03*
X107050000Y-114800000D03*
X101400000Y-123080000D03*
X146500000Y-109200000D03*
X115500000Y-117700000D03*
X143000000Y-89400000D03*
X96200000Y-100200000D03*
X133200000Y-94300000D03*
X95600000Y-93500000D03*
X141400000Y-92300000D03*
X97500000Y-108100000D03*
X144300000Y-115200000D03*
X105200000Y-93500000D03*
X100450000Y-95710000D03*
X99100000Y-109500000D03*
X117700000Y-93600000D03*
X102200000Y-107500000D03*
X148000000Y-107100000D03*
X102000000Y-93500000D03*
%TO.N,/~{CS}*%
X146600000Y-95560000D03*
%TO.N,/RST*%
X120437184Y-95558885D03*
%TO.N,/REG*%
X142500000Y-93900000D03*
%TO.N,/D8*%
X114400000Y-91800000D03*
X109300000Y-104800000D03*
D27*
%TO.N,/D13*%
X115500000Y-109500000D03*
D26*
X118200000Y-95900000D03*
%TO.N,/D14*%
X115250000Y-110250000D03*
X118900000Y-96600000D03*
%TO.N,Net-(U2-I_{OUT}A)*%
X92600000Y-88695000D03*
X92600000Y-92500000D03*
%TO.N,/D6*%
X109000000Y-91800000D03*
X108500000Y-101200000D03*
%TO.N,/D9*%
X115000000Y-92502000D03*
X109400000Y-106000000D03*
D27*
%TO.N,/D3*%
X117100000Y-102500000D03*
X117900000Y-105400000D03*
D26*
X111000000Y-89500000D03*
X110700000Y-100200000D03*
%TO.N,/D0*%
X106200000Y-101400000D03*
X109000000Y-89800000D03*
%TO.N,/D4*%
X110300000Y-90100000D03*
X109900000Y-99900000D03*
%TO.N,/D2*%
X112200000Y-99300000D03*
X113400000Y-89000000D03*
%TO.N,/D11*%
X117100000Y-94600000D03*
X115600000Y-107500000D03*
%TO.N,/~{WR}*%
X104900000Y-111000000D03*
X104900000Y-98500000D03*
%TO.N,/A0*%
X111500000Y-98500000D03*
X108200000Y-111400000D03*
%TO.N,Net-(U1-I_{OUT}A)*%
X92500000Y-106800000D03*
X92500000Y-102695000D03*
D27*
%TO.N,/~{RS}*%
X123100000Y-99500000D03*
D26*
X129200000Y-99400000D03*
X114800000Y-111158621D03*
%TO.N,/D5*%
X109170112Y-100714022D03*
D27*
X121500000Y-108260000D03*
D26*
X109700000Y-90900000D03*
D27*
X122600000Y-105000000D03*
D26*
%TO.N,Vref*%
X103585572Y-102600000D03*
X104000000Y-90700000D03*
X103200000Y-96800000D03*
X103300000Y-110800000D03*
%TO.N,/D12*%
X115600000Y-108700000D03*
X117700000Y-95200000D03*
%TO.N,/D15*%
X115600000Y-97700000D03*
X120300000Y-120400000D03*
X113600000Y-109600000D03*
%TO.N,/D10*%
X115700000Y-93000000D03*
X110500000Y-106900000D03*
%TO.N,/D7*%
X109300000Y-103800000D03*
X113800000Y-91100000D03*
%TO.N,/D1*%
X107400000Y-99300000D03*
X108200000Y-89600000D03*
%TO.N,-12V*%
X98810000Y-101690000D03*
X98800000Y-87900000D03*
X98800000Y-108200000D03*
X98800000Y-94500000D03*
%TO.N,+12V*%
X93500000Y-112000000D03*
X93400000Y-85900000D03*
X93500000Y-98200000D03*
X93500000Y-91800000D03*
X93500000Y-105500000D03*
%TO.N,+5V*%
X133400000Y-122400000D03*
X110700000Y-110500000D03*
X116300000Y-93900000D03*
X114500000Y-107100000D03*
%TO.N,/Btn3*%
X153300000Y-107700000D03*
%TO.N,/Btn2*%
X153700000Y-109600000D03*
%TO.N,/Btn1*%
X153600000Y-112100000D03*
%TO.N,/Btn4*%
X152900000Y-105300000D03*
%TO.N,/Pot1*%
X164000000Y-104900000D03*
%TO.N,/Pot2*%
X163100000Y-107000000D03*
%TO.N,+3.3V*%
X161017184Y-87938885D03*
D27*
%TO.N,/Vsys*%
X126100000Y-80999974D03*
%TD*%
D28*
%TO.N,/D2*%
X112700000Y-97177466D02*
X112490025Y-99009975D01*
X112490025Y-99009975D02*
X112200000Y-99300000D01*
X113000000Y-91100000D02*
X112700000Y-97000000D01*
X112700000Y-97000000D02*
X112700000Y-97177466D01*
X113400000Y-89000000D02*
X113000000Y-91100000D01*
D29*
%TO.N,GND*%
X101400000Y-123080000D02*
X101430000Y-123050000D01*
D28*
X98900000Y-109500000D02*
X97500000Y-108100000D01*
D30*
X175200000Y-115500000D02*
X175000000Y-115500000D01*
D28*
X99100000Y-109500000D02*
X98900000Y-109500000D01*
D30*
X176900000Y-117050000D02*
X176950000Y-117000000D01*
D29*
X101430000Y-123050000D02*
X101430000Y-118680000D01*
D28*
%TO.N,/~{CS}*%
X146600000Y-95560000D02*
X164270000Y-95500000D01*
X164270000Y-95500000D02*
X167100000Y-96500000D01*
%TO.N,/RST*%
X120558885Y-95558885D02*
X120437184Y-95558885D01*
X139000000Y-96800000D02*
X121800000Y-96800000D01*
X168251000Y-102056760D02*
X167576760Y-102731000D01*
X167576760Y-102731000D02*
X147631000Y-102731000D01*
X121800000Y-96800000D02*
X120558885Y-95558885D01*
X147631000Y-102731000D02*
X139000000Y-96800000D01*
X167100000Y-99040000D02*
X168251000Y-100191000D01*
X168251000Y-100191000D02*
X168251000Y-102056760D01*
%TO.N,/REG*%
X150091000Y-101791000D02*
X163709000Y-101791000D01*
X142500000Y-93900000D02*
X150091000Y-101791000D01*
X163709000Y-101791000D02*
X167100000Y-101580000D01*
%TO.N,/D8*%
X109300000Y-104800000D02*
X113100000Y-100900000D01*
X113100000Y-100900000D02*
X114400000Y-91800000D01*
%TO.N,/D13*%
X116100000Y-109100000D02*
X115500000Y-109500000D01*
X118500000Y-105700000D02*
X117200000Y-107800000D01*
X117200000Y-107800000D02*
X116100000Y-109100000D01*
X118300000Y-103200000D02*
X118500000Y-105700000D01*
X118200000Y-95900000D02*
X118300000Y-103200000D01*
%TO.N,/D14*%
X115250000Y-110250000D02*
X115700000Y-110100000D01*
X115700000Y-110100000D02*
X117800000Y-108100000D01*
X117800000Y-108100000D02*
X119100000Y-106000000D01*
X118700000Y-99700000D02*
X118900000Y-96600000D01*
X119100000Y-106000000D02*
X118700000Y-99700000D01*
%TO.N,Net-(U2-I_{OUT}A)*%
X92600000Y-92500000D02*
X92600000Y-88695000D01*
%TO.N,/D6*%
X108700000Y-99000000D02*
X109000000Y-91800000D01*
X108500000Y-101200000D02*
X108700000Y-99000000D01*
%TO.N,/D9*%
X113600000Y-101100000D02*
X109400000Y-106000000D01*
X115000000Y-92502000D02*
X113600000Y-101100000D01*
%TO.N,/D3*%
X110900000Y-99300000D02*
X110900000Y-92700000D01*
X117600000Y-105100000D02*
X117900000Y-105400000D01*
X111000000Y-92600000D02*
X111000000Y-89500000D01*
X110900000Y-92700000D02*
X111000000Y-92600000D01*
X110700000Y-100200000D02*
X110900000Y-99300000D01*
X117100000Y-102500000D02*
X117600000Y-105100000D01*
%TO.N,/D0*%
X108400000Y-91700000D02*
X108200000Y-100000000D01*
X108400000Y-91300000D02*
X108900000Y-90800000D01*
X108900000Y-89900000D02*
X109000000Y-89800000D01*
X108900000Y-90800000D02*
X108900000Y-89900000D01*
X108400000Y-91700000D02*
X108400000Y-91300000D01*
X108200000Y-100000000D02*
X106200000Y-101400000D01*
%TO.N,/D4*%
X110400000Y-90200000D02*
X110300000Y-90100000D01*
X109900000Y-99900000D02*
X110400000Y-90200000D01*
%TO.N,/D11*%
X116900000Y-98900000D02*
X115400000Y-103000000D01*
X117100000Y-94600000D02*
X116900000Y-98900000D01*
X115400000Y-103000000D02*
X115600000Y-107500000D01*
%TO.N,/~{WR}*%
X104900000Y-98500000D02*
X104900000Y-111000000D01*
%TO.N,/A0*%
X111300000Y-99500000D02*
X111300000Y-100600000D01*
X111500000Y-98500000D02*
X111300000Y-99500000D01*
X109249943Y-102900000D02*
X108200000Y-102900000D01*
X111310524Y-100610524D02*
X109249943Y-102900000D01*
X111300000Y-100600000D02*
X111310524Y-100610524D01*
X108200000Y-102900000D02*
X108200000Y-111400000D01*
%TO.N,Net-(U1-I_{OUT}A)*%
X92500000Y-106800000D02*
X92500000Y-102695000D01*
%TO.N,/~{RS}*%
X122076837Y-103300000D02*
X121100000Y-107200000D01*
X129200000Y-99400000D02*
X127200000Y-99500000D01*
X115700000Y-110900000D02*
X115100000Y-111100000D01*
X123300000Y-102400000D02*
X122076837Y-103300000D01*
X121100000Y-107200000D02*
X118300000Y-108552374D01*
X127200000Y-99500000D02*
X123100000Y-99500000D01*
X129200000Y-99400000D02*
X123300000Y-102400000D01*
X115100000Y-111100000D02*
X114800000Y-111158621D01*
X118300000Y-108552374D02*
X115700000Y-110900000D01*
%TO.N,/D5*%
X121500000Y-108260000D02*
X121500000Y-107900000D01*
X122600000Y-106800000D02*
X122600000Y-105000000D01*
X121500000Y-107900000D02*
X122600000Y-106800000D01*
X122600000Y-105000000D02*
X122700000Y-104900000D01*
X109700000Y-90900000D02*
X109170112Y-100714022D01*
%TO.N,Vref*%
X103300000Y-102885572D02*
X103585572Y-102600000D01*
X103200000Y-96800000D02*
X103200000Y-91500000D01*
X103585572Y-102485572D02*
X103200000Y-102100000D01*
X102700000Y-111400000D02*
X102700000Y-118680000D01*
X103200000Y-91500000D02*
X104000000Y-90700000D01*
X103200000Y-102100000D02*
X103200000Y-96800000D01*
X103585572Y-102600000D02*
X103585572Y-102485572D01*
X103300000Y-110800000D02*
X102700000Y-111400000D01*
X103300000Y-110800000D02*
X103300000Y-102885572D01*
%TO.N,/D12*%
X116600000Y-107700000D02*
X116200000Y-103000000D01*
X117600000Y-95300000D02*
X117700000Y-95200000D01*
X116200000Y-103000000D02*
X117400000Y-98800000D01*
X117400000Y-98800000D02*
X117600000Y-95300000D01*
X115600000Y-108700000D02*
X116600000Y-107700000D01*
%TO.N,/D15*%
X113600000Y-109600000D02*
X111600000Y-111600000D01*
X113600000Y-109600000D02*
X113600000Y-102976999D01*
X112100000Y-117300000D02*
X115200000Y-120400000D01*
X111600000Y-115800000D02*
X111600000Y-116800000D01*
X117600000Y-120400000D02*
X120300000Y-120400000D01*
X114500000Y-101500000D02*
X115600000Y-97700000D01*
X111600000Y-116800000D02*
X112100000Y-117300000D01*
X111600000Y-111600000D02*
X111600000Y-115800000D01*
X113600000Y-102976999D02*
X114500000Y-101500000D01*
X115200000Y-120400000D02*
X117600000Y-120400000D01*
X120300000Y-120400000D02*
X120400000Y-120300000D01*
%TO.N,/D10*%
X114000000Y-101300000D02*
X110500000Y-106100000D01*
X115700000Y-93000000D02*
X114000000Y-101300000D01*
X110500000Y-106100000D02*
X110500000Y-106900000D01*
%TO.N,/D7*%
X113800000Y-91100000D02*
X112700000Y-100700000D01*
X112700000Y-100700000D02*
X109300000Y-103800000D01*
%TO.N,/D1*%
X108200000Y-90300000D02*
X108200000Y-89600000D01*
X107997961Y-90502039D02*
X108200000Y-90300000D01*
X107523752Y-99100000D02*
X107500000Y-99100000D01*
X108000000Y-90500000D02*
X107997961Y-90600000D01*
X107827899Y-98017932D02*
X107827899Y-98795853D01*
X107500000Y-99100000D02*
X107400000Y-99200000D01*
X107997961Y-90600000D02*
X107847106Y-97998725D01*
X107997961Y-90600000D02*
X107997961Y-90502039D01*
X107827899Y-98795853D02*
X107523752Y-99100000D01*
X107400000Y-99200000D02*
X107400000Y-99300000D01*
X107847106Y-97998725D02*
X107827899Y-98017932D01*
%TO.N,-12V*%
X96499938Y-107450062D02*
X98050062Y-107450062D01*
X98810000Y-101690000D02*
X97250000Y-103250000D01*
X97250000Y-89450000D02*
X97250000Y-90200000D01*
X98810000Y-101690000D02*
X98810000Y-108190000D01*
X97250000Y-103250000D02*
X97250000Y-104200000D01*
X98810000Y-108190000D02*
X98800000Y-108200000D01*
X98800000Y-101680000D02*
X98810000Y-101690000D01*
X98050062Y-107450062D02*
X98800000Y-108200000D01*
X98800000Y-94500000D02*
X98800000Y-94850000D01*
X98800000Y-94850000D02*
X97050000Y-96600000D01*
X96000000Y-107950000D02*
X96499938Y-107450062D01*
X98800000Y-87900000D02*
X98800000Y-94500000D01*
X98800000Y-87900000D02*
X97250000Y-89450000D01*
X98800000Y-94500000D02*
X98800000Y-101680000D01*
%TO.N,+12V*%
X93500000Y-91800000D02*
X93750000Y-91800000D01*
X93500000Y-98200000D02*
X93500000Y-105500000D01*
X93750000Y-91800000D02*
X95350000Y-90200000D01*
D30*
X93400000Y-91700000D02*
X93500000Y-91800000D01*
D28*
X93500000Y-91800000D02*
X93500000Y-98200000D01*
X94050000Y-105500000D02*
X95350000Y-104200000D01*
X93550000Y-98200000D02*
X95150000Y-96600000D01*
X93500000Y-98200000D02*
X93550000Y-98200000D01*
X93850000Y-112000000D02*
X96000000Y-109850000D01*
X93500000Y-112000000D02*
X93850000Y-112000000D01*
X93500000Y-105500000D02*
X94050000Y-105500000D01*
D30*
X93400000Y-85900000D02*
X93400000Y-91700000D01*
D28*
X93500000Y-105500000D02*
X93500000Y-112000000D01*
D30*
%TO.N,+5V*%
X118240710Y-86090710D02*
X113850000Y-81700000D01*
X114500000Y-107100000D02*
X114400000Y-110000000D01*
D28*
X109500000Y-113100000D02*
X109000000Y-113600000D01*
D30*
X114300000Y-112200000D02*
X115600000Y-112200000D01*
X114500000Y-103300000D02*
X114500000Y-107100000D01*
X116300000Y-93900000D02*
X116400000Y-98000000D01*
D28*
X109000000Y-113600000D02*
X109000000Y-114800000D01*
D30*
X115600000Y-112200000D02*
X133400000Y-122400000D01*
X113777571Y-110900000D02*
X114300000Y-112200000D01*
D28*
X110700000Y-111900000D02*
X109500000Y-113100000D01*
X116300000Y-93900000D02*
X116300000Y-93700000D01*
D30*
X116300000Y-93408636D02*
X118240710Y-91467926D01*
X116300000Y-93900000D02*
X116300000Y-93408636D01*
X118240710Y-91467926D02*
X118240710Y-86090710D01*
X116400000Y-98000000D02*
X114500000Y-103300000D01*
D28*
X110700000Y-110500000D02*
X110700000Y-111900000D01*
D30*
X114400000Y-110000000D02*
X113777571Y-110900000D01*
D28*
%TO.N,/Btn3*%
X153300000Y-107700000D02*
X147100000Y-113300000D01*
X147100000Y-113300000D02*
X141460000Y-118940000D01*
X141460000Y-118940000D02*
X141460000Y-124400000D01*
%TO.N,/Btn2*%
X142730000Y-124400000D02*
X142730000Y-120570000D01*
X149300000Y-114000000D02*
X153700000Y-109600000D01*
X142730000Y-120570000D02*
X149300000Y-114000000D01*
%TO.N,/Btn1*%
X144000000Y-124400000D02*
X144500000Y-121100000D01*
X144500000Y-121100000D02*
X153600000Y-112100000D01*
%TO.N,/Btn4*%
X152900000Y-105300000D02*
X140300000Y-117500000D01*
X140300000Y-117500000D02*
X140190000Y-124400000D01*
%TO.N,/Pot1*%
X149830000Y-123370000D02*
X164100000Y-109100000D01*
X164000000Y-104900000D02*
X164000000Y-104700000D01*
X149830000Y-124300000D02*
X149830000Y-123370000D01*
X164100000Y-109100000D02*
X164000000Y-104900000D01*
%TO.N,/Pot2*%
X148560000Y-123140000D02*
X157500000Y-114200000D01*
X157500000Y-114200000D02*
X163100000Y-108600000D01*
X148560000Y-124300000D02*
X148560000Y-123140000D01*
X163100000Y-108600000D02*
X163100000Y-107000000D01*
%TO.N,+3.3V*%
X166649000Y-95349000D02*
X163802236Y-92502236D01*
X163802236Y-92502236D02*
X163802236Y-89297764D01*
X153627760Y-124300000D02*
X168652000Y-109275760D01*
X168501000Y-95349000D02*
X166649000Y-95349000D01*
X163802236Y-89297764D02*
X163600000Y-89000000D01*
X151100000Y-124300000D02*
X153627760Y-124300000D01*
X168652000Y-109275760D02*
X168652000Y-95500000D01*
X162838885Y-87938885D02*
X161017184Y-87938885D01*
X163100000Y-88200000D02*
X162838885Y-87938885D01*
X168652000Y-95500000D02*
X168501000Y-95349000D01*
X163600000Y-89000000D02*
X163100000Y-88200000D01*
D31*
%TO.N,/Vsys*%
X183200000Y-104800000D02*
X176788009Y-95400000D01*
D30*
X176688009Y-95300000D02*
X176788009Y-95400000D01*
D31*
X126100000Y-80999974D02*
X126090000Y-81000000D01*
X175100000Y-80900000D02*
X164400000Y-80900000D01*
X185200000Y-108500000D02*
X183200000Y-104800000D01*
D30*
X170500000Y-93300000D02*
X170600000Y-95200000D01*
X170600000Y-95200000D02*
X176688009Y-95300000D01*
D31*
X176788009Y-95400000D02*
X175100000Y-80900000D01*
X164400000Y-80900000D02*
X126100000Y-80999974D01*
D30*
X168220000Y-91420000D02*
X170500000Y-93300000D01*
X167100000Y-91420000D02*
X168220000Y-91420000D01*
%TD*%
%TA.AperFunction,Conductor*%
%TO.N,GND*%
G36*
X174343921Y-81720185D02*
G01*
X174389676Y-81772989D01*
X174400050Y-81810161D01*
X175870997Y-94445606D01*
X175859197Y-94514472D01*
X175812038Y-94566026D01*
X175745793Y-94583928D01*
X173272938Y-94543310D01*
X173206230Y-94522527D01*
X173161349Y-94468979D01*
X173152543Y-94399667D01*
X173182607Y-94336596D01*
X173204304Y-94318505D01*
X173203875Y-94317915D01*
X173379786Y-94190109D01*
X173379788Y-94190106D01*
X173379792Y-94190104D01*
X173530104Y-94039792D01*
X173530106Y-94039788D01*
X173530109Y-94039786D01*
X173655048Y-93867820D01*
X173655047Y-93867820D01*
X173655051Y-93867816D01*
X173751557Y-93678412D01*
X173817246Y-93476243D01*
X173850500Y-93266287D01*
X173850500Y-93053713D01*
X173817246Y-92843757D01*
X173751557Y-92641588D01*
X173655051Y-92452184D01*
X173655049Y-92452181D01*
X173655048Y-92452179D01*
X173530109Y-92280213D01*
X173379786Y-92129890D01*
X173207817Y-92004949D01*
X173198504Y-92000204D01*
X173147707Y-91952230D01*
X173130912Y-91884409D01*
X173153449Y-91818274D01*
X173198507Y-91779232D01*
X173207555Y-91774622D01*
X173261716Y-91735270D01*
X173261717Y-91735270D01*
X172629408Y-91102962D01*
X172692993Y-91085925D01*
X172807007Y-91020099D01*
X172900099Y-90927007D01*
X172965925Y-90812993D01*
X172982962Y-90749408D01*
X173615270Y-91381717D01*
X173615270Y-91381716D01*
X173654622Y-91327554D01*
X173751095Y-91138217D01*
X173816757Y-90936130D01*
X173816757Y-90936127D01*
X173850000Y-90726246D01*
X173850000Y-90513753D01*
X173816757Y-90303872D01*
X173816757Y-90303869D01*
X173751095Y-90101782D01*
X173654624Y-89912449D01*
X173615270Y-89858282D01*
X173615269Y-89858282D01*
X172982962Y-90490590D01*
X172965925Y-90427007D01*
X172900099Y-90312993D01*
X172807007Y-90219901D01*
X172692993Y-90154075D01*
X172629409Y-90137037D01*
X173261716Y-89504728D01*
X173207547Y-89465373D01*
X173207547Y-89465372D01*
X173198500Y-89460763D01*
X173147706Y-89412788D01*
X173130912Y-89344966D01*
X173153451Y-89278832D01*
X173198508Y-89239793D01*
X173207816Y-89235051D01*
X173349257Y-89132289D01*
X173379786Y-89110109D01*
X173379788Y-89110106D01*
X173379792Y-89110104D01*
X173530104Y-88959792D01*
X173530106Y-88959788D01*
X173530109Y-88959786D01*
X173655048Y-88787820D01*
X173655047Y-88787820D01*
X173655051Y-88787816D01*
X173751557Y-88598412D01*
X173817246Y-88396243D01*
X173850500Y-88186287D01*
X173850500Y-87973713D01*
X173817246Y-87763757D01*
X173751557Y-87561588D01*
X173655051Y-87372184D01*
X173655049Y-87372181D01*
X173655048Y-87372179D01*
X173530109Y-87200213D01*
X173379786Y-87049890D01*
X173207817Y-86924949D01*
X173198504Y-86920204D01*
X173147707Y-86872230D01*
X173130912Y-86804409D01*
X173153449Y-86738274D01*
X173198507Y-86699232D01*
X173207555Y-86694622D01*
X173261716Y-86655270D01*
X173261717Y-86655270D01*
X172629408Y-86022962D01*
X172692993Y-86005925D01*
X172807007Y-85940099D01*
X172900099Y-85847007D01*
X172965925Y-85732993D01*
X172982962Y-85669408D01*
X173615270Y-86301717D01*
X173615270Y-86301716D01*
X173654622Y-86247554D01*
X173751095Y-86058217D01*
X173816757Y-85856130D01*
X173816757Y-85856127D01*
X173850000Y-85646246D01*
X173850000Y-85433753D01*
X173816757Y-85223872D01*
X173816757Y-85223869D01*
X173751095Y-85021782D01*
X173654624Y-84832449D01*
X173615270Y-84778282D01*
X173615269Y-84778282D01*
X172982962Y-85410590D01*
X172965925Y-85347007D01*
X172900099Y-85232993D01*
X172807007Y-85139901D01*
X172692993Y-85074075D01*
X172629409Y-85057037D01*
X173299627Y-84386818D01*
X173360950Y-84353333D01*
X173387307Y-84350499D01*
X173397872Y-84350499D01*
X173457483Y-84344091D01*
X173592331Y-84293796D01*
X173707546Y-84207546D01*
X173793796Y-84092331D01*
X173844091Y-83957483D01*
X173850500Y-83897873D01*
X173850499Y-82102128D01*
X173844091Y-82042517D01*
X173809584Y-81950000D01*
X173793797Y-81907671D01*
X173793793Y-81907665D01*
X173787165Y-81898810D01*
X173762748Y-81833346D01*
X173777600Y-81765073D01*
X173827005Y-81715668D01*
X173886432Y-81700500D01*
X174276882Y-81700500D01*
X174343921Y-81720185D01*
G37*
%TD.AperFunction*%
%TA.AperFunction,Conductor*%
G36*
X98154953Y-97388309D02*
G01*
X98193810Y-97446378D01*
X98199500Y-97483510D01*
X98199500Y-101125200D01*
X98179815Y-101192239D01*
X98178602Y-101194091D01*
X98100609Y-101310814D01*
X98100602Y-101310827D01*
X98040264Y-101456498D01*
X98040261Y-101456508D01*
X98009361Y-101611850D01*
X97976976Y-101673761D01*
X97975425Y-101675339D01*
X96769482Y-102881281D01*
X96769480Y-102881283D01*
X96769480Y-102881284D01*
X96722426Y-102962784D01*
X96722425Y-102962786D01*
X96691767Y-103015885D01*
X96649478Y-103059421D01*
X96531347Y-103132285D01*
X96531343Y-103132288D01*
X96407285Y-103256346D01*
X96405537Y-103259182D01*
X96403829Y-103260717D01*
X96402807Y-103262011D01*
X96402585Y-103261836D01*
X96353589Y-103305905D01*
X96284626Y-103317126D01*
X96220544Y-103289282D01*
X96194463Y-103259182D01*
X96192714Y-103256346D01*
X96068657Y-103132289D01*
X96068656Y-103132288D01*
X95919334Y-103040186D01*
X95752797Y-102985001D01*
X95752795Y-102985000D01*
X95650010Y-102974500D01*
X95049998Y-102974500D01*
X95049980Y-102974501D01*
X94947203Y-102985000D01*
X94947200Y-102985001D01*
X94780668Y-103040185D01*
X94780663Y-103040187D01*
X94631342Y-103132289D01*
X94507289Y-103256342D01*
X94415187Y-103405663D01*
X94415186Y-103405666D01*
X94360001Y-103572203D01*
X94360001Y-103572204D01*
X94360000Y-103572204D01*
X94349500Y-103674983D01*
X94349500Y-104299901D01*
X94340855Y-104329341D01*
X94334332Y-104359328D01*
X94330577Y-104364343D01*
X94329815Y-104366940D01*
X94313181Y-104387582D01*
X94312181Y-104388582D01*
X94250858Y-104422067D01*
X94181166Y-104417083D01*
X94125233Y-104375211D01*
X94100816Y-104309747D01*
X94100500Y-104300901D01*
X94100500Y-98779765D01*
X94120185Y-98712726D01*
X94121398Y-98710874D01*
X94143222Y-98678213D01*
X94209394Y-98579179D01*
X94269737Y-98433497D01*
X94288222Y-98340563D01*
X94320604Y-98278656D01*
X94322099Y-98277134D01*
X94739138Y-97860095D01*
X94800459Y-97826612D01*
X94839421Y-97824420D01*
X94849991Y-97825500D01*
X95450008Y-97825499D01*
X95450016Y-97825498D01*
X95450019Y-97825498D01*
X95506302Y-97819748D01*
X95552797Y-97814999D01*
X95719334Y-97759814D01*
X95868656Y-97667712D01*
X95992712Y-97543656D01*
X95994461Y-97540819D01*
X95996169Y-97539283D01*
X95997193Y-97537989D01*
X95997414Y-97538163D01*
X96046406Y-97494096D01*
X96115368Y-97482872D01*
X96179451Y-97510713D01*
X96205537Y-97540817D01*
X96207288Y-97543656D01*
X96331344Y-97667712D01*
X96480666Y-97759814D01*
X96647203Y-97814999D01*
X96749991Y-97825500D01*
X97350008Y-97825499D01*
X97350016Y-97825498D01*
X97350019Y-97825498D01*
X97406302Y-97819748D01*
X97452797Y-97814999D01*
X97619334Y-97759814D01*
X97768656Y-97667712D01*
X97892712Y-97543656D01*
X97969961Y-97418413D01*
X98021909Y-97371689D01*
X98090871Y-97360466D01*
X98154953Y-97388309D01*
G37*
%TD.AperFunction*%
%TA.AperFunction,Conductor*%
G36*
X96317553Y-91083821D02*
G01*
X96319920Y-91083526D01*
X96349436Y-91097673D01*
X96379451Y-91110713D01*
X96381445Y-91113015D01*
X96382927Y-91113725D01*
X96405537Y-91140817D01*
X96407288Y-91143656D01*
X96531344Y-91267712D01*
X96680666Y-91359814D01*
X96847203Y-91414999D01*
X96949991Y-91425500D01*
X97550008Y-91425499D01*
X97550016Y-91425498D01*
X97550019Y-91425498D01*
X97606302Y-91419748D01*
X97652797Y-91414999D01*
X97819334Y-91359814D01*
X97968656Y-91267712D01*
X97987819Y-91248549D01*
X98049142Y-91215064D01*
X98118834Y-91220048D01*
X98174767Y-91261920D01*
X98199184Y-91327384D01*
X98199500Y-91336230D01*
X98199500Y-93920234D01*
X98179815Y-93987273D01*
X98178602Y-93989125D01*
X98090609Y-94120814D01*
X98090602Y-94120827D01*
X98030264Y-94266498D01*
X98030261Y-94266510D01*
X97999500Y-94421153D01*
X97999500Y-94578846D01*
X98023471Y-94699355D01*
X98017244Y-94768946D01*
X97989535Y-94811227D01*
X97460861Y-95339902D01*
X97399538Y-95373387D01*
X97360582Y-95375579D01*
X97350028Y-95374501D01*
X97350012Y-95374500D01*
X97350009Y-95374500D01*
X97350004Y-95374500D01*
X96749998Y-95374500D01*
X96749980Y-95374501D01*
X96647203Y-95385000D01*
X96647200Y-95385001D01*
X96480668Y-95440185D01*
X96480663Y-95440187D01*
X96331342Y-95532289D01*
X96207285Y-95656346D01*
X96205537Y-95659182D01*
X96203829Y-95660717D01*
X96202807Y-95662011D01*
X96202585Y-95661836D01*
X96153589Y-95705905D01*
X96084626Y-95717126D01*
X96020544Y-95689282D01*
X95994463Y-95659182D01*
X95992714Y-95656346D01*
X95868657Y-95532289D01*
X95868656Y-95532288D01*
X95719334Y-95440186D01*
X95552797Y-95385001D01*
X95552795Y-95385000D01*
X95450010Y-95374500D01*
X94849998Y-95374500D01*
X94849980Y-95374501D01*
X94747203Y-95385000D01*
X94747200Y-95385001D01*
X94580668Y-95440185D01*
X94580663Y-95440187D01*
X94431342Y-95532289D01*
X94312181Y-95651451D01*
X94250858Y-95684936D01*
X94181166Y-95679952D01*
X94125233Y-95638080D01*
X94100816Y-95572616D01*
X94100500Y-95563770D01*
X94100500Y-92379764D01*
X94105827Y-92361620D01*
X94106165Y-92342711D01*
X94119665Y-92314493D01*
X94120185Y-92312725D01*
X94121398Y-92310873D01*
X94121786Y-92310291D01*
X94121789Y-92310289D01*
X94181138Y-92221465D01*
X94196561Y-92202674D01*
X94240722Y-92158514D01*
X94240729Y-92158504D01*
X94939138Y-91460095D01*
X95000459Y-91426612D01*
X95039421Y-91424420D01*
X95049991Y-91425500D01*
X95650008Y-91425499D01*
X95650016Y-91425498D01*
X95650019Y-91425498D01*
X95706302Y-91419748D01*
X95752797Y-91414999D01*
X95919334Y-91359814D01*
X96068656Y-91267712D01*
X96192712Y-91143656D01*
X96194461Y-91140819D01*
X96196169Y-91139283D01*
X96196244Y-91139188D01*
X96196946Y-91136954D01*
X96222061Y-91115994D01*
X96246406Y-91094096D01*
X96248759Y-91093712D01*
X96250589Y-91092186D01*
X96283065Y-91088129D01*
X96315368Y-91082872D01*
X96317553Y-91083821D01*
G37*
%TD.AperFunction*%
%TA.AperFunction,Conductor*%
G36*
X188742591Y-71319685D02*
G01*
X188788346Y-71372489D01*
X188799550Y-71424446D01*
X188728183Y-91193445D01*
X188600446Y-126576330D01*
X188580520Y-126643298D01*
X188527551Y-126688862D01*
X188476329Y-126699882D01*
X83823882Y-126600118D01*
X83756861Y-126580369D01*
X83711157Y-126527522D01*
X83700000Y-126476118D01*
X83700000Y-124498543D01*
X139189499Y-124498543D01*
X139227947Y-124691829D01*
X139227950Y-124691839D01*
X139303364Y-124873907D01*
X139303371Y-124873920D01*
X139412860Y-125037781D01*
X139412863Y-125037785D01*
X139552214Y-125177136D01*
X139552218Y-125177139D01*
X139716079Y-125286628D01*
X139716092Y-125286635D01*
X139898160Y-125362049D01*
X139898165Y-125362051D01*
X139898169Y-125362051D01*
X139898170Y-125362052D01*
X140091456Y-125400500D01*
X140091459Y-125400500D01*
X140288543Y-125400500D01*
X140418582Y-125374632D01*
X140481835Y-125362051D01*
X140663914Y-125286632D01*
X140756109Y-125225029D01*
X140822786Y-125204151D01*
X140890166Y-125222635D01*
X140893891Y-125225029D01*
X140948577Y-125261569D01*
X140986086Y-125286632D01*
X140986088Y-125286633D01*
X140986092Y-125286635D01*
X141168160Y-125362049D01*
X141168165Y-125362051D01*
X141168169Y-125362051D01*
X141168170Y-125362052D01*
X141361456Y-125400500D01*
X141361459Y-125400500D01*
X141558543Y-125400500D01*
X141688582Y-125374632D01*
X141751835Y-125362051D01*
X141933914Y-125286632D01*
X142026109Y-125225029D01*
X142092786Y-125204151D01*
X142160166Y-125222635D01*
X142163891Y-125225029D01*
X142218577Y-125261569D01*
X142256086Y-125286632D01*
X142256088Y-125286633D01*
X142256092Y-125286635D01*
X142438160Y-125362049D01*
X142438165Y-125362051D01*
X142438169Y-125362051D01*
X142438170Y-125362052D01*
X142631456Y-125400500D01*
X142631459Y-125400500D01*
X142828543Y-125400500D01*
X142958582Y-125374632D01*
X143021835Y-125362051D01*
X143124126Y-125319680D01*
X143193590Y-125312212D01*
X143245887Y-125334976D01*
X143257668Y-125343795D01*
X143257671Y-125343797D01*
X143392517Y-125394091D01*
X143392516Y-125394091D01*
X143399444Y-125394835D01*
X143452127Y-125400500D01*
X144547872Y-125400499D01*
X144607483Y-125394091D01*
X144742331Y-125343796D01*
X144857546Y-125257546D01*
X144943796Y-125142331D01*
X144994091Y-125007483D01*
X145000500Y-124947873D01*
X145000499Y-124201504D01*
X146290000Y-124201504D01*
X146290000Y-124398495D01*
X146328427Y-124591681D01*
X146328430Y-124591693D01*
X146403808Y-124773673D01*
X146403809Y-124773675D01*
X146427425Y-124809019D01*
X146936446Y-124300000D01*
X146936446Y-124299999D01*
X146427426Y-123790978D01*
X146427426Y-123790979D01*
X146403813Y-123826318D01*
X146403809Y-123826325D01*
X146328429Y-124008310D01*
X146328427Y-124008318D01*
X146290000Y-124201504D01*
X145000499Y-124201504D01*
X145000499Y-123852128D01*
X144994091Y-123792517D01*
X144993517Y-123790979D01*
X144943797Y-123657671D01*
X144943793Y-123657664D01*
X144857547Y-123542456D01*
X144857548Y-123542456D01*
X144857546Y-123542454D01*
X144808939Y-123506067D01*
X144767070Y-123450135D01*
X144760651Y-123388229D01*
X145057724Y-121427553D01*
X145087229Y-121364222D01*
X145093109Y-121357988D01*
X153609512Y-112935173D01*
X153671016Y-112902030D01*
X153672879Y-112901744D01*
X153672868Y-112901689D01*
X153759334Y-112884488D01*
X153833497Y-112869737D01*
X153979179Y-112809394D01*
X154110289Y-112721789D01*
X154221789Y-112610289D01*
X154309394Y-112479179D01*
X154369737Y-112333497D01*
X154400500Y-112178842D01*
X154400500Y-112021158D01*
X154400500Y-112021155D01*
X154400499Y-112021153D01*
X154384378Y-111940110D01*
X154369737Y-111866503D01*
X154342398Y-111800500D01*
X154309397Y-111720827D01*
X154309390Y-111720814D01*
X154221789Y-111589711D01*
X154221786Y-111589707D01*
X154110292Y-111478213D01*
X154110288Y-111478210D01*
X153979185Y-111390609D01*
X153979172Y-111390602D01*
X153833501Y-111330264D01*
X153833489Y-111330261D01*
X153678845Y-111299500D01*
X153678842Y-111299500D01*
X153521158Y-111299500D01*
X153521155Y-111299500D01*
X153366510Y-111330261D01*
X153366498Y-111330264D01*
X153220827Y-111390602D01*
X153220814Y-111390609D01*
X153089711Y-111478210D01*
X153089707Y-111478213D01*
X152978213Y-111589707D01*
X152978210Y-111589711D01*
X152890609Y-111720814D01*
X152890602Y-111720827D01*
X152830264Y-111866498D01*
X152830261Y-111866508D01*
X152800481Y-112016220D01*
X152768096Y-112078131D01*
X152766059Y-112080192D01*
X144115111Y-120636075D01*
X144115111Y-120636076D01*
X144108714Y-120642403D01*
X144080138Y-120663460D01*
X144052744Y-120697755D01*
X144047577Y-120702866D01*
X144047578Y-120702866D01*
X144021525Y-120728634D01*
X144008148Y-120751507D01*
X144008149Y-120751508D01*
X144003609Y-120759272D01*
X143981460Y-120787004D01*
X143963875Y-120827222D01*
X143960209Y-120833492D01*
X143960206Y-120833493D01*
X143941713Y-120865123D01*
X143941712Y-120865126D01*
X143941712Y-120865127D01*
X143932335Y-120899363D01*
X143918120Y-120931877D01*
X143911545Y-120975264D01*
X143909628Y-120982264D01*
X143909627Y-120982270D01*
X143899944Y-121017626D01*
X143899797Y-121044130D01*
X143898400Y-121062015D01*
X143577101Y-123182597D01*
X143547595Y-123245931D01*
X143488533Y-123283259D01*
X143418665Y-123282730D01*
X143360175Y-123244512D01*
X143331632Y-123180738D01*
X143330500Y-123164021D01*
X143330500Y-120870097D01*
X143350185Y-120803058D01*
X143366819Y-120782416D01*
X149839078Y-114310157D01*
X149839091Y-114310142D01*
X153714664Y-110434571D01*
X153775985Y-110401088D01*
X153778152Y-110400637D01*
X153778841Y-110400500D01*
X153778842Y-110400500D01*
X153933497Y-110369737D01*
X154079179Y-110309394D01*
X154210289Y-110221789D01*
X154321789Y-110110289D01*
X154409394Y-109979179D01*
X154469737Y-109833497D01*
X154500500Y-109678842D01*
X154500500Y-109521158D01*
X154500500Y-109521155D01*
X154500499Y-109521153D01*
X154496848Y-109502798D01*
X154469737Y-109366503D01*
X154444795Y-109306287D01*
X154409397Y-109220827D01*
X154409390Y-109220814D01*
X154321789Y-109089711D01*
X154321786Y-109089707D01*
X154210292Y-108978213D01*
X154210288Y-108978210D01*
X154079185Y-108890609D01*
X154079172Y-108890602D01*
X153933501Y-108830264D01*
X153933489Y-108830261D01*
X153778845Y-108799500D01*
X153778842Y-108799500D01*
X153621158Y-108799500D01*
X153621155Y-108799500D01*
X153466510Y-108830261D01*
X153466498Y-108830264D01*
X153320827Y-108890602D01*
X153320814Y-108890609D01*
X153189711Y-108978210D01*
X153189707Y-108978213D01*
X153078213Y-109089707D01*
X153078210Y-109089711D01*
X152990609Y-109220814D01*
X152990602Y-109220827D01*
X152930264Y-109366498D01*
X152930261Y-109366508D01*
X152899362Y-109521848D01*
X152866977Y-109583759D01*
X152865426Y-109585337D01*
X148931284Y-113519481D01*
X142361286Y-120089478D01*
X142272181Y-120178583D01*
X142210858Y-120212068D01*
X142141166Y-120207084D01*
X142085233Y-120165212D01*
X142060816Y-120099748D01*
X142060500Y-120090902D01*
X142060500Y-119240096D01*
X142080185Y-119173057D01*
X142096814Y-119152420D01*
X147511624Y-113737609D01*
X147516149Y-113733308D01*
X152110295Y-109583759D01*
X153274213Y-108532479D01*
X153337157Y-108502152D01*
X153357328Y-108500500D01*
X153378844Y-108500500D01*
X153378845Y-108500499D01*
X153533497Y-108469737D01*
X153679179Y-108409394D01*
X153810289Y-108321789D01*
X153921789Y-108210289D01*
X154009394Y-108079179D01*
X154069737Y-107933497D01*
X154100500Y-107778842D01*
X154100500Y-107621158D01*
X154100500Y-107621155D01*
X154100499Y-107621153D01*
X154089229Y-107564497D01*
X154069737Y-107466503D01*
X154037963Y-107389792D01*
X154009397Y-107320827D01*
X154009390Y-107320814D01*
X153921789Y-107189711D01*
X153921786Y-107189707D01*
X153810292Y-107078213D01*
X153810288Y-107078210D01*
X153679185Y-106990609D01*
X153679172Y-106990602D01*
X153533501Y-106930264D01*
X153533489Y-106930261D01*
X153378845Y-106899500D01*
X153378842Y-106899500D01*
X153221158Y-106899500D01*
X153221155Y-106899500D01*
X153066510Y-106930261D01*
X153066498Y-106930264D01*
X152920827Y-106990602D01*
X152920814Y-106990609D01*
X152789711Y-107078210D01*
X152789707Y-107078213D01*
X152678213Y-107189707D01*
X152678210Y-107189711D01*
X152590609Y-107320814D01*
X152590602Y-107320827D01*
X152530264Y-107466498D01*
X152530261Y-107466508D01*
X152509287Y-107571950D01*
X152476902Y-107633861D01*
X152470786Y-107639779D01*
X148394977Y-111321155D01*
X146821533Y-112742331D01*
X146754422Y-112802947D01*
X146754421Y-112802947D01*
X146744676Y-112811747D01*
X146731284Y-112819481D01*
X146686205Y-112864558D01*
X146683861Y-112866676D01*
X146683847Y-112866691D01*
X146638823Y-112907359D01*
X146638821Y-112907362D01*
X146637546Y-112909332D01*
X146621135Y-112929628D01*
X141098488Y-118452275D01*
X141037165Y-118485760D01*
X140967473Y-118480776D01*
X140911540Y-118438904D01*
X140887123Y-118373440D01*
X140886823Y-118362639D01*
X140895638Y-117809709D01*
X140916388Y-117742993D01*
X140933362Y-117722606D01*
X152900666Y-106135219D01*
X152962520Y-106102728D01*
X152974773Y-106100900D01*
X152978834Y-106100500D01*
X152978842Y-106100500D01*
X152978850Y-106100498D01*
X152978854Y-106100498D01*
X153040728Y-106088190D01*
X153133497Y-106069737D01*
X153248219Y-106022218D01*
X153279172Y-106009397D01*
X153279172Y-106009396D01*
X153279179Y-106009394D01*
X153410289Y-105921789D01*
X153521789Y-105810289D01*
X153609394Y-105679179D01*
X153669737Y-105533497D01*
X153700500Y-105378842D01*
X153700500Y-105221158D01*
X153700500Y-105221155D01*
X153700499Y-105221153D01*
X153697299Y-105205064D01*
X153669737Y-105066503D01*
X153663778Y-105052116D01*
X153609397Y-104920827D01*
X153609390Y-104920814D01*
X153521789Y-104789711D01*
X153521786Y-104789707D01*
X153410292Y-104678213D01*
X153410288Y-104678210D01*
X153279185Y-104590609D01*
X153279172Y-104590602D01*
X153133501Y-104530264D01*
X153133489Y-104530261D01*
X152978845Y-104499500D01*
X152978842Y-104499500D01*
X152821158Y-104499500D01*
X152821155Y-104499500D01*
X152666510Y-104530261D01*
X152666498Y-104530264D01*
X152520827Y-104590602D01*
X152520814Y-104590609D01*
X152389711Y-104678210D01*
X152389707Y-104678213D01*
X152278213Y-104789707D01*
X152278210Y-104789711D01*
X152190609Y-104920814D01*
X152190602Y-104920827D01*
X152130264Y-105066498D01*
X152130261Y-105066508D01*
X152102600Y-105205567D01*
X152070215Y-105267478D01*
X152067239Y-105270459D01*
X139944749Y-117008107D01*
X139944748Y-117008106D01*
X139939035Y-117013637D01*
X139938990Y-117013663D01*
X139882671Y-117068214D01*
X139881029Y-117069804D01*
X139878175Y-117072568D01*
X139878161Y-117072582D01*
X139825474Y-117123596D01*
X139825419Y-117123668D01*
X139784385Y-117192195D01*
X139784374Y-117192213D01*
X139744232Y-117259223D01*
X139744194Y-117259308D01*
X139722467Y-117335509D01*
X139722449Y-117335575D01*
X139700853Y-117411269D01*
X139700852Y-117411324D01*
X139700836Y-117411381D01*
X139700834Y-117411492D01*
X139700833Y-117411497D01*
X139699624Y-117487377D01*
X139699545Y-117492342D01*
X139698303Y-117569363D01*
X139698315Y-117569415D01*
X139698190Y-117577295D01*
X139603382Y-123524361D01*
X139582632Y-123591078D01*
X139555952Y-123617823D01*
X139556920Y-123619003D01*
X139552211Y-123622867D01*
X139412863Y-123762214D01*
X139412860Y-123762218D01*
X139303371Y-123926079D01*
X139303364Y-123926092D01*
X139227950Y-124108160D01*
X139227947Y-124108170D01*
X139189500Y-124301456D01*
X139189500Y-124301459D01*
X139189500Y-124498541D01*
X139189500Y-124498543D01*
X139189499Y-124498543D01*
X83700000Y-124498543D01*
X83700000Y-117882135D01*
X99134500Y-117882135D01*
X99134500Y-119477870D01*
X99134501Y-119477876D01*
X99140908Y-119537483D01*
X99191202Y-119672328D01*
X99191206Y-119672335D01*
X99277452Y-119787544D01*
X99277455Y-119787547D01*
X99392664Y-119873793D01*
X99392671Y-119873797D01*
X99527517Y-119924091D01*
X99527516Y-119924091D01*
X99534444Y-119924835D01*
X99587127Y-119930500D01*
X100732872Y-119930499D01*
X100792483Y-119924091D01*
X100927331Y-119873796D01*
X100928893Y-119872626D01*
X100930722Y-119871944D01*
X100935118Y-119869544D01*
X100935462Y-119870175D01*
X100994354Y-119848204D01*
X101050664Y-119857326D01*
X101131017Y-119890609D01*
X101131025Y-119890611D01*
X101180000Y-119900353D01*
X101180000Y-119535671D01*
X101180711Y-119522415D01*
X101185499Y-119477881D01*
X101185500Y-119477873D01*
X101185499Y-118965829D01*
X101199745Y-118980075D01*
X101285255Y-119029444D01*
X101380630Y-119055000D01*
X101479370Y-119055000D01*
X101574745Y-119029444D01*
X101660255Y-118980075D01*
X101674500Y-118965830D01*
X101674500Y-119006002D01*
X101677617Y-119021671D01*
X101680000Y-119045865D01*
X101680000Y-119900352D01*
X101728974Y-119890612D01*
X101728983Y-119890609D01*
X101915515Y-119813346D01*
X101915518Y-119813344D01*
X101995658Y-119759796D01*
X102062335Y-119738917D01*
X102129716Y-119757401D01*
X102133422Y-119759783D01*
X102214244Y-119813786D01*
X102400873Y-119891091D01*
X102566777Y-119924091D01*
X102598992Y-119930499D01*
X102598996Y-119930500D01*
X102598997Y-119930500D01*
X102801004Y-119930500D01*
X102801005Y-119930499D01*
X102999127Y-119891091D01*
X103185756Y-119813786D01*
X103353718Y-119701558D01*
X103496558Y-119558718D01*
X103608786Y-119390756D01*
X103686091Y-119204127D01*
X103725500Y-119006003D01*
X103725500Y-118353997D01*
X103686091Y-118155873D01*
X103608786Y-117969244D01*
X103608784Y-117969241D01*
X103608782Y-117969237D01*
X103496558Y-117801281D01*
X103353721Y-117658444D01*
X103349010Y-117654578D01*
X103350156Y-117653181D01*
X103310802Y-117606088D01*
X103300500Y-117556603D01*
X103300500Y-115324986D01*
X106050001Y-115324986D01*
X106060494Y-115427697D01*
X106115641Y-115594119D01*
X106115643Y-115594124D01*
X106207684Y-115743345D01*
X106331654Y-115867315D01*
X106480875Y-115959356D01*
X106480880Y-115959358D01*
X106647302Y-116014505D01*
X106647309Y-116014506D01*
X106750019Y-116024999D01*
X106799999Y-116024998D01*
X106800000Y-116024998D01*
X106800000Y-115050000D01*
X106050001Y-115050000D01*
X106050001Y-115324986D01*
X103300500Y-115324986D01*
X103300500Y-114275013D01*
X106050000Y-114275013D01*
X106050000Y-114550000D01*
X106800000Y-114550000D01*
X106800000Y-113575000D01*
X106799999Y-113574999D01*
X106750029Y-113575000D01*
X106750011Y-113575001D01*
X106647302Y-113585494D01*
X106480880Y-113640641D01*
X106480875Y-113640643D01*
X106331654Y-113732684D01*
X106207684Y-113856654D01*
X106115643Y-114005875D01*
X106115641Y-114005880D01*
X106060494Y-114172302D01*
X106060493Y-114172309D01*
X106050000Y-114275013D01*
X103300500Y-114275013D01*
X103300500Y-111717847D01*
X103320185Y-111650808D01*
X103372989Y-111605053D01*
X103400309Y-111596230D01*
X103416291Y-111593050D01*
X103533497Y-111569737D01*
X103679179Y-111509394D01*
X103810289Y-111421789D01*
X103921789Y-111310289D01*
X103941234Y-111281188D01*
X103994846Y-111236383D01*
X104064171Y-111227676D01*
X104127198Y-111257830D01*
X104158897Y-111302627D01*
X104190602Y-111379172D01*
X104190609Y-111379185D01*
X104278210Y-111510288D01*
X104278213Y-111510292D01*
X104389707Y-111621786D01*
X104389711Y-111621789D01*
X104520814Y-111709390D01*
X104520827Y-111709397D01*
X104658683Y-111766498D01*
X104666503Y-111769737D01*
X104821153Y-111800499D01*
X104821156Y-111800500D01*
X104821158Y-111800500D01*
X104978844Y-111800500D01*
X104978845Y-111800499D01*
X105133497Y-111769737D01*
X105251592Y-111720821D01*
X105279172Y-111709397D01*
X105279172Y-111709396D01*
X105279179Y-111709394D01*
X105410289Y-111621789D01*
X105521789Y-111510289D01*
X105609394Y-111379179D01*
X105669737Y-111233497D01*
X105700500Y-111078842D01*
X105700500Y-110921158D01*
X105700500Y-110921155D01*
X105700499Y-110921153D01*
X105669738Y-110766510D01*
X105669737Y-110766503D01*
X105663425Y-110751265D01*
X105609397Y-110620827D01*
X105609390Y-110620814D01*
X105521398Y-110489125D01*
X105500520Y-110422447D01*
X105500500Y-110420234D01*
X105500500Y-102127350D01*
X105520185Y-102060311D01*
X105572989Y-102014556D01*
X105642147Y-102004612D01*
X105693391Y-102024248D01*
X105820814Y-102109390D01*
X105820827Y-102109397D01*
X105966498Y-102169735D01*
X105966503Y-102169737D01*
X106120097Y-102200289D01*
X106121153Y-102200499D01*
X106121156Y-102200500D01*
X106121158Y-102200500D01*
X106278844Y-102200500D01*
X106278845Y-102200499D01*
X106433497Y-102169737D01*
X106546166Y-102123067D01*
X106579172Y-102109397D01*
X106579172Y-102109396D01*
X106579179Y-102109394D01*
X106710289Y-102021789D01*
X106821789Y-101910289D01*
X106909394Y-101779179D01*
X106969737Y-101633497D01*
X106969738Y-101633490D01*
X106971506Y-101627666D01*
X106973507Y-101628273D01*
X107001458Y-101574788D01*
X107019604Y-101559278D01*
X107509710Y-101216205D01*
X107575918Y-101193888D01*
X107643683Y-101210908D01*
X107691489Y-101261863D01*
X107702435Y-101293600D01*
X107730261Y-101433489D01*
X107730264Y-101433501D01*
X107790602Y-101579172D01*
X107790609Y-101579185D01*
X107878210Y-101710288D01*
X107878213Y-101710292D01*
X107989707Y-101821786D01*
X107989711Y-101821789D01*
X108120814Y-101909390D01*
X108120827Y-101909397D01*
X108219324Y-101950195D01*
X108266503Y-101969737D01*
X108398284Y-101995950D01*
X108421153Y-102000499D01*
X108421156Y-102000500D01*
X108421158Y-102000500D01*
X108578844Y-102000500D01*
X108578845Y-102000499D01*
X108733497Y-101969737D01*
X108850585Y-101921238D01*
X108879172Y-101909397D01*
X108879172Y-101909396D01*
X108879179Y-101909394D01*
X109010289Y-101821789D01*
X109121789Y-101710289D01*
X109209394Y-101579179D01*
X109209658Y-101578539D01*
X109209886Y-101578256D01*
X109212264Y-101573809D01*
X109213106Y-101574259D01*
X109214295Y-101572784D01*
X109215932Y-101565573D01*
X109235917Y-101545944D01*
X109253490Y-101524132D01*
X109261739Y-101520584D01*
X109265781Y-101516615D01*
X109296662Y-101505566D01*
X109298959Y-101504579D01*
X109299358Y-101504495D01*
X109403609Y-101483759D01*
X109408267Y-101481829D01*
X109419104Y-101479574D01*
X109448626Y-101481952D01*
X109478231Y-101481686D01*
X109483058Y-101484727D01*
X109488748Y-101485186D01*
X109512296Y-101503146D01*
X109537347Y-101518929D01*
X109539764Y-101524097D01*
X109544302Y-101527559D01*
X109554400Y-101555396D01*
X109566944Y-101582220D01*
X109566182Y-101587875D01*
X109568129Y-101593241D01*
X109561573Y-101622121D01*
X109557624Y-101651466D01*
X109553456Y-101657881D01*
X109552663Y-101661378D01*
X109548580Y-101665387D01*
X109536538Y-101683926D01*
X109460112Y-101768842D01*
X109019450Y-102258454D01*
X108959973Y-102295114D01*
X108927284Y-102299500D01*
X108120943Y-102299500D01*
X107968216Y-102340423D01*
X107968209Y-102340426D01*
X107831290Y-102419475D01*
X107831282Y-102419481D01*
X107719481Y-102531282D01*
X107719475Y-102531290D01*
X107640426Y-102668209D01*
X107640423Y-102668216D01*
X107599500Y-102820943D01*
X107599500Y-110820234D01*
X107579815Y-110887273D01*
X107578602Y-110889125D01*
X107490609Y-111020814D01*
X107490602Y-111020827D01*
X107430264Y-111166498D01*
X107430261Y-111166510D01*
X107399500Y-111321153D01*
X107399500Y-111478846D01*
X107430261Y-111633489D01*
X107430264Y-111633501D01*
X107490602Y-111779172D01*
X107490609Y-111779185D01*
X107578210Y-111910288D01*
X107578213Y-111910292D01*
X107689707Y-112021786D01*
X107689711Y-112021789D01*
X107820814Y-112109390D01*
X107820827Y-112109397D01*
X107966498Y-112169735D01*
X107966503Y-112169737D01*
X108121153Y-112200499D01*
X108121156Y-112200500D01*
X108121158Y-112200500D01*
X108278844Y-112200500D01*
X108278845Y-112200499D01*
X108433497Y-112169737D01*
X108579179Y-112109394D01*
X108710289Y-112021789D01*
X108821789Y-111910289D01*
X108909394Y-111779179D01*
X108969737Y-111633497D01*
X109000500Y-111478842D01*
X109000500Y-111321158D01*
X109000500Y-111321155D01*
X109000499Y-111321153D01*
X108982496Y-111230648D01*
X108969737Y-111166503D01*
X108956248Y-111133938D01*
X108909397Y-111020827D01*
X108909390Y-111020814D01*
X108821398Y-110889125D01*
X108800520Y-110822447D01*
X108800500Y-110820234D01*
X108800500Y-106794168D01*
X108820185Y-106727129D01*
X108872989Y-106681374D01*
X108942147Y-106671430D01*
X108993392Y-106691067D01*
X109020812Y-106709389D01*
X109020827Y-106709397D01*
X109158171Y-106766286D01*
X109166503Y-106769737D01*
X109311234Y-106798526D01*
X109321153Y-106800499D01*
X109321156Y-106800500D01*
X109321158Y-106800500D01*
X109478843Y-106800500D01*
X109494564Y-106797372D01*
X109551309Y-106786085D01*
X109620899Y-106792312D01*
X109676077Y-106835174D01*
X109699322Y-106901063D01*
X109699500Y-106907702D01*
X109699500Y-106978846D01*
X109730261Y-107133489D01*
X109730264Y-107133501D01*
X109790602Y-107279172D01*
X109790609Y-107279185D01*
X109878210Y-107410288D01*
X109878213Y-107410292D01*
X109989707Y-107521786D01*
X109989711Y-107521789D01*
X110120814Y-107609390D01*
X110120827Y-107609397D01*
X110258273Y-107666328D01*
X110266503Y-107669737D01*
X110421153Y-107700499D01*
X110421156Y-107700500D01*
X110421158Y-107700500D01*
X110578844Y-107700500D01*
X110578845Y-107700499D01*
X110733497Y-107669737D01*
X110879179Y-107609394D01*
X111010289Y-107521789D01*
X111121789Y-107410289D01*
X111209394Y-107279179D01*
X111269737Y-107133497D01*
X111300500Y-106978842D01*
X111300500Y-106821158D01*
X111300500Y-106821155D01*
X111300499Y-106821153D01*
X111292493Y-106780904D01*
X111269737Y-106666503D01*
X111250812Y-106620814D01*
X111209397Y-106520827D01*
X111209390Y-106520814D01*
X111126926Y-106397399D01*
X111106048Y-106330722D01*
X111124532Y-106263342D01*
X111129825Y-106255465D01*
X112775307Y-103998804D01*
X112830710Y-103956234D01*
X112900334Y-103950374D01*
X112962073Y-103983086D01*
X112996325Y-104043984D01*
X112999500Y-104071862D01*
X112999500Y-109020234D01*
X112979815Y-109087273D01*
X112978602Y-109089125D01*
X112890609Y-109220814D01*
X112890602Y-109220827D01*
X112830264Y-109366498D01*
X112830261Y-109366508D01*
X112799361Y-109521850D01*
X112766976Y-109583761D01*
X112765425Y-109585339D01*
X111712181Y-110638584D01*
X111650858Y-110672069D01*
X111581166Y-110667085D01*
X111525233Y-110625213D01*
X111500816Y-110559749D01*
X111500500Y-110550903D01*
X111500500Y-110421155D01*
X111500499Y-110421153D01*
X111490732Y-110372051D01*
X111469737Y-110266503D01*
X111446421Y-110210213D01*
X111409397Y-110120827D01*
X111409390Y-110120814D01*
X111321789Y-109989711D01*
X111321786Y-109989707D01*
X111210292Y-109878213D01*
X111210288Y-109878210D01*
X111079185Y-109790609D01*
X111079172Y-109790602D01*
X110933501Y-109730264D01*
X110933489Y-109730261D01*
X110778845Y-109699500D01*
X110778842Y-109699500D01*
X110621158Y-109699500D01*
X110621155Y-109699500D01*
X110466510Y-109730261D01*
X110466498Y-109730264D01*
X110320827Y-109790602D01*
X110320814Y-109790609D01*
X110189711Y-109878210D01*
X110189707Y-109878213D01*
X110078213Y-109989707D01*
X110078210Y-109989711D01*
X109990609Y-110120814D01*
X109990602Y-110120827D01*
X109930264Y-110266498D01*
X109930261Y-110266510D01*
X109899500Y-110421153D01*
X109899500Y-110578846D01*
X109930261Y-110733489D01*
X109930264Y-110733501D01*
X109990602Y-110879172D01*
X109990609Y-110879185D01*
X110078602Y-111010874D01*
X110099480Y-111077551D01*
X110099500Y-111079765D01*
X110099500Y-111599902D01*
X110079815Y-111666941D01*
X110063181Y-111687583D01*
X109581029Y-112169735D01*
X109131286Y-112619478D01*
X109131284Y-112619480D01*
X108881026Y-112869738D01*
X108624217Y-113126546D01*
X108624214Y-113126548D01*
X108624215Y-113126549D01*
X108519478Y-113231286D01*
X108469361Y-113318094D01*
X108469359Y-113318096D01*
X108440425Y-113368209D01*
X108440424Y-113368210D01*
X108429224Y-113410008D01*
X108399499Y-113520943D01*
X108399499Y-113520945D01*
X108399499Y-113559362D01*
X108379814Y-113626401D01*
X108340596Y-113664901D01*
X108231342Y-113732289D01*
X108107288Y-113856343D01*
X108107283Y-113856349D01*
X108105241Y-113859661D01*
X108103247Y-113861453D01*
X108102807Y-113862011D01*
X108102711Y-113861935D01*
X108053291Y-113906383D01*
X107984328Y-113917602D01*
X107920247Y-113889755D01*
X107894168Y-113859656D01*
X107892319Y-113856659D01*
X107892316Y-113856655D01*
X107768345Y-113732684D01*
X107619124Y-113640643D01*
X107619119Y-113640641D01*
X107452697Y-113585494D01*
X107452690Y-113585493D01*
X107349986Y-113575000D01*
X107300000Y-113575000D01*
X107300000Y-116024999D01*
X107349972Y-116024999D01*
X107349986Y-116024998D01*
X107452697Y-116014505D01*
X107619119Y-115959358D01*
X107619124Y-115959356D01*
X107768345Y-115867315D01*
X107892318Y-115743342D01*
X107894165Y-115740348D01*
X107895969Y-115738724D01*
X107896798Y-115737677D01*
X107896976Y-115737818D01*
X107946110Y-115693621D01*
X108015073Y-115682396D01*
X108079156Y-115710236D01*
X108105243Y-115740341D01*
X108107288Y-115743656D01*
X108231344Y-115867712D01*
X108380666Y-115959814D01*
X108547203Y-116014999D01*
X108649991Y-116025500D01*
X109250008Y-116025499D01*
X109250016Y-116025498D01*
X109250019Y-116025498D01*
X109306302Y-116019748D01*
X109352797Y-116014999D01*
X109519334Y-115959814D01*
X109668656Y-115867712D01*
X109792712Y-115743656D01*
X109884814Y-115594334D01*
X109939999Y-115427797D01*
X109950500Y-115325009D01*
X109950499Y-114274992D01*
X109940611Y-114178199D01*
X109939999Y-114172203D01*
X109939998Y-114172200D01*
X109933691Y-114153168D01*
X109884814Y-114005666D01*
X109792712Y-113856344D01*
X109780482Y-113844114D01*
X109746997Y-113782791D01*
X109751981Y-113713099D01*
X109780479Y-113668755D01*
X109980520Y-113468716D01*
X109980521Y-113468713D01*
X110787820Y-112661414D01*
X110849142Y-112627930D01*
X110918834Y-112632914D01*
X110974767Y-112674786D01*
X110999184Y-112740250D01*
X110999500Y-112749096D01*
X110999500Y-116713330D01*
X110999499Y-116713348D01*
X110999499Y-116879054D01*
X110999498Y-116879054D01*
X111040424Y-117031789D01*
X111040425Y-117031790D01*
X111061455Y-117068214D01*
X111061456Y-117068216D01*
X111119475Y-117168709D01*
X111119481Y-117168717D01*
X111738349Y-117787585D01*
X111738355Y-117787590D01*
X114715139Y-120764374D01*
X114715149Y-120764385D01*
X114719479Y-120768715D01*
X114719480Y-120768716D01*
X114831284Y-120880520D01*
X114882845Y-120910288D01*
X114918095Y-120930639D01*
X114918097Y-120930641D01*
X114956151Y-120952611D01*
X114968215Y-120959577D01*
X115120943Y-121000501D01*
X115120946Y-121000501D01*
X115286653Y-121000501D01*
X115286669Y-121000500D01*
X117520943Y-121000500D01*
X119720234Y-121000500D01*
X119787273Y-121020185D01*
X119789125Y-121021398D01*
X119920814Y-121109390D01*
X119920827Y-121109397D01*
X120066498Y-121169735D01*
X120066503Y-121169737D01*
X120221153Y-121200499D01*
X120221156Y-121200500D01*
X120221158Y-121200500D01*
X120378844Y-121200500D01*
X120378845Y-121200499D01*
X120533497Y-121169737D01*
X120679179Y-121109394D01*
X120810289Y-121021789D01*
X120921789Y-120910289D01*
X121009394Y-120779179D01*
X121069737Y-120633497D01*
X121100500Y-120478842D01*
X121100500Y-120321158D01*
X121100500Y-120321155D01*
X121100499Y-120321153D01*
X121080595Y-120221089D01*
X121069737Y-120166503D01*
X121060101Y-120143239D01*
X121009397Y-120020827D01*
X121009390Y-120020814D01*
X120921789Y-119889711D01*
X120921786Y-119889707D01*
X120810292Y-119778213D01*
X120810288Y-119778210D01*
X120679185Y-119690609D01*
X120679172Y-119690602D01*
X120533501Y-119630264D01*
X120533489Y-119630261D01*
X120378845Y-119599500D01*
X120378842Y-119599500D01*
X120221158Y-119599500D01*
X120221155Y-119599500D01*
X120066510Y-119630261D01*
X120066498Y-119630264D01*
X119920827Y-119690602D01*
X119920814Y-119690609D01*
X119789125Y-119778602D01*
X119722447Y-119799480D01*
X119720234Y-119799500D01*
X115500097Y-119799500D01*
X115433058Y-119779815D01*
X115412416Y-119763181D01*
X112587590Y-116938355D01*
X112587588Y-116938352D01*
X112236819Y-116587583D01*
X112203334Y-116526260D01*
X112200500Y-116499902D01*
X112200500Y-115119165D01*
X112220185Y-115052126D01*
X112272989Y-115006371D01*
X112342147Y-114996427D01*
X112405703Y-115025452D01*
X112443477Y-115084230D01*
X112444262Y-115087027D01*
X112448831Y-115104076D01*
X112451602Y-115114418D01*
X112451605Y-115114428D01*
X112551953Y-115356690D01*
X112551958Y-115356700D01*
X112683075Y-115583803D01*
X112842718Y-115791851D01*
X112842726Y-115791860D01*
X113028140Y-115977274D01*
X113028148Y-115977281D01*
X113028149Y-115977282D01*
X113076554Y-116014424D01*
X113236196Y-116136924D01*
X113463299Y-116268041D01*
X113463309Y-116268046D01*
X113705571Y-116368394D01*
X113705581Y-116368398D01*
X113958884Y-116436270D01*
X114218880Y-116470500D01*
X114218887Y-116470500D01*
X114481113Y-116470500D01*
X114481120Y-116470500D01*
X114741116Y-116436270D01*
X114994419Y-116368398D01*
X115236697Y-116268043D01*
X115463803Y-116136924D01*
X115671851Y-115977282D01*
X115671855Y-115977277D01*
X115671860Y-115977274D01*
X115857274Y-115791860D01*
X115857277Y-115791855D01*
X115857282Y-115791851D01*
X116016924Y-115583803D01*
X116148043Y-115356697D01*
X116248398Y-115114419D01*
X116316270Y-114861116D01*
X116350500Y-114601120D01*
X116350500Y-114338880D01*
X116316270Y-114078884D01*
X116248398Y-113825581D01*
X116148045Y-113583309D01*
X116147766Y-113582742D01*
X116147733Y-113582554D01*
X116146490Y-113579553D01*
X116147161Y-113579274D01*
X116135766Y-113513911D01*
X116162883Y-113449518D01*
X116220509Y-113410008D01*
X116290347Y-113407925D01*
X116320623Y-113420302D01*
X127839178Y-120020821D01*
X132688802Y-122799819D01*
X132730253Y-122838516D01*
X132778210Y-122910288D01*
X132778213Y-122910292D01*
X132889707Y-123021786D01*
X132889711Y-123021789D01*
X133020814Y-123109390D01*
X133020827Y-123109397D01*
X133137812Y-123157853D01*
X133166503Y-123169737D01*
X133321153Y-123200499D01*
X133321156Y-123200500D01*
X133321158Y-123200500D01*
X133478844Y-123200500D01*
X133478845Y-123200499D01*
X133633497Y-123169737D01*
X133779179Y-123109394D01*
X133910289Y-123021789D01*
X134021789Y-122910289D01*
X134109394Y-122779179D01*
X134169737Y-122633497D01*
X134200500Y-122478842D01*
X134200500Y-122321158D01*
X134200500Y-122321155D01*
X134200499Y-122321153D01*
X134169738Y-122166510D01*
X134169737Y-122166503D01*
X134169735Y-122166498D01*
X134109397Y-122020827D01*
X134109390Y-122020814D01*
X134021789Y-121889711D01*
X134021786Y-121889707D01*
X133910292Y-121778213D01*
X133910288Y-121778210D01*
X133779185Y-121690609D01*
X133779172Y-121690602D01*
X133633501Y-121630264D01*
X133633489Y-121630261D01*
X133478845Y-121599500D01*
X133478842Y-121599500D01*
X133444982Y-121599500D01*
X133383331Y-121583088D01*
X133111912Y-121427556D01*
X116013401Y-111629532D01*
X116012303Y-111628388D01*
X116010772Y-111627982D01*
X115988205Y-111603278D01*
X115965022Y-111579122D01*
X115964716Y-111577566D01*
X115963648Y-111576396D01*
X115958019Y-111543410D01*
X115951577Y-111510558D01*
X115952161Y-111509084D01*
X115951895Y-111507522D01*
X115964992Y-111476728D01*
X115977334Y-111445610D01*
X115978822Y-111444216D01*
X115979243Y-111443227D01*
X115983777Y-111439576D01*
X116005301Y-111419423D01*
X116011701Y-111415068D01*
X116043758Y-111398679D01*
X116068106Y-111376692D01*
X116075139Y-111371908D01*
X116075469Y-111371801D01*
X116076564Y-111370953D01*
X116096844Y-111357565D01*
X116122618Y-111328497D01*
X116132281Y-111318746D01*
X118625429Y-109067601D01*
X118654595Y-109047980D01*
X120571571Y-108122099D01*
X120640498Y-108110668D01*
X120704665Y-108138317D01*
X120743697Y-108196268D01*
X120749500Y-108233758D01*
X120749500Y-108333918D01*
X120749500Y-108333920D01*
X120749499Y-108333920D01*
X120778340Y-108478907D01*
X120778343Y-108478917D01*
X120834912Y-108615488D01*
X120834919Y-108615501D01*
X120917048Y-108738415D01*
X120917051Y-108738419D01*
X121021580Y-108842948D01*
X121021584Y-108842951D01*
X121144498Y-108925080D01*
X121144511Y-108925087D01*
X121272763Y-108978210D01*
X121281087Y-108981658D01*
X121281091Y-108981658D01*
X121281092Y-108981659D01*
X121426079Y-109010500D01*
X121426082Y-109010500D01*
X121573920Y-109010500D01*
X121671462Y-108991096D01*
X121718913Y-108981658D01*
X121855495Y-108925084D01*
X121978416Y-108842951D01*
X122082951Y-108738416D01*
X122165084Y-108615495D01*
X122165838Y-108613676D01*
X122221656Y-108478917D01*
X122221658Y-108478913D01*
X122231096Y-108431462D01*
X122250500Y-108333920D01*
X122250500Y-108186079D01*
X122232347Y-108094823D01*
X122238574Y-108025232D01*
X122266281Y-107982952D01*
X122958506Y-107290728D01*
X122958511Y-107290724D01*
X122968714Y-107280520D01*
X122968716Y-107280520D01*
X123080520Y-107168716D01*
X123134916Y-107074499D01*
X123159577Y-107031785D01*
X123200501Y-106879057D01*
X123200501Y-106720943D01*
X123200501Y-106713348D01*
X123200500Y-106713330D01*
X123200500Y-105489767D01*
X123220185Y-105422728D01*
X123221398Y-105420876D01*
X123265080Y-105355501D01*
X123265080Y-105355500D01*
X123265084Y-105355495D01*
X123321658Y-105218913D01*
X123343181Y-105110713D01*
X123350500Y-105073920D01*
X123350500Y-104926079D01*
X123321659Y-104781092D01*
X123321658Y-104781091D01*
X123321658Y-104781087D01*
X123305655Y-104742452D01*
X123265087Y-104644511D01*
X123265080Y-104644498D01*
X123182951Y-104521584D01*
X123182948Y-104521580D01*
X123078419Y-104417051D01*
X123078415Y-104417048D01*
X122955501Y-104334919D01*
X122955488Y-104334912D01*
X122818917Y-104278343D01*
X122818907Y-104278340D01*
X122673920Y-104249500D01*
X122673918Y-104249500D01*
X122616953Y-104249500D01*
X122549914Y-104229815D01*
X122504159Y-104177011D01*
X122494215Y-104107853D01*
X122496669Y-104095373D01*
X122569709Y-103803760D01*
X122595980Y-103698869D01*
X122631362Y-103638623D01*
X122642763Y-103629130D01*
X123607949Y-102918949D01*
X123625224Y-102908301D01*
X128960261Y-100195571D01*
X129028940Y-100182733D01*
X129040655Y-100184487D01*
X129121155Y-100200500D01*
X129121158Y-100200500D01*
X129278844Y-100200500D01*
X129278845Y-100200499D01*
X129433497Y-100169737D01*
X129579179Y-100109394D01*
X129710289Y-100021789D01*
X129821789Y-99910289D01*
X129909394Y-99779179D01*
X129969737Y-99633497D01*
X130000500Y-99478842D01*
X130000500Y-99321158D01*
X130000500Y-99321155D01*
X130000499Y-99321153D01*
X129992528Y-99281082D01*
X129969737Y-99166503D01*
X129960622Y-99144498D01*
X129909397Y-99020827D01*
X129909390Y-99020814D01*
X129821789Y-98889711D01*
X129821786Y-98889707D01*
X129710292Y-98778213D01*
X129710288Y-98778210D01*
X129579185Y-98690609D01*
X129579172Y-98690602D01*
X129433501Y-98630264D01*
X129433489Y-98630261D01*
X129278845Y-98599500D01*
X129278842Y-98599500D01*
X129121158Y-98599500D01*
X129121155Y-98599500D01*
X128966510Y-98630261D01*
X128966498Y-98630264D01*
X128820827Y-98690602D01*
X128820814Y-98690609D01*
X128689714Y-98778208D01*
X128675011Y-98792911D01*
X128613687Y-98826394D01*
X128593524Y-98829072D01*
X127188094Y-98899345D01*
X127181902Y-98899500D01*
X123589767Y-98899500D01*
X123522728Y-98879815D01*
X123520876Y-98878602D01*
X123455501Y-98834919D01*
X123455488Y-98834912D01*
X123318917Y-98778343D01*
X123318907Y-98778340D01*
X123173920Y-98749500D01*
X123173918Y-98749500D01*
X123026082Y-98749500D01*
X123026080Y-98749500D01*
X122881092Y-98778340D01*
X122881082Y-98778343D01*
X122744511Y-98834912D01*
X122744498Y-98834919D01*
X122621584Y-98917048D01*
X122621580Y-98917051D01*
X122517051Y-99021580D01*
X122517048Y-99021584D01*
X122434919Y-99144498D01*
X122434912Y-99144511D01*
X122378343Y-99281082D01*
X122378340Y-99281092D01*
X122349500Y-99426079D01*
X122349500Y-99426082D01*
X122349500Y-99573918D01*
X122349500Y-99573920D01*
X122349499Y-99573920D01*
X122378340Y-99718907D01*
X122378343Y-99718917D01*
X122434912Y-99855488D01*
X122434919Y-99855501D01*
X122517048Y-99978415D01*
X122517051Y-99978419D01*
X122621580Y-100082948D01*
X122621584Y-100082951D01*
X122744498Y-100165080D01*
X122744511Y-100165087D01*
X122881082Y-100221656D01*
X122881087Y-100221658D01*
X122881091Y-100221658D01*
X122881092Y-100221659D01*
X123026079Y-100250500D01*
X123026082Y-100250500D01*
X123173920Y-100250500D01*
X123271462Y-100231096D01*
X123318913Y-100221658D01*
X123444262Y-100169737D01*
X123455488Y-100165087D01*
X123455488Y-100165086D01*
X123455495Y-100165084D01*
X123520876Y-100121398D01*
X123587553Y-100100520D01*
X123589767Y-100100500D01*
X125980015Y-100100500D01*
X126047054Y-100120185D01*
X126092809Y-100172989D01*
X126102753Y-100242147D01*
X126073728Y-100305703D01*
X126036218Y-100335031D01*
X125868162Y-100420484D01*
X123059444Y-101848645D01*
X123059443Y-101848645D01*
X123054028Y-101851398D01*
X123007789Y-101869469D01*
X122983853Y-101887079D01*
X122974772Y-101891697D01*
X122974772Y-101891698D01*
X122957355Y-101900555D01*
X122924946Y-101929686D01*
X122915543Y-101937341D01*
X121748513Y-102796040D01*
X121743790Y-102799514D01*
X121700301Y-102825583D01*
X121680363Y-102846183D01*
X121671984Y-102852349D01*
X121671985Y-102852349D01*
X121657274Y-102863173D01*
X121629265Y-102898190D01*
X121621541Y-102906964D01*
X121590343Y-102939203D01*
X121590339Y-102939208D01*
X121581468Y-102955168D01*
X121581469Y-102955169D01*
X121576414Y-102964266D01*
X121558510Y-102986652D01*
X121538168Y-103033090D01*
X121535322Y-103038212D01*
X121535320Y-103038213D01*
X121513539Y-103077410D01*
X121513537Y-103077415D01*
X121509100Y-103095129D01*
X121502401Y-103114743D01*
X121495070Y-103131480D01*
X121488320Y-103175825D01*
X121486016Y-103187291D01*
X120599873Y-106725200D01*
X120564490Y-106785448D01*
X120533519Y-106806730D01*
X119167216Y-107466641D01*
X119098288Y-107478073D01*
X119034121Y-107450424D01*
X118995089Y-107392473D01*
X118993584Y-107322620D01*
X119007850Y-107289720D01*
X119584016Y-106358992D01*
X119602918Y-106337528D01*
X119625474Y-106292021D01*
X119652196Y-106248856D01*
X119657435Y-106231457D01*
X119665068Y-106212143D01*
X119666396Y-106209465D01*
X119673139Y-106195861D01*
X119682786Y-106147872D01*
X119683147Y-106146074D01*
X119697789Y-106097458D01*
X119698667Y-106068881D01*
X119704303Y-106040848D01*
X119701085Y-105990172D01*
X119702645Y-105939417D01*
X119696095Y-105911582D01*
X119302230Y-99708210D01*
X119302237Y-99692399D01*
X119462163Y-97213546D01*
X119486123Y-97147916D01*
X119498218Y-97133859D01*
X119521789Y-97110289D01*
X119609394Y-96979179D01*
X119669737Y-96833497D01*
X119700500Y-96678842D01*
X119700500Y-96521158D01*
X119700500Y-96521155D01*
X119700499Y-96521153D01*
X119693733Y-96487139D01*
X119669737Y-96366503D01*
X119669735Y-96366498D01*
X119609397Y-96220827D01*
X119609390Y-96220814D01*
X119521789Y-96089711D01*
X119521786Y-96089707D01*
X119410292Y-95978213D01*
X119410288Y-95978210D01*
X119279185Y-95890609D01*
X119279172Y-95890602D01*
X119133501Y-95830264D01*
X119133492Y-95830261D01*
X119078166Y-95819256D01*
X119068018Y-95813947D01*
X119056614Y-95812893D01*
X119037616Y-95798044D01*
X119016256Y-95786870D01*
X119009172Y-95775811D01*
X119001565Y-95769865D01*
X118993610Y-95751516D01*
X118985300Y-95738542D01*
X118982435Y-95730345D01*
X118969737Y-95666503D01*
X118909394Y-95520821D01*
X118882143Y-95480038D01*
X119636684Y-95480038D01*
X119636684Y-95637731D01*
X119667445Y-95792374D01*
X119667448Y-95792386D01*
X119727786Y-95938057D01*
X119727793Y-95938070D01*
X119815394Y-96069173D01*
X119815397Y-96069177D01*
X119926891Y-96180671D01*
X119926895Y-96180674D01*
X120057998Y-96268275D01*
X120058011Y-96268282D01*
X120181616Y-96319480D01*
X120203687Y-96328622D01*
X120358337Y-96359384D01*
X120358340Y-96359385D01*
X120358342Y-96359385D01*
X120458788Y-96359385D01*
X120525827Y-96379070D01*
X120546468Y-96395703D01*
X121431284Y-97280520D01*
X121431286Y-97280521D01*
X121431290Y-97280524D01*
X121568209Y-97359573D01*
X121568216Y-97359577D01*
X121720943Y-97400501D01*
X121720945Y-97400501D01*
X121886654Y-97400501D01*
X121886670Y-97400500D01*
X138775065Y-97400500D01*
X138842104Y-97420185D01*
X138845292Y-97422303D01*
X145406773Y-101931182D01*
X147245410Y-103194646D01*
X147262284Y-103211520D01*
X147310345Y-103239268D01*
X147356066Y-103270686D01*
X147367806Y-103274842D01*
X147388421Y-103284345D01*
X147399213Y-103290576D01*
X147399215Y-103290576D01*
X147399216Y-103290577D01*
X147452814Y-103304938D01*
X147505115Y-103323455D01*
X147528898Y-103325325D01*
X147551943Y-103331500D01*
X147602560Y-103331500D01*
X147612282Y-103331882D01*
X147662737Y-103335850D01*
X147662742Y-103335850D01*
X147662742Y-103335849D01*
X147662743Y-103335850D01*
X147674998Y-103333577D01*
X147697603Y-103331500D01*
X165783710Y-103331500D01*
X165850749Y-103351185D01*
X165896504Y-103403989D01*
X165906448Y-103473147D01*
X165894195Y-103511795D01*
X165848444Y-103601585D01*
X165782753Y-103803760D01*
X165749500Y-104013713D01*
X165749500Y-104226286D01*
X165780508Y-104422067D01*
X165782754Y-104436243D01*
X165813303Y-104530264D01*
X165848444Y-104638414D01*
X165944951Y-104827820D01*
X166069890Y-104999785D01*
X166069894Y-104999790D01*
X166220213Y-105150109D01*
X166392182Y-105275050D01*
X166400946Y-105279516D01*
X166451742Y-105327491D01*
X166468536Y-105395312D01*
X166445998Y-105461447D01*
X166400946Y-105500484D01*
X166392182Y-105504949D01*
X166220213Y-105629890D01*
X166069890Y-105780213D01*
X165944951Y-105952179D01*
X165848444Y-106141585D01*
X165782753Y-106343760D01*
X165759637Y-106489711D01*
X165749500Y-106553713D01*
X165749500Y-106766287D01*
X165750047Y-106769738D01*
X165781526Y-106968495D01*
X165782754Y-106976243D01*
X165845291Y-107168712D01*
X165848444Y-107178414D01*
X165944951Y-107367820D01*
X166069890Y-107539786D01*
X166220213Y-107690109D01*
X166392182Y-107815050D01*
X166400946Y-107819516D01*
X166451742Y-107867491D01*
X166468536Y-107935312D01*
X166445998Y-108001447D01*
X166400946Y-108040484D01*
X166392182Y-108044949D01*
X166220213Y-108169890D01*
X166069890Y-108320213D01*
X165944951Y-108492179D01*
X165848444Y-108681585D01*
X165782753Y-108883760D01*
X165749500Y-109093713D01*
X165749500Y-109306286D01*
X165780624Y-109502798D01*
X165782754Y-109516243D01*
X165835587Y-109678846D01*
X165848444Y-109718414D01*
X165944951Y-109907820D01*
X166069890Y-110079786D01*
X166220213Y-110230109D01*
X166329346Y-110309397D01*
X166392184Y-110355051D01*
X166454457Y-110386781D01*
X166459580Y-110389391D01*
X166510376Y-110437366D01*
X166527171Y-110505187D01*
X166504634Y-110571322D01*
X166490966Y-110587557D01*
X153415344Y-123663181D01*
X153354021Y-123696666D01*
X153327663Y-123699500D01*
X152182791Y-123699500D01*
X152115752Y-123679815D01*
X152069997Y-123627011D01*
X152066609Y-123618833D01*
X152043797Y-123557671D01*
X152043793Y-123557664D01*
X151957547Y-123442455D01*
X151957544Y-123442452D01*
X151842335Y-123356206D01*
X151842328Y-123356202D01*
X151707482Y-123305908D01*
X151707483Y-123305908D01*
X151647883Y-123299501D01*
X151647881Y-123299500D01*
X151647873Y-123299500D01*
X151647865Y-123299500D01*
X151049096Y-123299500D01*
X150982057Y-123279815D01*
X150936302Y-123227011D01*
X150926358Y-123157853D01*
X150955383Y-123094297D01*
X150961415Y-123087819D01*
X157609266Y-116439968D01*
X164473851Y-109575384D01*
X164480049Y-109571607D01*
X164529663Y-109519572D01*
X164580520Y-109468716D01*
X164584150Y-109462428D01*
X164589160Y-109457174D01*
X164623625Y-109394054D01*
X164659577Y-109331784D01*
X164661455Y-109324772D01*
X164664936Y-109318399D01*
X164681887Y-109248521D01*
X164700501Y-109179057D01*
X164700501Y-109171794D01*
X164702212Y-109164741D01*
X164700501Y-109092879D01*
X164700501Y-109020942D01*
X164700500Y-109020941D01*
X164699440Y-109012885D01*
X164700233Y-109012780D01*
X164698268Y-108999105D01*
X164697771Y-108978211D01*
X164614061Y-105462468D01*
X164632144Y-105394983D01*
X164634901Y-105390664D01*
X164709394Y-105279179D01*
X164769737Y-105133497D01*
X164800500Y-104978842D01*
X164800500Y-104821158D01*
X164800500Y-104821155D01*
X164800499Y-104821153D01*
X164784845Y-104742455D01*
X164769737Y-104666503D01*
X164758102Y-104638414D01*
X164709397Y-104520827D01*
X164709390Y-104520814D01*
X164621789Y-104389711D01*
X164621786Y-104389707D01*
X164510292Y-104278213D01*
X164510288Y-104278210D01*
X164379185Y-104190609D01*
X164379172Y-104190602D01*
X164233501Y-104130264D01*
X164233491Y-104130261D01*
X164095554Y-104102822D01*
X164095546Y-104102821D01*
X164079676Y-104099665D01*
X164079057Y-104099500D01*
X163920943Y-104099500D01*
X163920323Y-104099665D01*
X163904467Y-104102819D01*
X163904462Y-104102819D01*
X163766506Y-104130261D01*
X163766500Y-104130263D01*
X163620827Y-104190602D01*
X163620814Y-104190609D01*
X163489711Y-104278210D01*
X163489707Y-104278213D01*
X163378213Y-104389707D01*
X163378210Y-104389711D01*
X163290609Y-104520814D01*
X163290602Y-104520827D01*
X163230264Y-104666498D01*
X163230261Y-104666510D01*
X163199500Y-104821153D01*
X163199500Y-104978846D01*
X163230261Y-105133489D01*
X163230264Y-105133501D01*
X163290602Y-105279172D01*
X163290609Y-105279185D01*
X163378210Y-105410288D01*
X163382076Y-105414999D01*
X163380861Y-105415995D01*
X163410672Y-105470589D01*
X163413471Y-105493995D01*
X163427780Y-106094977D01*
X163409697Y-106162466D01*
X163357997Y-106209465D01*
X163289094Y-106221052D01*
X163279624Y-106219546D01*
X163178846Y-106199500D01*
X163178842Y-106199500D01*
X163021158Y-106199500D01*
X163021155Y-106199500D01*
X162866510Y-106230261D01*
X162866498Y-106230264D01*
X162720827Y-106290602D01*
X162720814Y-106290609D01*
X162589711Y-106378210D01*
X162589707Y-106378213D01*
X162478213Y-106489707D01*
X162478210Y-106489711D01*
X162390609Y-106620814D01*
X162390602Y-106620827D01*
X162330264Y-106766498D01*
X162330261Y-106766510D01*
X162299500Y-106921153D01*
X162299500Y-107078846D01*
X162330261Y-107233489D01*
X162330264Y-107233501D01*
X162390602Y-107379172D01*
X162390609Y-107379185D01*
X162478602Y-107510874D01*
X162499480Y-107577551D01*
X162499500Y-107579765D01*
X162499500Y-108299903D01*
X162479815Y-108366942D01*
X162463181Y-108387584D01*
X157131284Y-113719481D01*
X148191286Y-122659478D01*
X148079481Y-122771282D01*
X148079479Y-122771284D01*
X148061873Y-122801779D01*
X148054432Y-122814669D01*
X148000423Y-122908215D01*
X147959499Y-123060943D01*
X147959499Y-123060945D01*
X147959499Y-123229046D01*
X147959500Y-123229059D01*
X147959500Y-123312666D01*
X147939815Y-123379705D01*
X147887011Y-123425460D01*
X147817853Y-123435404D01*
X147766616Y-123415773D01*
X147763685Y-123413815D01*
X147763671Y-123413807D01*
X147581693Y-123338430D01*
X147581681Y-123338427D01*
X147388495Y-123300000D01*
X147191504Y-123300000D01*
X146998318Y-123338427D01*
X146998310Y-123338429D01*
X146816325Y-123413809D01*
X146816318Y-123413813D01*
X146780979Y-123437426D01*
X146780978Y-123437426D01*
X147318553Y-123975000D01*
X147247213Y-123975000D01*
X147164555Y-123997149D01*
X147090446Y-124039936D01*
X147029936Y-124100446D01*
X146987149Y-124174555D01*
X146965000Y-124257213D01*
X146965000Y-124342787D01*
X146987149Y-124425445D01*
X147029936Y-124499554D01*
X147090446Y-124560064D01*
X147164555Y-124602851D01*
X147247213Y-124625000D01*
X147318552Y-124625000D01*
X146780979Y-125162572D01*
X146816328Y-125186192D01*
X146998306Y-125261569D01*
X146998318Y-125261572D01*
X147191504Y-125299999D01*
X147191508Y-125300000D01*
X147388492Y-125300000D01*
X147388495Y-125299999D01*
X147581681Y-125261572D01*
X147581693Y-125261569D01*
X147763673Y-125186191D01*
X147763676Y-125186189D01*
X147855657Y-125124729D01*
X147922334Y-125103850D01*
X147989715Y-125122334D01*
X147993440Y-125124728D01*
X148086079Y-125186628D01*
X148086092Y-125186635D01*
X148268160Y-125262049D01*
X148268165Y-125262051D01*
X148268169Y-125262051D01*
X148268170Y-125262052D01*
X148461456Y-125300500D01*
X148461459Y-125300500D01*
X148658543Y-125300500D01*
X148788582Y-125274632D01*
X148851835Y-125262051D01*
X149033914Y-125186632D01*
X149126109Y-125125029D01*
X149192786Y-125104151D01*
X149260166Y-125122635D01*
X149263891Y-125125029D01*
X149320078Y-125162572D01*
X149356086Y-125186632D01*
X149356088Y-125186633D01*
X149356092Y-125186635D01*
X149538160Y-125262049D01*
X149538165Y-125262051D01*
X149538169Y-125262051D01*
X149538170Y-125262052D01*
X149731456Y-125300500D01*
X149731459Y-125300500D01*
X149928543Y-125300500D01*
X150058582Y-125274632D01*
X150121835Y-125262051D01*
X150224126Y-125219680D01*
X150293590Y-125212212D01*
X150345887Y-125234976D01*
X150357668Y-125243795D01*
X150357671Y-125243797D01*
X150492517Y-125294091D01*
X150492516Y-125294091D01*
X150499444Y-125294835D01*
X150552127Y-125300500D01*
X151647872Y-125300499D01*
X151707483Y-125294091D01*
X151842331Y-125243796D01*
X151957546Y-125157546D01*
X152043796Y-125042331D01*
X152049886Y-125026002D01*
X152066609Y-124981167D01*
X152108480Y-124925233D01*
X152173944Y-124900816D01*
X152182791Y-124900500D01*
X153541091Y-124900500D01*
X153541107Y-124900501D01*
X153548703Y-124900501D01*
X153706814Y-124900501D01*
X153706817Y-124900501D01*
X153859545Y-124859577D01*
X153928333Y-124819862D01*
X153996476Y-124780520D01*
X154108280Y-124668716D01*
X154108280Y-124668714D01*
X154118484Y-124658511D01*
X154118488Y-124658506D01*
X160242955Y-118534038D01*
X183599500Y-118534038D01*
X183599500Y-118785961D01*
X183638910Y-119034785D01*
X183716760Y-119274383D01*
X183776054Y-119390752D01*
X183820448Y-119477881D01*
X183831132Y-119498848D01*
X183979201Y-119702649D01*
X183979205Y-119702654D01*
X184157345Y-119880794D01*
X184157350Y-119880798D01*
X184335117Y-120009952D01*
X184361155Y-120028870D01*
X184454870Y-120076620D01*
X184585616Y-120143239D01*
X184585618Y-120143239D01*
X184585621Y-120143241D01*
X184825215Y-120221090D01*
X185074038Y-120260500D01*
X185074039Y-120260500D01*
X185325961Y-120260500D01*
X185325962Y-120260500D01*
X185574785Y-120221090D01*
X185814379Y-120143241D01*
X186038845Y-120028870D01*
X186242656Y-119880793D01*
X186420793Y-119702656D01*
X186568870Y-119498845D01*
X186683241Y-119274379D01*
X186761090Y-119034785D01*
X186800500Y-118785962D01*
X186800500Y-118534038D01*
X186761090Y-118285215D01*
X186683241Y-118045621D01*
X186683239Y-118045618D01*
X186683239Y-118045616D01*
X186607623Y-117897213D01*
X186568870Y-117821155D01*
X186503623Y-117731350D01*
X186420798Y-117617350D01*
X186420794Y-117617345D01*
X186242654Y-117439205D01*
X186242649Y-117439201D01*
X186038848Y-117291132D01*
X186038847Y-117291131D01*
X186038845Y-117291130D01*
X185949499Y-117245606D01*
X185814383Y-117176760D01*
X185574785Y-117098910D01*
X185325962Y-117059500D01*
X185074038Y-117059500D01*
X185019008Y-117068216D01*
X184825214Y-117098910D01*
X184585616Y-117176760D01*
X184361151Y-117291132D01*
X184157350Y-117439201D01*
X184157345Y-117439205D01*
X183979205Y-117617345D01*
X183979201Y-117617350D01*
X183831132Y-117821151D01*
X183716760Y-118045616D01*
X183638910Y-118285214D01*
X183599500Y-118534038D01*
X160242955Y-118534038D01*
X161829345Y-116947648D01*
X169649500Y-116947648D01*
X169649500Y-117152352D01*
X169652091Y-117168709D01*
X169681522Y-117354534D01*
X169744781Y-117549223D01*
X169784729Y-117627624D01*
X169837585Y-117731359D01*
X169837715Y-117731613D01*
X169958028Y-117897213D01*
X170102786Y-118041971D01*
X170198981Y-118111859D01*
X170268390Y-118162287D01*
X170352647Y-118205218D01*
X170450776Y-118255218D01*
X170450778Y-118255218D01*
X170450781Y-118255220D01*
X170543093Y-118285214D01*
X170645465Y-118318477D01*
X170746557Y-118334488D01*
X170847648Y-118350500D01*
X170847649Y-118350500D01*
X171052351Y-118350500D01*
X171052352Y-118350500D01*
X171254534Y-118318477D01*
X171449219Y-118255220D01*
X171631610Y-118162287D01*
X171724590Y-118094732D01*
X171797213Y-118041971D01*
X171797215Y-118041968D01*
X171797219Y-118041966D01*
X171941966Y-117897219D01*
X171941968Y-117897215D01*
X171941971Y-117897213D01*
X172062286Y-117731611D01*
X172062415Y-117731359D01*
X172089795Y-117677621D01*
X172137769Y-117626826D01*
X172205589Y-117610030D01*
X172271725Y-117632567D01*
X172310765Y-117677621D01*
X172338141Y-117731350D01*
X172338147Y-117731359D01*
X172370523Y-117775921D01*
X172370524Y-117775922D01*
X173050000Y-117096446D01*
X173050000Y-117102661D01*
X173077259Y-117204394D01*
X173129920Y-117295606D01*
X173204394Y-117370080D01*
X173295606Y-117422741D01*
X173397339Y-117450000D01*
X173403553Y-117450000D01*
X172724076Y-118129474D01*
X172768650Y-118161859D01*
X172950968Y-118254755D01*
X173145582Y-118317990D01*
X173347683Y-118350000D01*
X173552317Y-118350000D01*
X173754417Y-118317990D01*
X173949031Y-118254755D01*
X174131349Y-118161859D01*
X174175921Y-118129474D01*
X174175922Y-118129474D01*
X174166344Y-118119896D01*
X173496447Y-117450000D01*
X173502661Y-117450000D01*
X173604394Y-117422741D01*
X173695606Y-117370080D01*
X173770080Y-117295606D01*
X173822741Y-117204394D01*
X173850000Y-117102661D01*
X173850000Y-117096448D01*
X174529474Y-117775922D01*
X174529474Y-117775921D01*
X174561859Y-117731349D01*
X174654755Y-117549031D01*
X174717990Y-117354417D01*
X174750000Y-117152317D01*
X174750000Y-116947683D01*
X174744382Y-116912215D01*
X174744382Y-116912214D01*
X174742080Y-116897682D01*
X175650000Y-116897682D01*
X175650000Y-117102317D01*
X175682009Y-117304417D01*
X175745244Y-117499031D01*
X175838141Y-117681350D01*
X175838147Y-117681359D01*
X175870523Y-117725921D01*
X175870524Y-117725922D01*
X176550000Y-117046446D01*
X176550000Y-117052661D01*
X176577259Y-117154394D01*
X176629920Y-117245606D01*
X176704394Y-117320080D01*
X176795606Y-117372741D01*
X176897339Y-117400000D01*
X176903553Y-117400000D01*
X176224076Y-118079474D01*
X176268650Y-118111859D01*
X176450968Y-118204755D01*
X176645582Y-118267990D01*
X176847683Y-118300000D01*
X177052317Y-118300000D01*
X177254417Y-118267990D01*
X177449031Y-118204755D01*
X177631349Y-118111859D01*
X177675921Y-118079474D01*
X176996447Y-117400000D01*
X177002661Y-117400000D01*
X177104394Y-117372741D01*
X177195606Y-117320080D01*
X177270080Y-117245606D01*
X177322741Y-117154394D01*
X177350000Y-117052661D01*
X177350000Y-117046448D01*
X178029474Y-117725922D01*
X178029474Y-117725921D01*
X178061859Y-117681349D01*
X178089233Y-117627624D01*
X178137207Y-117576827D01*
X178205028Y-117560031D01*
X178271163Y-117582567D01*
X178310203Y-117627621D01*
X178337713Y-117681611D01*
X178458028Y-117847213D01*
X178602786Y-117991971D01*
X178723226Y-118079474D01*
X178768390Y-118112287D01*
X178884607Y-118171503D01*
X178950776Y-118205218D01*
X178950778Y-118205218D01*
X178950781Y-118205220D01*
X179055137Y-118239127D01*
X179145465Y-118268477D01*
X179246557Y-118284488D01*
X179347648Y-118300500D01*
X179347649Y-118300500D01*
X179552351Y-118300500D01*
X179552352Y-118300500D01*
X179754534Y-118268477D01*
X179949219Y-118205220D01*
X180131610Y-118112287D01*
X180224590Y-118044732D01*
X180297213Y-117991971D01*
X180297215Y-117991968D01*
X180297219Y-117991966D01*
X180441966Y-117847219D01*
X180441968Y-117847215D01*
X180441971Y-117847213D01*
X180525960Y-117731610D01*
X180562287Y-117681610D01*
X180655220Y-117499219D01*
X180718477Y-117304534D01*
X180750500Y-117102352D01*
X180750500Y-116897648D01*
X180735730Y-116804394D01*
X180718477Y-116695465D01*
X180671464Y-116550776D01*
X180655220Y-116500781D01*
X180655218Y-116500778D01*
X180655218Y-116500776D01*
X180612750Y-116417429D01*
X180562287Y-116318390D01*
X180530092Y-116274077D01*
X180441971Y-116152786D01*
X180297213Y-116008028D01*
X180131613Y-115887715D01*
X180131612Y-115887714D01*
X180131610Y-115887713D01*
X180048260Y-115845244D01*
X179949223Y-115794781D01*
X179754534Y-115731522D01*
X179579995Y-115703878D01*
X179552352Y-115699500D01*
X179347648Y-115699500D01*
X179323329Y-115703351D01*
X179145465Y-115731522D01*
X178950776Y-115794781D01*
X178768386Y-115887715D01*
X178602786Y-116008028D01*
X178458028Y-116152786D01*
X178337714Y-116318386D01*
X178310203Y-116372379D01*
X178262227Y-116423174D01*
X178194406Y-116439968D01*
X178128272Y-116417429D01*
X178089234Y-116372376D01*
X178061861Y-116318652D01*
X178029474Y-116274077D01*
X178029474Y-116274076D01*
X177350000Y-116953551D01*
X177350000Y-116947339D01*
X177322741Y-116845606D01*
X177270080Y-116754394D01*
X177195606Y-116679920D01*
X177104394Y-116627259D01*
X177002661Y-116600000D01*
X176996446Y-116600000D01*
X177675922Y-115920524D01*
X177675921Y-115920523D01*
X177631359Y-115888147D01*
X177631350Y-115888141D01*
X177449031Y-115795244D01*
X177254417Y-115732009D01*
X177052317Y-115700000D01*
X176847683Y-115700000D01*
X176645582Y-115732009D01*
X176450968Y-115795244D01*
X176268644Y-115888143D01*
X176224077Y-115920523D01*
X176224077Y-115920524D01*
X176903554Y-116600000D01*
X176897339Y-116600000D01*
X176795606Y-116627259D01*
X176704394Y-116679920D01*
X176629920Y-116754394D01*
X176577259Y-116845606D01*
X176550000Y-116947339D01*
X176550000Y-116953553D01*
X175870524Y-116274077D01*
X175870523Y-116274077D01*
X175838143Y-116318644D01*
X175745244Y-116500968D01*
X175682009Y-116695582D01*
X175650000Y-116897682D01*
X174742080Y-116897682D01*
X174717990Y-116745582D01*
X174654755Y-116550968D01*
X174561859Y-116368650D01*
X174529474Y-116324077D01*
X174529474Y-116324076D01*
X173850000Y-117003551D01*
X173850000Y-116997339D01*
X173822741Y-116895606D01*
X173770080Y-116804394D01*
X173695606Y-116729920D01*
X173604394Y-116677259D01*
X173502661Y-116650000D01*
X173496446Y-116650000D01*
X174175922Y-115970524D01*
X174175921Y-115970523D01*
X174131359Y-115938147D01*
X174131350Y-115938141D01*
X173949031Y-115845244D01*
X173754417Y-115782009D01*
X173552317Y-115750000D01*
X173347683Y-115750000D01*
X173145582Y-115782009D01*
X172950968Y-115845244D01*
X172768644Y-115938143D01*
X172724077Y-115970523D01*
X172724077Y-115970524D01*
X173403554Y-116650000D01*
X173397339Y-116650000D01*
X173295606Y-116677259D01*
X173204394Y-116729920D01*
X173129920Y-116804394D01*
X173077259Y-116895606D01*
X173050000Y-116997339D01*
X173050000Y-117003553D01*
X172370524Y-116324077D01*
X172370523Y-116324077D01*
X172338143Y-116368644D01*
X172310765Y-116422378D01*
X172262790Y-116473174D01*
X172194969Y-116489969D01*
X172128834Y-116467431D01*
X172089795Y-116422378D01*
X172062287Y-116368390D01*
X172062285Y-116368387D01*
X172062284Y-116368385D01*
X171941971Y-116202786D01*
X171797213Y-116058028D01*
X171631613Y-115937715D01*
X171631612Y-115937714D01*
X171631610Y-115937713D01*
X171574653Y-115908691D01*
X171449223Y-115844781D01*
X171254534Y-115781522D01*
X171079995Y-115753878D01*
X171052352Y-115749500D01*
X170847648Y-115749500D01*
X170823329Y-115753351D01*
X170645465Y-115781522D01*
X170450776Y-115844781D01*
X170268386Y-115937715D01*
X170102786Y-116058028D01*
X169958028Y-116202786D01*
X169837715Y-116368386D01*
X169744781Y-116550776D01*
X169681522Y-116745465D01*
X169650972Y-116938352D01*
X169649500Y-116947648D01*
X161829345Y-116947648D01*
X164702662Y-114074331D01*
X164763983Y-114040848D01*
X164833675Y-114045832D01*
X164889608Y-114087704D01*
X164914025Y-114153168D01*
X164913280Y-114178199D01*
X164891763Y-114341639D01*
X164891762Y-114341656D01*
X164891762Y-114598343D01*
X164891763Y-114598359D01*
X164925266Y-114852842D01*
X164925267Y-114852847D01*
X164925268Y-114852853D01*
X164925269Y-114852855D01*
X164987264Y-115084230D01*
X164991706Y-115100806D01*
X164999311Y-115119165D01*
X165089939Y-115337961D01*
X165089944Y-115337972D01*
X165218286Y-115560265D01*
X165218297Y-115560282D01*
X165374557Y-115763925D01*
X165374563Y-115763932D01*
X165556067Y-115945436D01*
X165556074Y-115945442D01*
X165759717Y-116101702D01*
X165759722Y-116101705D01*
X165759727Y-116101709D01*
X165759734Y-116101713D01*
X165982027Y-116230055D01*
X165982032Y-116230057D01*
X165982035Y-116230059D01*
X166219194Y-116328294D01*
X166467147Y-116394732D01*
X166721650Y-116428238D01*
X166721657Y-116428238D01*
X166978343Y-116428238D01*
X166978350Y-116428238D01*
X167232853Y-116394732D01*
X167480806Y-116328294D01*
X167717965Y-116230059D01*
X167940273Y-116101709D01*
X168143927Y-115945441D01*
X168325441Y-115763927D01*
X168481709Y-115560273D01*
X168610059Y-115337965D01*
X168708294Y-115100806D01*
X168774732Y-114852853D01*
X168808238Y-114598350D01*
X168808238Y-114341650D01*
X168774732Y-114087147D01*
X168708294Y-113839194D01*
X168610059Y-113602035D01*
X168610057Y-113602032D01*
X168610055Y-113602027D01*
X168481713Y-113379734D01*
X168481709Y-113379727D01*
X168481705Y-113379722D01*
X168481702Y-113379717D01*
X168325442Y-113176074D01*
X168325436Y-113176067D01*
X168143932Y-112994563D01*
X168143925Y-112994557D01*
X167940282Y-112838297D01*
X167940265Y-112838286D01*
X167717972Y-112709944D01*
X167717961Y-112709939D01*
X167572826Y-112649822D01*
X167480806Y-112611706D01*
X167480804Y-112611705D01*
X167480803Y-112611705D01*
X167407139Y-112591967D01*
X167232853Y-112545268D01*
X167232847Y-112545267D01*
X167232842Y-112545266D01*
X166978359Y-112511763D01*
X166978356Y-112511762D01*
X166978350Y-112511762D01*
X166721650Y-112511762D01*
X166721644Y-112511762D01*
X166721639Y-112511763D01*
X166558199Y-112533280D01*
X166489164Y-112522514D01*
X166436908Y-112476134D01*
X166418023Y-112408865D01*
X166438504Y-112342065D01*
X166454328Y-112322665D01*
X168324859Y-110452135D01*
X171207000Y-110452135D01*
X171207000Y-112547870D01*
X171207001Y-112547876D01*
X171213408Y-112607483D01*
X171263702Y-112742328D01*
X171263706Y-112742335D01*
X171349952Y-112857544D01*
X171349955Y-112857547D01*
X171465164Y-112943793D01*
X171465171Y-112943797D01*
X171600017Y-112994091D01*
X171600016Y-112994091D01*
X171604407Y-112994563D01*
X171659627Y-113000500D01*
X173660372Y-113000499D01*
X173719983Y-112994091D01*
X173854831Y-112943796D01*
X173970046Y-112857546D01*
X174056296Y-112742331D01*
X174066872Y-112713974D01*
X174108740Y-112658041D01*
X174174204Y-112633622D01*
X174242477Y-112648472D01*
X174255940Y-112656988D01*
X174438723Y-112789788D01*
X174642429Y-112893582D01*
X174859871Y-112964234D01*
X174950000Y-112978509D01*
X174950000Y-111990747D01*
X174987708Y-112012518D01*
X175127591Y-112050000D01*
X175272409Y-112050000D01*
X175412292Y-112012518D01*
X175450000Y-111990747D01*
X175450000Y-112978508D01*
X175540128Y-112964234D01*
X175757570Y-112893582D01*
X175961276Y-112789788D01*
X176146242Y-112655402D01*
X176307905Y-112493739D01*
X176369371Y-112409137D01*
X176424701Y-112366470D01*
X176494314Y-112360491D01*
X176556109Y-112393096D01*
X176570007Y-112409134D01*
X176631714Y-112494066D01*
X176793434Y-112655786D01*
X176978462Y-112790217D01*
X177128551Y-112866691D01*
X177182244Y-112894049D01*
X177399751Y-112964721D01*
X177399752Y-112964721D01*
X177399755Y-112964722D01*
X177625646Y-113000500D01*
X177625647Y-113000500D01*
X177854353Y-113000500D01*
X177854354Y-113000500D01*
X178080245Y-112964722D01*
X178080248Y-112964721D01*
X178080249Y-112964721D01*
X178297755Y-112894049D01*
X178297755Y-112894048D01*
X178297758Y-112894048D01*
X178501538Y-112790217D01*
X178686566Y-112655786D01*
X178848286Y-112494066D01*
X178982717Y-112309038D01*
X179086548Y-112105258D01*
X179140208Y-111940110D01*
X179157221Y-111887749D01*
X179157221Y-111887748D01*
X179157222Y-111887745D01*
X179193000Y-111661854D01*
X179193000Y-111338146D01*
X179157222Y-111112255D01*
X179157221Y-111112251D01*
X179157221Y-111112250D01*
X179086549Y-110894744D01*
X179082742Y-110887273D01*
X178982717Y-110690962D01*
X178848286Y-110505934D01*
X178686566Y-110344214D01*
X178501538Y-110209783D01*
X178457091Y-110187136D01*
X178297755Y-110105950D01*
X178080248Y-110035278D01*
X177894812Y-110005908D01*
X177854354Y-109999500D01*
X177625646Y-109999500D01*
X177585188Y-110005908D01*
X177399753Y-110035278D01*
X177399750Y-110035278D01*
X177182244Y-110105950D01*
X176978461Y-110209783D01*
X176873525Y-110286024D01*
X176793434Y-110344214D01*
X176793432Y-110344216D01*
X176793431Y-110344216D01*
X176631716Y-110505931D01*
X176631709Y-110505940D01*
X176570007Y-110590864D01*
X176514677Y-110633530D01*
X176445063Y-110639508D01*
X176383269Y-110606901D01*
X176369372Y-110590863D01*
X176307907Y-110506263D01*
X176307902Y-110506257D01*
X176146242Y-110344597D01*
X175961276Y-110210211D01*
X175757568Y-110106417D01*
X175540124Y-110035765D01*
X175450000Y-110021490D01*
X175450000Y-111009252D01*
X175412292Y-110987482D01*
X175272409Y-110950000D01*
X175127591Y-110950000D01*
X174987708Y-110987482D01*
X174950000Y-111009252D01*
X174950000Y-110021490D01*
X174949999Y-110021490D01*
X174859875Y-110035765D01*
X174642431Y-110106417D01*
X174438719Y-110210213D01*
X174255939Y-110343010D01*
X174190132Y-110366490D01*
X174122079Y-110350664D01*
X174073384Y-110300558D01*
X174066875Y-110286033D01*
X174056296Y-110257669D01*
X174056295Y-110257667D01*
X174056293Y-110257664D01*
X173970047Y-110142455D01*
X173970044Y-110142452D01*
X173854835Y-110056206D01*
X173854828Y-110056202D01*
X173719982Y-110005908D01*
X173719983Y-110005908D01*
X173660383Y-109999501D01*
X173660381Y-109999500D01*
X173660373Y-109999500D01*
X173660364Y-109999500D01*
X171659629Y-109999500D01*
X171659623Y-109999501D01*
X171600016Y-110005908D01*
X171465171Y-110056202D01*
X171465164Y-110056206D01*
X171349955Y-110142452D01*
X171349952Y-110142455D01*
X171263706Y-110257664D01*
X171263702Y-110257671D01*
X171213408Y-110392517D01*
X171207001Y-110452116D01*
X171207000Y-110452135D01*
X168324859Y-110452135D01*
X169010506Y-109766488D01*
X169010511Y-109766484D01*
X169020714Y-109756280D01*
X169020716Y-109756280D01*
X169132520Y-109644476D01*
X169136175Y-109638144D01*
X169187070Y-109549993D01*
X169187071Y-109549991D01*
X169211574Y-109507550D01*
X169211575Y-109507549D01*
X169211575Y-109507547D01*
X169211577Y-109507545D01*
X169252501Y-109354817D01*
X169252501Y-109196703D01*
X169252501Y-109189108D01*
X169252500Y-109189090D01*
X169252500Y-95420942D01*
X169251140Y-95415866D01*
X169249455Y-95409577D01*
X169211577Y-95268215D01*
X169193031Y-95236093D01*
X169177616Y-95209393D01*
X169177615Y-95209392D01*
X169132521Y-95131286D01*
X169132520Y-95131284D01*
X169020716Y-95019480D01*
X169020715Y-95019479D01*
X169016385Y-95015149D01*
X169016374Y-95015139D01*
X168988590Y-94987355D01*
X168988588Y-94987352D01*
X168869717Y-94868481D01*
X168869709Y-94868475D01*
X168765182Y-94808127D01*
X168765179Y-94808126D01*
X168732787Y-94789424D01*
X168732786Y-94789423D01*
X168732785Y-94789423D01*
X168580057Y-94748499D01*
X168421943Y-94748499D01*
X168415730Y-94748499D01*
X168348691Y-94728814D01*
X168302936Y-94676010D01*
X168292992Y-94606852D01*
X168305245Y-94568204D01*
X168351095Y-94478217D01*
X168416757Y-94276130D01*
X168416757Y-94276127D01*
X168450000Y-94066246D01*
X168450000Y-93853753D01*
X168416757Y-93643872D01*
X168416757Y-93643869D01*
X168351095Y-93441782D01*
X168254624Y-93252449D01*
X168215270Y-93198282D01*
X168215269Y-93198282D01*
X167582962Y-93830589D01*
X167565925Y-93767007D01*
X167500099Y-93652993D01*
X167407007Y-93559901D01*
X167292993Y-93494075D01*
X167229409Y-93477037D01*
X167899627Y-92806818D01*
X167960950Y-92773333D01*
X167987307Y-92770499D01*
X167997872Y-92770499D01*
X168057483Y-92764091D01*
X168192331Y-92713796D01*
X168307546Y-92627546D01*
X168334938Y-92590954D01*
X168390868Y-92549085D01*
X168460559Y-92544099D01*
X168513089Y-92569595D01*
X169774583Y-93609773D01*
X169813784Y-93667610D01*
X169819526Y-93698927D01*
X169898035Y-95190609D01*
X169899197Y-95212675D01*
X169898461Y-95257479D01*
X169902814Y-95281413D01*
X169903230Y-95289306D01*
X169903229Y-95289308D01*
X169904093Y-95305715D01*
X169914079Y-95344998D01*
X169914080Y-95344998D01*
X169915135Y-95349150D01*
X169923155Y-95393238D01*
X169932095Y-95415866D01*
X169933386Y-95420943D01*
X169934044Y-95423531D01*
X169934044Y-95423532D01*
X169938089Y-95439447D01*
X169955543Y-95476018D01*
X169958958Y-95483858D01*
X169973859Y-95521572D01*
X169978280Y-95528429D01*
X169987043Y-95542022D01*
X169997523Y-95563980D01*
X170024343Y-95599880D01*
X170026662Y-95603477D01*
X170026662Y-95603479D01*
X170048620Y-95637538D01*
X170048628Y-95637548D01*
X170060046Y-95649347D01*
X170070273Y-95661359D01*
X170074116Y-95666503D01*
X170080107Y-95674521D01*
X170080106Y-95674521D01*
X170110234Y-95701636D01*
X170116391Y-95707575D01*
X170144578Y-95736703D01*
X170144582Y-95736707D01*
X170164587Y-95750554D01*
X170182673Y-95766832D01*
X170221190Y-95789735D01*
X170258038Y-95815242D01*
X170273106Y-95821774D01*
X170287152Y-95828958D01*
X170294599Y-95833387D01*
X170301273Y-95837356D01*
X170301282Y-95837360D01*
X170339496Y-95850882D01*
X170339497Y-95850882D01*
X170343529Y-95852308D01*
X170384637Y-95870133D01*
X170408417Y-95875270D01*
X170431357Y-95883388D01*
X170475711Y-95889809D01*
X170519512Y-95899272D01*
X170543837Y-95899671D01*
X170567920Y-95903158D01*
X170608428Y-95901025D01*
X170616955Y-95900872D01*
X176159274Y-95991909D01*
X176225981Y-96012692D01*
X176259673Y-96046016D01*
X178327564Y-99077551D01*
X182511821Y-105211687D01*
X182518468Y-105222598D01*
X182948298Y-106017782D01*
X183630859Y-107280521D01*
X183636970Y-107291825D01*
X183651531Y-107360160D01*
X183645592Y-107389792D01*
X183610001Y-107497198D01*
X183599500Y-107599982D01*
X183599500Y-109400017D01*
X183610000Y-109502796D01*
X183656949Y-109644477D01*
X183665186Y-109669335D01*
X183757288Y-109818656D01*
X183881344Y-109942712D01*
X184030665Y-110034814D01*
X184197202Y-110089999D01*
X184299990Y-110100500D01*
X184299995Y-110100500D01*
X186100005Y-110100500D01*
X186100010Y-110100500D01*
X186202798Y-110089999D01*
X186369335Y-110034814D01*
X186518656Y-109942712D01*
X186642712Y-109818656D01*
X186734814Y-109669335D01*
X186789999Y-109502798D01*
X186800500Y-109400010D01*
X186800500Y-107599990D01*
X186789999Y-107497202D01*
X186734814Y-107330665D01*
X186642712Y-107181344D01*
X186518656Y-107057288D01*
X186410541Y-106990602D01*
X186369337Y-106965187D01*
X186369332Y-106965185D01*
X186353685Y-106960000D01*
X186202798Y-106910001D01*
X186202796Y-106910000D01*
X186100017Y-106899500D01*
X186100010Y-106899500D01*
X185318757Y-106899500D01*
X185251718Y-106879815D01*
X185209673Y-106834464D01*
X185194699Y-106806763D01*
X184032233Y-104656202D01*
X183924721Y-104457305D01*
X183921968Y-104452213D01*
X183905728Y-104414042D01*
X183884569Y-104383023D01*
X183866714Y-104349991D01*
X183843929Y-104322492D01*
X183836980Y-104313258D01*
X182395811Y-102200499D01*
X177577552Y-95136916D01*
X177556822Y-95081381D01*
X177556284Y-95076763D01*
X175900500Y-80853565D01*
X175900500Y-80821158D01*
X175891403Y-80775428D01*
X175886013Y-80729122D01*
X175878269Y-80705132D01*
X175874656Y-80691237D01*
X175869737Y-80666503D01*
X175851893Y-80623424D01*
X175837573Y-80579062D01*
X175821796Y-80550763D01*
X175809394Y-80520821D01*
X175786262Y-80486202D01*
X175786262Y-80486201D01*
X175783487Y-80482048D01*
X175760790Y-80441335D01*
X175739790Y-80416651D01*
X175735792Y-80410667D01*
X175721791Y-80389713D01*
X175721788Y-80389710D01*
X175711618Y-80379540D01*
X175692345Y-80360267D01*
X175685606Y-80352963D01*
X175658612Y-80321234D01*
X175658607Y-80321230D01*
X175658603Y-80321226D01*
X175638839Y-80305584D01*
X175633195Y-80301117D01*
X175610289Y-80278211D01*
X175571527Y-80252311D01*
X175567612Y-80249212D01*
X175567611Y-80249212D01*
X175534968Y-80223376D01*
X175534118Y-80222940D01*
X175506120Y-80208608D01*
X175479179Y-80190606D01*
X175436110Y-80172766D01*
X175431662Y-80170489D01*
X175431661Y-80170488D01*
X175394605Y-80151518D01*
X175370353Y-80144627D01*
X175370353Y-80144628D01*
X175363430Y-80142661D01*
X175333497Y-80130263D01*
X175287773Y-80121167D01*
X175256182Y-80112192D01*
X175242924Y-80108426D01*
X175230216Y-80107401D01*
X175217788Y-80106398D01*
X175210616Y-80105819D01*
X175178842Y-80099500D01*
X175132221Y-80099500D01*
X175127247Y-80099099D01*
X175121901Y-80098668D01*
X175085749Y-80095753D01*
X175085748Y-80095753D01*
X175085747Y-80095753D01*
X175085743Y-80095753D01*
X175065118Y-80098154D01*
X175060708Y-80098668D01*
X175046370Y-80099500D01*
X164477787Y-80099500D01*
X164476752Y-80099297D01*
X164398983Y-80099500D01*
X164317585Y-80099500D01*
X164313139Y-80099723D01*
X126115652Y-80199430D01*
X126009077Y-80199708D01*
X126009072Y-80199708D01*
X125854505Y-80230872D01*
X125854503Y-80230872D01*
X125854502Y-80230873D01*
X125817866Y-80246159D01*
X125708981Y-80291592D01*
X125708978Y-80291593D01*
X125708978Y-80291594D01*
X125612016Y-80356748D01*
X125578095Y-80379541D01*
X125466883Y-80491331D01*
X125379625Y-80622662D01*
X125379622Y-80622667D01*
X125319659Y-80768502D01*
X125289298Y-80923235D01*
X125289708Y-81080921D01*
X125289708Y-81080927D01*
X125308674Y-81174992D01*
X125320873Y-81235498D01*
X125381594Y-81381022D01*
X125469540Y-81511904D01*
X125580178Y-81621969D01*
X125581331Y-81623116D01*
X125712662Y-81710374D01*
X125712667Y-81710377D01*
X125858502Y-81770340D01*
X125858503Y-81770340D01*
X125858505Y-81770341D01*
X126013240Y-81800702D01*
X126023242Y-81800675D01*
X126023248Y-81800677D01*
X126123928Y-81800414D01*
X126180923Y-81800266D01*
X126180924Y-81800265D01*
X126195268Y-81800228D01*
X126195272Y-81800227D01*
X164400864Y-81700500D01*
X171113568Y-81700500D01*
X171180607Y-81720185D01*
X171226362Y-81772989D01*
X171236306Y-81842147D01*
X171212835Y-81898810D01*
X171206206Y-81907665D01*
X171206202Y-81907671D01*
X171155908Y-82042517D01*
X171149501Y-82102116D01*
X171149501Y-82102123D01*
X171149500Y-82102135D01*
X171149500Y-83897870D01*
X171149501Y-83897876D01*
X171155908Y-83957483D01*
X171206202Y-84092328D01*
X171206206Y-84092335D01*
X171292452Y-84207544D01*
X171292455Y-84207547D01*
X171407664Y-84293793D01*
X171407671Y-84293797D01*
X171427480Y-84301185D01*
X171542517Y-84344091D01*
X171602127Y-84350500D01*
X171612685Y-84350499D01*
X171679723Y-84370179D01*
X171700372Y-84386818D01*
X172370591Y-85057037D01*
X172307007Y-85074075D01*
X172192993Y-85139901D01*
X172099901Y-85232993D01*
X172034075Y-85347007D01*
X172017037Y-85410591D01*
X171384728Y-84778282D01*
X171384727Y-84778282D01*
X171345380Y-84832439D01*
X171248904Y-85021782D01*
X171183242Y-85223869D01*
X171183242Y-85223872D01*
X171150000Y-85433753D01*
X171150000Y-85646246D01*
X171183242Y-85856127D01*
X171183242Y-85856130D01*
X171248904Y-86058217D01*
X171345375Y-86247550D01*
X171384728Y-86301716D01*
X172017037Y-85669408D01*
X172034075Y-85732993D01*
X172099901Y-85847007D01*
X172192993Y-85940099D01*
X172307007Y-86005925D01*
X172370590Y-86022962D01*
X171738282Y-86655269D01*
X171738282Y-86655270D01*
X171792452Y-86694626D01*
X171792451Y-86694626D01*
X171801495Y-86699234D01*
X171852292Y-86747208D01*
X171869087Y-86815029D01*
X171846550Y-86881164D01*
X171801499Y-86920202D01*
X171792182Y-86924949D01*
X171620213Y-87049890D01*
X171469890Y-87200213D01*
X171344951Y-87372179D01*
X171248444Y-87561585D01*
X171182753Y-87763760D01*
X171149500Y-87973713D01*
X171149500Y-88186286D01*
X171170372Y-88318070D01*
X171182754Y-88396243D01*
X171248200Y-88597665D01*
X171248444Y-88598414D01*
X171344951Y-88787820D01*
X171469890Y-88959786D01*
X171620213Y-89110109D01*
X171792179Y-89235048D01*
X171792181Y-89235049D01*
X171792184Y-89235051D01*
X171801493Y-89239794D01*
X171852290Y-89287766D01*
X171869087Y-89355587D01*
X171846552Y-89421722D01*
X171801505Y-89460760D01*
X171792446Y-89465376D01*
X171792440Y-89465380D01*
X171738282Y-89504727D01*
X171738282Y-89504728D01*
X172370591Y-90137037D01*
X172307007Y-90154075D01*
X172192993Y-90219901D01*
X172099901Y-90312993D01*
X172034075Y-90427007D01*
X172017037Y-90490591D01*
X171384728Y-89858282D01*
X171384727Y-89858282D01*
X171345380Y-89912439D01*
X171248904Y-90101782D01*
X171183242Y-90303869D01*
X171183242Y-90303872D01*
X171150000Y-90513753D01*
X171150000Y-90726246D01*
X171183242Y-90936127D01*
X171183242Y-90936130D01*
X171248904Y-91138217D01*
X171345375Y-91327550D01*
X171384728Y-91381716D01*
X172017037Y-90749408D01*
X172034075Y-90812993D01*
X172099901Y-90927007D01*
X172192993Y-91020099D01*
X172307007Y-91085925D01*
X172370590Y-91102962D01*
X171738282Y-91735269D01*
X171738282Y-91735270D01*
X171792452Y-91774626D01*
X171792451Y-91774626D01*
X171801495Y-91779234D01*
X171852292Y-91827208D01*
X171869087Y-91895029D01*
X171846550Y-91961164D01*
X171801499Y-92000202D01*
X171792182Y-92004949D01*
X171620213Y-92129890D01*
X171469890Y-92280213D01*
X171344951Y-92452179D01*
X171248444Y-92641583D01*
X171210018Y-92759848D01*
X171170580Y-92817523D01*
X171106221Y-92844721D01*
X171037375Y-92832806D01*
X171011181Y-92815498D01*
X171002935Y-92808398D01*
X170998876Y-92803429D01*
X170958401Y-92770055D01*
X170957394Y-92769188D01*
X170957338Y-92769102D01*
X170955363Y-92767400D01*
X170918273Y-92734019D01*
X170917322Y-92733163D01*
X170912365Y-92730216D01*
X170896859Y-92719309D01*
X168696157Y-90904696D01*
X168691569Y-90900913D01*
X168666542Y-90875886D01*
X168638464Y-90857124D01*
X168612414Y-90835645D01*
X168595430Y-90826516D01*
X168586476Y-90821703D01*
X168586379Y-90821651D01*
X168581194Y-90818858D01*
X168551811Y-90799225D01*
X168521228Y-90786556D01*
X168515693Y-90783575D01*
X168495143Y-90763258D01*
X168472642Y-90745125D01*
X168470601Y-90738994D01*
X168466007Y-90734452D01*
X168459703Y-90706249D01*
X168450578Y-90678830D01*
X168450499Y-90674406D01*
X168450499Y-90522127D01*
X168450498Y-90522122D01*
X168444091Y-90462517D01*
X168394764Y-90330264D01*
X168393797Y-90327671D01*
X168393793Y-90327664D01*
X168307547Y-90212455D01*
X168307544Y-90212452D01*
X168192335Y-90126206D01*
X168192328Y-90126202D01*
X168057482Y-90075908D01*
X168057483Y-90075908D01*
X167997883Y-90069501D01*
X167997881Y-90069500D01*
X167997873Y-90069500D01*
X167997864Y-90069500D01*
X166202129Y-90069500D01*
X166202123Y-90069501D01*
X166142516Y-90075908D01*
X166007671Y-90126202D01*
X166007664Y-90126206D01*
X165892455Y-90212452D01*
X165892452Y-90212455D01*
X165806206Y-90327664D01*
X165806202Y-90327671D01*
X165755908Y-90462517D01*
X165749501Y-90522116D01*
X165749500Y-90522127D01*
X165749500Y-92317870D01*
X165749501Y-92317876D01*
X165755908Y-92377483D01*
X165806202Y-92512328D01*
X165806206Y-92512335D01*
X165892452Y-92627544D01*
X165892455Y-92627547D01*
X166007664Y-92713793D01*
X166007671Y-92713797D01*
X166022450Y-92719309D01*
X166142517Y-92764091D01*
X166202127Y-92770500D01*
X166212685Y-92770499D01*
X166279723Y-92790179D01*
X166300372Y-92806818D01*
X166970591Y-93477037D01*
X166907007Y-93494075D01*
X166792993Y-93559901D01*
X166699901Y-93652993D01*
X166634075Y-93767007D01*
X166617037Y-93830591D01*
X165984728Y-93198282D01*
X165984727Y-93198282D01*
X165945380Y-93252439D01*
X165848906Y-93441778D01*
X165848190Y-93443984D01*
X165847690Y-93444714D01*
X165847045Y-93446273D01*
X165846717Y-93446137D01*
X165808751Y-93501658D01*
X165744392Y-93528855D01*
X165675546Y-93516939D01*
X165642579Y-93493344D01*
X164439055Y-92289820D01*
X164405570Y-92228497D01*
X164402736Y-92202139D01*
X164402736Y-89354617D01*
X164406904Y-89332802D01*
X164402736Y-89275826D01*
X164402736Y-89218707D01*
X164400025Y-89208593D01*
X164396131Y-89185545D01*
X164395368Y-89175108D01*
X164378081Y-89125422D01*
X164375431Y-89116804D01*
X164361813Y-89065980D01*
X164350708Y-89046746D01*
X164343412Y-89025774D01*
X164311321Y-88978525D01*
X164282756Y-88929048D01*
X164275352Y-88921644D01*
X164260455Y-88903632D01*
X164243189Y-88878211D01*
X164104500Y-88674010D01*
X164101929Y-88670066D01*
X164068233Y-88616153D01*
X163807826Y-88199500D01*
X163615919Y-87892449D01*
X163614780Y-87890627D01*
X163580519Y-87831284D01*
X163572977Y-87823742D01*
X163567323Y-87814695D01*
X163518757Y-87769415D01*
X163515635Y-87766400D01*
X163326475Y-87577240D01*
X163326473Y-87577237D01*
X163207602Y-87458366D01*
X163207594Y-87458360D01*
X163088689Y-87389711D01*
X163088689Y-87389710D01*
X163088684Y-87389709D01*
X163082398Y-87386079D01*
X163070671Y-87379308D01*
X163032488Y-87369077D01*
X162917942Y-87338384D01*
X162759828Y-87338384D01*
X162752232Y-87338384D01*
X162752216Y-87338385D01*
X161596950Y-87338385D01*
X161529911Y-87318700D01*
X161528059Y-87317487D01*
X161396369Y-87229494D01*
X161396356Y-87229487D01*
X161250685Y-87169149D01*
X161250673Y-87169146D01*
X161096029Y-87138385D01*
X161096026Y-87138385D01*
X160938342Y-87138385D01*
X160938339Y-87138385D01*
X160783694Y-87169146D01*
X160783682Y-87169149D01*
X160638011Y-87229487D01*
X160637998Y-87229494D01*
X160506895Y-87317095D01*
X160506891Y-87317098D01*
X160395397Y-87428592D01*
X160395394Y-87428596D01*
X160307793Y-87559699D01*
X160307786Y-87559712D01*
X160247448Y-87705383D01*
X160247445Y-87705395D01*
X160216684Y-87860038D01*
X160216684Y-88017731D01*
X160247445Y-88172374D01*
X160247448Y-88172386D01*
X160307786Y-88318057D01*
X160307793Y-88318070D01*
X160395394Y-88449173D01*
X160395397Y-88449177D01*
X160506891Y-88560671D01*
X160506895Y-88560674D01*
X160637998Y-88648275D01*
X160638011Y-88648282D01*
X160761664Y-88699500D01*
X160783687Y-88708622D01*
X160938337Y-88739384D01*
X160938340Y-88739385D01*
X160938342Y-88739385D01*
X161096028Y-88739385D01*
X161096029Y-88739384D01*
X161250681Y-88708622D01*
X161396363Y-88648279D01*
X161437467Y-88620814D01*
X161528059Y-88560283D01*
X161594737Y-88539405D01*
X161596950Y-88539385D01*
X162535250Y-88539385D01*
X162602289Y-88559070D01*
X162640402Y-88597665D01*
X163047632Y-89249234D01*
X163055018Y-89261052D01*
X163058824Y-89271990D01*
X163096826Y-89327943D01*
X163128849Y-89379179D01*
X163132677Y-89385304D01*
X163137847Y-89391574D01*
X163137763Y-89391642D01*
X163148977Y-89404728D01*
X163180313Y-89450865D01*
X163201696Y-89517382D01*
X163201736Y-89520535D01*
X163201736Y-92415566D01*
X163201735Y-92415584D01*
X163201735Y-92581290D01*
X163201734Y-92581290D01*
X163242519Y-92733501D01*
X163242659Y-92734021D01*
X163268661Y-92779057D01*
X163320360Y-92868603D01*
X163321715Y-92870950D01*
X163321717Y-92870953D01*
X163440585Y-92989821D01*
X163440591Y-92989826D01*
X165497415Y-95046650D01*
X165530900Y-95107973D01*
X165525916Y-95177665D01*
X165484044Y-95233598D01*
X165418580Y-95258015D01*
X165368421Y-95251247D01*
X164531897Y-94955655D01*
X164531897Y-94955654D01*
X164521313Y-94951914D01*
X164499883Y-94939639D01*
X164447052Y-94925674D01*
X164442298Y-94923995D01*
X164442297Y-94923994D01*
X164395529Y-94907469D01*
X164395524Y-94907468D01*
X164382089Y-94906420D01*
X164360053Y-94902680D01*
X164347015Y-94899234D01*
X164297410Y-94899401D01*
X164297411Y-94899402D01*
X164292360Y-94899419D01*
X164237892Y-94895170D01*
X164213607Y-94899687D01*
X164202383Y-94899726D01*
X164202382Y-94899725D01*
X164202381Y-94899726D01*
X147177248Y-94957535D01*
X147110142Y-94938078D01*
X147107936Y-94936638D01*
X146979185Y-94850609D01*
X146979172Y-94850602D01*
X146833501Y-94790264D01*
X146833489Y-94790261D01*
X146678845Y-94759500D01*
X146678842Y-94759500D01*
X146521158Y-94759500D01*
X146521155Y-94759500D01*
X146366510Y-94790261D01*
X146366498Y-94790264D01*
X146220827Y-94850602D01*
X146220814Y-94850609D01*
X146089711Y-94938210D01*
X146089707Y-94938213D01*
X145978213Y-95049707D01*
X145978210Y-95049711D01*
X145890609Y-95180814D01*
X145890602Y-95180827D01*
X145830264Y-95326498D01*
X145830261Y-95326510D01*
X145799500Y-95481153D01*
X145799500Y-95638846D01*
X145830261Y-95793489D01*
X145830264Y-95793501D01*
X145890602Y-95939172D01*
X145890609Y-95939185D01*
X145978210Y-96070288D01*
X145978213Y-96070292D01*
X146089707Y-96181786D01*
X146089711Y-96181789D01*
X146220814Y-96269390D01*
X146220827Y-96269397D01*
X146366498Y-96329735D01*
X146366503Y-96329737D01*
X146515548Y-96359384D01*
X146521153Y-96360499D01*
X146521156Y-96360500D01*
X146521158Y-96360500D01*
X146678844Y-96360500D01*
X146678845Y-96360499D01*
X146833497Y-96329737D01*
X146979179Y-96269394D01*
X146979184Y-96269390D01*
X146979187Y-96269389D01*
X147022537Y-96240423D01*
X147110289Y-96181789D01*
X147110292Y-96181785D01*
X147113828Y-96179423D01*
X147180505Y-96158544D01*
X147182172Y-96158526D01*
X164146537Y-96100921D01*
X164188261Y-96108003D01*
X165688847Y-96638245D01*
X165745497Y-96679141D01*
X165770006Y-96735762D01*
X165782753Y-96816240D01*
X165782754Y-96816243D01*
X165835697Y-96979185D01*
X165848444Y-97018414D01*
X165944951Y-97207820D01*
X166069890Y-97379786D01*
X166220213Y-97530109D01*
X166392182Y-97655050D01*
X166400946Y-97659516D01*
X166451742Y-97707491D01*
X166468536Y-97775312D01*
X166445998Y-97841447D01*
X166400946Y-97880484D01*
X166392182Y-97884949D01*
X166220213Y-98009890D01*
X166069890Y-98160213D01*
X165944951Y-98332179D01*
X165848444Y-98521585D01*
X165782753Y-98723760D01*
X165749500Y-98933713D01*
X165749500Y-99146286D01*
X165777196Y-99321155D01*
X165782754Y-99356243D01*
X165822590Y-99478846D01*
X165848444Y-99558414D01*
X165944951Y-99747820D01*
X166069890Y-99919786D01*
X166220213Y-100070109D01*
X166392182Y-100195050D01*
X166400946Y-100199516D01*
X166451742Y-100247491D01*
X166468536Y-100315312D01*
X166445998Y-100381447D01*
X166400946Y-100420484D01*
X166392182Y-100424949D01*
X166220213Y-100549890D01*
X166069890Y-100700213D01*
X165944951Y-100872180D01*
X165883406Y-100992968D01*
X165835431Y-101043764D01*
X165780622Y-101060434D01*
X163694178Y-101190261D01*
X163686477Y-101190500D01*
X150399353Y-101190500D01*
X150332314Y-101170815D01*
X150309993Y-101152469D01*
X143335135Y-93901961D01*
X143302846Y-93840002D01*
X143301591Y-93827169D01*
X143301097Y-93827218D01*
X143300500Y-93821163D01*
X143300500Y-93821158D01*
X143269737Y-93666503D01*
X143260362Y-93643869D01*
X143209397Y-93520827D01*
X143209390Y-93520814D01*
X143121789Y-93389711D01*
X143121786Y-93389707D01*
X143010292Y-93278213D01*
X143010288Y-93278210D01*
X142879185Y-93190609D01*
X142879172Y-93190602D01*
X142733501Y-93130264D01*
X142733489Y-93130261D01*
X142578845Y-93099500D01*
X142578842Y-93099500D01*
X142421158Y-93099500D01*
X142421155Y-93099500D01*
X142266510Y-93130261D01*
X142266498Y-93130264D01*
X142120827Y-93190602D01*
X142120814Y-93190609D01*
X141989711Y-93278210D01*
X141989707Y-93278213D01*
X141878213Y-93389707D01*
X141878210Y-93389711D01*
X141790609Y-93520814D01*
X141790602Y-93520827D01*
X141730264Y-93666498D01*
X141730261Y-93666510D01*
X141699500Y-93821153D01*
X141699500Y-93978846D01*
X141730261Y-94133489D01*
X141730264Y-94133501D01*
X141790602Y-94279172D01*
X141790609Y-94279185D01*
X141878210Y-94410288D01*
X141878213Y-94410292D01*
X141989707Y-94521786D01*
X141989711Y-94521789D01*
X142120814Y-94609390D01*
X142120827Y-94609397D01*
X142193634Y-94639554D01*
X142266503Y-94669737D01*
X142402341Y-94696757D01*
X142464252Y-94729141D01*
X142467510Y-94732405D01*
X143226674Y-95521572D01*
X149382360Y-101920534D01*
X149414651Y-101982494D01*
X149408317Y-102052076D01*
X149365370Y-102107188D01*
X149299445Y-102130332D01*
X149292997Y-102130500D01*
X147855936Y-102130500D01*
X147788897Y-102110815D01*
X147785709Y-102108697D01*
X139394978Y-96342804D01*
X139385586Y-96336350D01*
X139368716Y-96319480D01*
X139320660Y-96291735D01*
X139274935Y-96260314D01*
X139263189Y-96256155D01*
X139242581Y-96246655D01*
X139231787Y-96240423D01*
X139182890Y-96227320D01*
X139182890Y-96227321D01*
X139178181Y-96226059D01*
X139125886Y-96207545D01*
X139102103Y-96205674D01*
X139091093Y-96202724D01*
X139079059Y-96199500D01*
X139079057Y-96199500D01*
X139028441Y-96199500D01*
X139018719Y-96199118D01*
X138968262Y-96195149D01*
X138968257Y-96195149D01*
X138958879Y-96196888D01*
X138956001Y-96197422D01*
X138933397Y-96199500D01*
X122100098Y-96199500D01*
X122033059Y-96179815D01*
X122012417Y-96163181D01*
X121241538Y-95392303D01*
X121208053Y-95330980D01*
X121207618Y-95328894D01*
X121206921Y-95325388D01*
X121151092Y-95190604D01*
X121146579Y-95179708D01*
X121146574Y-95179699D01*
X121058973Y-95048596D01*
X121058970Y-95048592D01*
X120947476Y-94937098D01*
X120947472Y-94937095D01*
X120816369Y-94849494D01*
X120816356Y-94849487D01*
X120670685Y-94789149D01*
X120670673Y-94789146D01*
X120516029Y-94758385D01*
X120516026Y-94758385D01*
X120358342Y-94758385D01*
X120358339Y-94758385D01*
X120203694Y-94789146D01*
X120203682Y-94789149D01*
X120058011Y-94849487D01*
X120057998Y-94849494D01*
X119926895Y-94937095D01*
X119926891Y-94937098D01*
X119815397Y-95048592D01*
X119815394Y-95048596D01*
X119727793Y-95179699D01*
X119727786Y-95179712D01*
X119667448Y-95325383D01*
X119667445Y-95325395D01*
X119636684Y-95480038D01*
X118882143Y-95480038D01*
X118844387Y-95423532D01*
X118821789Y-95389711D01*
X118821786Y-95389707D01*
X118710292Y-95278213D01*
X118710288Y-95278210D01*
X118579185Y-95190609D01*
X118579176Y-95190604D01*
X118569723Y-95186689D01*
X118515320Y-95142848D01*
X118495559Y-95096319D01*
X118486066Y-95048596D01*
X118469737Y-94966503D01*
X118469735Y-94966498D01*
X118409397Y-94820827D01*
X118409390Y-94820814D01*
X118321789Y-94689711D01*
X118321786Y-94689707D01*
X118210292Y-94578213D01*
X118210288Y-94578210D01*
X118079185Y-94490609D01*
X118079172Y-94490602D01*
X117935864Y-94431243D01*
X117881460Y-94387402D01*
X117868761Y-94364147D01*
X117809394Y-94220821D01*
X117809392Y-94220818D01*
X117809390Y-94220814D01*
X117721789Y-94089711D01*
X117721786Y-94089707D01*
X117610292Y-93978213D01*
X117610288Y-93978210D01*
X117479185Y-93890609D01*
X117479172Y-93890602D01*
X117333501Y-93830264D01*
X117333491Y-93830261D01*
X117174048Y-93798545D01*
X117156415Y-93789321D01*
X117137041Y-93784774D01*
X117126089Y-93773458D01*
X117112137Y-93766160D01*
X117102289Y-93748866D01*
X117088450Y-93734567D01*
X117079058Y-93708069D01*
X117077563Y-93705444D01*
X117076659Y-93701301D01*
X117076573Y-93700872D01*
X117082696Y-93631271D01*
X117110471Y-93588820D01*
X118784823Y-91914469D01*
X118788850Y-91908443D01*
X118861485Y-91799737D01*
X118864438Y-91792609D01*
X118865873Y-91789142D01*
X118902590Y-91700500D01*
X118914290Y-91672255D01*
X118920502Y-91641025D01*
X118935324Y-91566510D01*
X118941210Y-91536921D01*
X118941210Y-86021714D01*
X118914291Y-85886387D01*
X118914290Y-85886386D01*
X118914290Y-85886382D01*
X118914287Y-85886374D01*
X118913734Y-85885038D01*
X118895764Y-85841656D01*
X164891762Y-85841656D01*
X164891762Y-86098343D01*
X164891763Y-86098359D01*
X164925266Y-86352842D01*
X164925267Y-86352847D01*
X164925268Y-86352853D01*
X164991706Y-86600806D01*
X165014266Y-86655270D01*
X165089939Y-86837961D01*
X165089944Y-86837972D01*
X165218286Y-87060265D01*
X165218297Y-87060282D01*
X165374557Y-87263925D01*
X165374563Y-87263932D01*
X165556067Y-87445436D01*
X165556074Y-87445442D01*
X165759717Y-87601702D01*
X165759722Y-87601705D01*
X165759727Y-87601709D01*
X165759734Y-87601713D01*
X165982027Y-87730055D01*
X165982032Y-87730057D01*
X165982035Y-87730059D01*
X166219194Y-87828294D01*
X166467147Y-87894732D01*
X166721650Y-87928238D01*
X166721657Y-87928238D01*
X166978343Y-87928238D01*
X166978350Y-87928238D01*
X167232853Y-87894732D01*
X167480806Y-87828294D01*
X167717965Y-87730059D01*
X167940273Y-87601709D01*
X168143927Y-87445441D01*
X168325441Y-87263927D01*
X168481709Y-87060273D01*
X168610059Y-86837965D01*
X168708294Y-86600806D01*
X168774732Y-86352853D01*
X168808238Y-86098350D01*
X168808238Y-85841650D01*
X168774732Y-85587147D01*
X168708294Y-85339194D01*
X168610059Y-85102035D01*
X168610057Y-85102032D01*
X168610055Y-85102027D01*
X168481713Y-84879734D01*
X168481709Y-84879727D01*
X168481705Y-84879722D01*
X168481702Y-84879717D01*
X168325442Y-84676074D01*
X168325436Y-84676067D01*
X168143932Y-84494563D01*
X168143925Y-84494557D01*
X167940282Y-84338297D01*
X167940265Y-84338286D01*
X167717972Y-84209944D01*
X167717961Y-84209939D01*
X167579040Y-84152396D01*
X167480806Y-84111706D01*
X167480804Y-84111705D01*
X167480803Y-84111705D01*
X167407139Y-84091967D01*
X167232853Y-84045268D01*
X167232847Y-84045267D01*
X167232842Y-84045266D01*
X166978359Y-84011763D01*
X166978356Y-84011762D01*
X166978350Y-84011762D01*
X166721650Y-84011762D01*
X166721644Y-84011762D01*
X166721640Y-84011763D01*
X166467157Y-84045266D01*
X166467150Y-84045267D01*
X166467147Y-84045268D01*
X166393480Y-84065006D01*
X166219196Y-84111705D01*
X165982038Y-84209939D01*
X165982027Y-84209944D01*
X165759734Y-84338286D01*
X165759717Y-84338297D01*
X165556074Y-84494557D01*
X165556067Y-84494563D01*
X165374563Y-84676067D01*
X165374557Y-84676074D01*
X165218297Y-84879717D01*
X165218286Y-84879734D01*
X165089944Y-85102027D01*
X165089939Y-85102038D01*
X164991705Y-85339196D01*
X164925269Y-85587144D01*
X164925266Y-85587157D01*
X164891763Y-85841640D01*
X164891762Y-85841656D01*
X118895764Y-85841656D01*
X118861486Y-85758901D01*
X118861481Y-85758892D01*
X118799748Y-85666503D01*
X118799746Y-85666500D01*
X118784826Y-85644169D01*
X114886818Y-81746161D01*
X114853333Y-81684838D01*
X114850499Y-81658480D01*
X114850499Y-81174998D01*
X114850498Y-81174981D01*
X114839999Y-81072203D01*
X114784814Y-80905666D01*
X114692712Y-80756344D01*
X114568656Y-80632288D01*
X114436482Y-80550763D01*
X114419336Y-80540187D01*
X114419331Y-80540185D01*
X114360894Y-80520821D01*
X114252797Y-80485001D01*
X114252795Y-80485000D01*
X114150010Y-80474500D01*
X113549998Y-80474500D01*
X113549980Y-80474501D01*
X113447203Y-80485000D01*
X113447200Y-80485001D01*
X113280668Y-80540185D01*
X113280663Y-80540187D01*
X113131342Y-80632289D01*
X113007288Y-80756343D01*
X113007283Y-80756349D01*
X113005241Y-80759661D01*
X113003247Y-80761453D01*
X113002807Y-80762011D01*
X113002711Y-80761935D01*
X112953291Y-80806383D01*
X112884328Y-80817602D01*
X112820247Y-80789755D01*
X112794168Y-80759656D01*
X112792319Y-80756659D01*
X112792316Y-80756655D01*
X112668345Y-80632684D01*
X112519124Y-80540643D01*
X112519119Y-80540641D01*
X112352697Y-80485494D01*
X112352690Y-80485493D01*
X112249986Y-80475000D01*
X112200000Y-80475000D01*
X112200000Y-82924999D01*
X112249972Y-82924999D01*
X112249986Y-82924998D01*
X112352697Y-82914505D01*
X112519119Y-82859358D01*
X112519124Y-82859356D01*
X112668345Y-82767315D01*
X112792318Y-82643342D01*
X112794165Y-82640348D01*
X112795969Y-82638724D01*
X112796798Y-82637677D01*
X112796976Y-82637818D01*
X112846110Y-82593621D01*
X112915073Y-82582396D01*
X112979156Y-82610236D01*
X113005243Y-82640341D01*
X113007288Y-82643656D01*
X113131344Y-82767712D01*
X113280666Y-82859814D01*
X113447203Y-82914999D01*
X113549991Y-82925500D01*
X114033480Y-82925499D01*
X114100519Y-82945183D01*
X114121161Y-82961818D01*
X114990289Y-83830946D01*
X115023774Y-83892269D01*
X115018790Y-83961961D01*
X114976918Y-84017894D01*
X114911454Y-84042311D01*
X114870515Y-84038402D01*
X114793977Y-84017894D01*
X114741116Y-84003730D01*
X114708616Y-83999451D01*
X114481127Y-83969500D01*
X114481120Y-83969500D01*
X114218880Y-83969500D01*
X114218872Y-83969500D01*
X113987772Y-83999926D01*
X113958884Y-84003730D01*
X113803858Y-84045269D01*
X113705581Y-84071602D01*
X113705571Y-84071605D01*
X113463309Y-84171953D01*
X113463299Y-84171958D01*
X113236196Y-84303075D01*
X113028148Y-84462718D01*
X112842718Y-84648148D01*
X112683075Y-84856196D01*
X112551958Y-85083299D01*
X112551953Y-85083309D01*
X112451605Y-85325571D01*
X112451602Y-85325581D01*
X112383730Y-85578885D01*
X112349500Y-85838872D01*
X112349500Y-86101127D01*
X112374695Y-86292489D01*
X112383730Y-86361116D01*
X112448831Y-86604076D01*
X112451602Y-86614418D01*
X112451605Y-86614428D01*
X112551953Y-86856690D01*
X112551958Y-86856700D01*
X112683075Y-87083803D01*
X112842718Y-87291851D01*
X112842726Y-87291860D01*
X113028140Y-87477274D01*
X113028148Y-87477281D01*
X113236196Y-87636924D01*
X113463299Y-87768041D01*
X113463309Y-87768046D01*
X113664218Y-87851265D01*
X113705581Y-87868398D01*
X113958884Y-87936270D01*
X114218880Y-87970500D01*
X114218887Y-87970500D01*
X114481113Y-87970500D01*
X114481120Y-87970500D01*
X114741116Y-87936270D01*
X114994419Y-87868398D01*
X115171340Y-87795114D01*
X115236690Y-87768046D01*
X115236691Y-87768045D01*
X115236697Y-87768043D01*
X115463803Y-87636924D01*
X115671851Y-87477282D01*
X115671855Y-87477277D01*
X115671860Y-87477274D01*
X115857274Y-87291860D01*
X115857277Y-87291855D01*
X115857282Y-87291851D01*
X116016924Y-87083803D01*
X116148043Y-86856697D01*
X116165303Y-86815029D01*
X116175114Y-86791340D01*
X116248398Y-86614419D01*
X116316270Y-86361116D01*
X116350500Y-86101120D01*
X116350500Y-85838880D01*
X116316270Y-85578884D01*
X116281597Y-85449482D01*
X116283260Y-85379635D01*
X116322422Y-85321772D01*
X116386651Y-85294268D01*
X116455553Y-85305854D01*
X116489053Y-85329710D01*
X117503891Y-86344548D01*
X117537376Y-86405871D01*
X117540210Y-86432229D01*
X117540210Y-91126406D01*
X117520525Y-91193445D01*
X117503891Y-91214087D01*
X116359863Y-92358114D01*
X116298540Y-92391599D01*
X116228848Y-92386615D01*
X116203291Y-92373535D01*
X116079185Y-92290609D01*
X116079172Y-92290602D01*
X115933501Y-92230264D01*
X115933491Y-92230261D01*
X115802776Y-92204260D01*
X115740865Y-92171875D01*
X115712407Y-92130095D01*
X115709394Y-92122821D01*
X115621789Y-91991711D01*
X115621786Y-91991707D01*
X115510292Y-91880213D01*
X115510288Y-91880210D01*
X115379185Y-91792609D01*
X115379172Y-91792602D01*
X115261179Y-91743729D01*
X115206775Y-91699889D01*
X115187014Y-91653359D01*
X115182220Y-91629259D01*
X115169737Y-91566503D01*
X115111793Y-91426612D01*
X115109397Y-91420827D01*
X115109390Y-91420814D01*
X115021789Y-91289711D01*
X115021786Y-91289707D01*
X114910292Y-91178213D01*
X114910288Y-91178210D01*
X114779185Y-91090609D01*
X114779172Y-91090602D01*
X114660745Y-91041549D01*
X114606341Y-90997708D01*
X114586580Y-90951182D01*
X114569737Y-90866503D01*
X114556955Y-90835645D01*
X114509397Y-90720827D01*
X114509390Y-90720814D01*
X114421789Y-90589711D01*
X114421786Y-90589707D01*
X114310292Y-90478213D01*
X114310288Y-90478210D01*
X114179185Y-90390609D01*
X114179172Y-90390602D01*
X114033501Y-90330264D01*
X114033491Y-90330261D01*
X113888605Y-90301441D01*
X113826694Y-90269056D01*
X113792120Y-90208340D01*
X113790987Y-90156624D01*
X113881617Y-89680809D01*
X113913498Y-89618639D01*
X113915708Y-89616369D01*
X114021789Y-89510289D01*
X114109394Y-89379179D01*
X114169737Y-89233497D01*
X114200500Y-89078842D01*
X114200500Y-88921158D01*
X114200500Y-88921155D01*
X114200499Y-88921153D01*
X114182419Y-88830261D01*
X114169737Y-88766503D01*
X114169735Y-88766498D01*
X114109397Y-88620827D01*
X114109390Y-88620814D01*
X114021789Y-88489711D01*
X114021786Y-88489707D01*
X113910292Y-88378213D01*
X113910288Y-88378210D01*
X113779185Y-88290609D01*
X113779172Y-88290602D01*
X113633501Y-88230264D01*
X113633489Y-88230261D01*
X113478845Y-88199500D01*
X113478842Y-88199500D01*
X113321158Y-88199500D01*
X113321155Y-88199500D01*
X113166510Y-88230261D01*
X113166498Y-88230264D01*
X113020827Y-88290602D01*
X113020814Y-88290609D01*
X112889711Y-88378210D01*
X112889707Y-88378213D01*
X112778213Y-88489707D01*
X112778210Y-88489711D01*
X112690609Y-88620814D01*
X112690602Y-88620827D01*
X112630264Y-88766498D01*
X112630261Y-88766510D01*
X112599500Y-88921153D01*
X112599500Y-89078846D01*
X112630261Y-89233489D01*
X112630264Y-89233501D01*
X112692937Y-89384808D01*
X112690985Y-89385616D01*
X112703276Y-89444634D01*
X112701485Y-89457892D01*
X112418546Y-90943321D01*
X112418546Y-90943322D01*
X112417272Y-90950014D01*
X112417102Y-90950905D01*
X112404289Y-90990551D01*
X112402372Y-91028228D01*
X112400776Y-91036609D01*
X112395312Y-91065298D01*
X112397807Y-91099153D01*
X112397982Y-91114561D01*
X112104169Y-96892890D01*
X112103502Y-96906003D01*
X112099500Y-96920943D01*
X112099500Y-96984733D01*
X112099340Y-96987881D01*
X112099340Y-96987885D01*
X112096259Y-97048458D01*
X112096750Y-97050747D01*
X112099500Y-97076717D01*
X112099500Y-97136089D01*
X112098694Y-97150205D01*
X112037413Y-97685019D01*
X112010225Y-97749382D01*
X111952555Y-97788828D01*
X111882714Y-97790834D01*
X111866767Y-97785464D01*
X111733501Y-97730264D01*
X111733491Y-97730261D01*
X111600308Y-97703769D01*
X111538397Y-97671384D01*
X111503823Y-97610668D01*
X111500500Y-97582152D01*
X111500500Y-92967334D01*
X111517113Y-92905334D01*
X111519904Y-92900500D01*
X111559577Y-92831784D01*
X111597101Y-92691744D01*
X111600500Y-92679058D01*
X111600500Y-92520943D01*
X111600500Y-90079765D01*
X111620185Y-90012726D01*
X111621398Y-90010874D01*
X111709390Y-89879185D01*
X111709390Y-89879184D01*
X111709394Y-89879179D01*
X111769737Y-89733497D01*
X111800500Y-89578842D01*
X111800500Y-89421158D01*
X111800500Y-89421155D01*
X111800499Y-89421153D01*
X111795196Y-89394495D01*
X111769737Y-89266503D01*
X111767804Y-89261836D01*
X111709397Y-89120827D01*
X111709390Y-89120814D01*
X111621789Y-88989711D01*
X111621786Y-88989707D01*
X111510292Y-88878213D01*
X111510288Y-88878210D01*
X111379185Y-88790609D01*
X111379172Y-88790602D01*
X111233501Y-88730264D01*
X111233489Y-88730261D01*
X111078845Y-88699500D01*
X111078842Y-88699500D01*
X110921158Y-88699500D01*
X110921155Y-88699500D01*
X110766510Y-88730261D01*
X110766498Y-88730264D01*
X110620827Y-88790602D01*
X110620814Y-88790609D01*
X110489711Y-88878210D01*
X110489707Y-88878213D01*
X110378213Y-88989707D01*
X110378210Y-88989711D01*
X110290609Y-89120814D01*
X110290604Y-89120823D01*
X110241549Y-89239255D01*
X110197708Y-89293658D01*
X110151180Y-89313419D01*
X110066508Y-89330261D01*
X110066498Y-89330264D01*
X109920827Y-89390602D01*
X109920816Y-89390608D01*
X109863796Y-89428708D01*
X109797119Y-89449585D01*
X109729739Y-89431100D01*
X109691804Y-89394495D01*
X109621792Y-89289715D01*
X109621786Y-89289707D01*
X109510292Y-89178213D01*
X109510288Y-89178210D01*
X109379185Y-89090609D01*
X109379172Y-89090602D01*
X109233501Y-89030264D01*
X109233489Y-89030261D01*
X109078845Y-88999500D01*
X109078842Y-88999500D01*
X108921158Y-88999500D01*
X108921153Y-88999500D01*
X108828037Y-89018022D01*
X108758445Y-89011795D01*
X108716165Y-88984086D01*
X108710292Y-88978213D01*
X108710288Y-88978210D01*
X108579185Y-88890609D01*
X108579172Y-88890602D01*
X108433501Y-88830264D01*
X108433489Y-88830261D01*
X108278845Y-88799500D01*
X108278842Y-88799500D01*
X108121158Y-88799500D01*
X108121155Y-88799500D01*
X107966510Y-88830261D01*
X107966498Y-88830264D01*
X107820827Y-88890602D01*
X107820814Y-88890609D01*
X107689711Y-88978210D01*
X107689707Y-88978213D01*
X107578213Y-89089707D01*
X107578210Y-89089711D01*
X107490609Y-89220814D01*
X107490602Y-89220827D01*
X107430264Y-89366498D01*
X107430261Y-89366510D01*
X107399500Y-89521153D01*
X107399500Y-89678846D01*
X107430261Y-89833489D01*
X107430264Y-89833501D01*
X107490602Y-89979171D01*
X107490609Y-89979184D01*
X107509905Y-90008062D01*
X107514690Y-90023346D01*
X107523983Y-90036395D01*
X107524917Y-90056006D01*
X107530783Y-90074740D01*
X107526584Y-90090990D01*
X107527308Y-90106186D01*
X107514191Y-90138952D01*
X107479235Y-90199499D01*
X107479233Y-90199502D01*
X107464701Y-90224671D01*
X107463442Y-90226801D01*
X107448821Y-90250975D01*
X107445207Y-90256951D01*
X107439146Y-90268932D01*
X107438385Y-90270249D01*
X107438381Y-90270258D01*
X107402170Y-90405394D01*
X107402171Y-90405395D01*
X107401828Y-90406672D01*
X107401236Y-90408718D01*
X107401232Y-90408900D01*
X107399410Y-90415702D01*
X107399409Y-90415703D01*
X107399408Y-90415709D01*
X107397460Y-90422976D01*
X107397460Y-90591085D01*
X107397461Y-90591098D01*
X107397461Y-90592607D01*
X107397435Y-90595135D01*
X107249679Y-97841824D01*
X107245480Y-97871388D01*
X107227398Y-97938873D01*
X107227398Y-98106978D01*
X107227399Y-98106991D01*
X107227399Y-98422184D01*
X107207714Y-98489223D01*
X107154910Y-98534978D01*
X107150852Y-98536745D01*
X107020824Y-98590604D01*
X107020814Y-98590609D01*
X106889711Y-98678210D01*
X106889707Y-98678213D01*
X106778213Y-98789707D01*
X106778210Y-98789711D01*
X106690609Y-98920814D01*
X106690602Y-98920827D01*
X106630264Y-99066498D01*
X106630261Y-99066510D01*
X106599500Y-99221153D01*
X106599500Y-99378846D01*
X106630261Y-99533489D01*
X106630264Y-99533501D01*
X106690602Y-99679172D01*
X106690609Y-99679185D01*
X106778210Y-99810288D01*
X106778213Y-99810292D01*
X106889710Y-99921789D01*
X106930764Y-99949220D01*
X106975569Y-100002832D01*
X106984276Y-100072157D01*
X106954122Y-100135184D01*
X106932982Y-100153907D01*
X106328443Y-100577085D01*
X106262234Y-100599403D01*
X106257334Y-100599500D01*
X106121155Y-100599500D01*
X105966510Y-100630261D01*
X105966498Y-100630264D01*
X105820827Y-100690602D01*
X105820814Y-100690609D01*
X105693391Y-100775751D01*
X105626713Y-100796629D01*
X105559333Y-100778144D01*
X105512643Y-100726165D01*
X105500500Y-100672649D01*
X105500500Y-99079765D01*
X105520185Y-99012726D01*
X105521398Y-99010874D01*
X105572956Y-98933713D01*
X105609394Y-98879179D01*
X105669737Y-98733497D01*
X105700500Y-98578842D01*
X105700500Y-98421158D01*
X105700500Y-98421155D01*
X105700499Y-98421153D01*
X105669737Y-98266503D01*
X105609532Y-98121153D01*
X105609397Y-98120827D01*
X105609390Y-98120814D01*
X105521789Y-97989711D01*
X105521786Y-97989707D01*
X105410292Y-97878213D01*
X105410288Y-97878210D01*
X105279185Y-97790609D01*
X105279172Y-97790602D01*
X105133501Y-97730264D01*
X105133489Y-97730261D01*
X104978845Y-97699500D01*
X104978842Y-97699500D01*
X104821158Y-97699500D01*
X104821155Y-97699500D01*
X104666510Y-97730261D01*
X104666498Y-97730264D01*
X104520827Y-97790602D01*
X104520814Y-97790609D01*
X104389711Y-97878210D01*
X104389707Y-97878213D01*
X104278213Y-97989707D01*
X104278210Y-97989711D01*
X104190609Y-98120814D01*
X104190602Y-98120827D01*
X104130264Y-98266498D01*
X104130261Y-98266510D01*
X104099500Y-98421153D01*
X104099500Y-98578846D01*
X104130261Y-98733489D01*
X104130264Y-98733501D01*
X104190602Y-98879172D01*
X104190609Y-98879185D01*
X104278602Y-99010874D01*
X104299480Y-99077551D01*
X104299500Y-99079765D01*
X104299500Y-101883156D01*
X104279815Y-101950195D01*
X104227011Y-101995950D01*
X104157853Y-102005894D01*
X104101328Y-101980992D01*
X104100926Y-101981595D01*
X104097500Y-101979306D01*
X104096844Y-101979017D01*
X104095862Y-101978211D01*
X103964757Y-101890609D01*
X103964744Y-101890602D01*
X103877048Y-101854278D01*
X103822644Y-101810437D01*
X103800579Y-101744143D01*
X103800500Y-101739717D01*
X103800500Y-97379765D01*
X103820185Y-97312726D01*
X103821398Y-97310874D01*
X103909390Y-97179185D01*
X103909390Y-97179184D01*
X103909394Y-97179179D01*
X103969737Y-97033497D01*
X104000500Y-96878842D01*
X104000500Y-96721158D01*
X104000500Y-96721155D01*
X104000499Y-96721153D01*
X103992142Y-96679141D01*
X103969737Y-96566503D01*
X103950955Y-96521158D01*
X103909397Y-96420827D01*
X103909390Y-96420814D01*
X103821398Y-96289125D01*
X103800520Y-96222447D01*
X103800500Y-96220234D01*
X103800500Y-91800097D01*
X103820185Y-91733058D01*
X103836819Y-91712416D01*
X103914099Y-91635136D01*
X104014662Y-91534572D01*
X104075983Y-91501089D01*
X104078150Y-91500638D01*
X104136085Y-91489113D01*
X104233497Y-91469737D01*
X104351592Y-91420821D01*
X104379172Y-91409397D01*
X104379172Y-91409396D01*
X104379179Y-91409394D01*
X104510289Y-91321789D01*
X104621789Y-91210289D01*
X104709394Y-91079179D01*
X104769737Y-90933497D01*
X104800500Y-90778842D01*
X104800500Y-90621158D01*
X104800500Y-90621155D01*
X104800499Y-90621153D01*
X104787176Y-90554174D01*
X104769737Y-90466503D01*
X104768086Y-90462516D01*
X104709397Y-90320827D01*
X104709390Y-90320814D01*
X104621789Y-90189711D01*
X104621786Y-90189707D01*
X104510292Y-90078213D01*
X104510288Y-90078210D01*
X104379185Y-89990609D01*
X104379172Y-89990602D01*
X104233501Y-89930264D01*
X104233489Y-89930261D01*
X104078845Y-89899500D01*
X104078842Y-89899500D01*
X103921158Y-89899500D01*
X103921155Y-89899500D01*
X103766510Y-89930261D01*
X103766498Y-89930264D01*
X103620827Y-89990602D01*
X103620814Y-89990609D01*
X103489711Y-90078210D01*
X103489707Y-90078213D01*
X103378213Y-90189707D01*
X103378210Y-90189711D01*
X103290609Y-90320814D01*
X103290602Y-90320827D01*
X103230264Y-90466498D01*
X103230261Y-90466508D01*
X103199361Y-90621850D01*
X103166976Y-90683761D01*
X103165425Y-90685339D01*
X102719481Y-91131282D01*
X102719479Y-91131285D01*
X102699070Y-91166635D01*
X102678660Y-91201987D01*
X102651777Y-91248549D01*
X102640715Y-91267710D01*
X102640423Y-91268215D01*
X102599499Y-91420943D01*
X102599499Y-91420945D01*
X102599499Y-91589046D01*
X102599500Y-91589059D01*
X102599500Y-96220234D01*
X102579815Y-96287273D01*
X102578602Y-96289125D01*
X102490609Y-96420814D01*
X102490602Y-96420827D01*
X102430264Y-96566498D01*
X102430261Y-96566510D01*
X102399500Y-96721153D01*
X102399500Y-96878846D01*
X102430261Y-97033489D01*
X102430264Y-97033501D01*
X102490602Y-97179172D01*
X102490609Y-97179185D01*
X102578602Y-97310874D01*
X102599480Y-97377551D01*
X102599500Y-97379765D01*
X102599500Y-102013330D01*
X102599499Y-102013348D01*
X102599499Y-102179054D01*
X102599498Y-102179054D01*
X102640422Y-102331783D01*
X102656380Y-102359424D01*
X102656386Y-102359434D01*
X102658032Y-102362284D01*
X102719480Y-102468716D01*
X102742396Y-102491632D01*
X102749474Y-102502511D01*
X102755928Y-102524046D01*
X102766702Y-102543776D01*
X102765765Y-102556866D01*
X102769534Y-102569439D01*
X102763321Y-102591042D01*
X102761718Y-102613468D01*
X102752924Y-102632132D01*
X102740425Y-102653781D01*
X102740424Y-102653782D01*
X102724544Y-102713044D01*
X102699499Y-102806515D01*
X102699499Y-102806517D01*
X102699499Y-102974618D01*
X102699500Y-102974631D01*
X102699500Y-110220234D01*
X102679815Y-110287273D01*
X102678602Y-110289125D01*
X102590609Y-110420814D01*
X102590602Y-110420827D01*
X102530264Y-110566498D01*
X102530261Y-110566508D01*
X102499362Y-110721848D01*
X102490596Y-110738605D01*
X102486577Y-110757082D01*
X102467832Y-110782123D01*
X102466977Y-110783759D01*
X102465427Y-110785337D01*
X102410766Y-110839998D01*
X102331286Y-110919478D01*
X102331285Y-110919478D01*
X102331284Y-110919479D01*
X102219481Y-111031282D01*
X102219480Y-111031284D01*
X102175115Y-111108127D01*
X102140423Y-111168215D01*
X102099499Y-111320943D01*
X102099499Y-111320945D01*
X102099499Y-111489046D01*
X102099500Y-111489059D01*
X102099500Y-117438113D01*
X102079815Y-117505152D01*
X102027011Y-117550907D01*
X101957853Y-117560851D01*
X101921210Y-117548837D01*
X101921149Y-117548987D01*
X101919186Y-117548174D01*
X101917054Y-117547475D01*
X101915521Y-117546656D01*
X101728984Y-117469390D01*
X101728977Y-117469388D01*
X101680000Y-117459645D01*
X101680000Y-118314134D01*
X101677617Y-118338326D01*
X101674500Y-118353995D01*
X101674500Y-118394170D01*
X101660255Y-118379925D01*
X101574745Y-118330556D01*
X101479370Y-118305000D01*
X101380630Y-118305000D01*
X101285255Y-118330556D01*
X101199745Y-118379925D01*
X101185499Y-118394170D01*
X101185499Y-117882128D01*
X101180710Y-117837577D01*
X101180000Y-117824324D01*
X101180000Y-117459646D01*
X101179999Y-117459645D01*
X101131022Y-117469388D01*
X101131015Y-117469390D01*
X101050663Y-117502673D01*
X100981193Y-117510142D01*
X100935277Y-117490154D01*
X100935114Y-117490454D01*
X100931766Y-117488626D01*
X100928899Y-117487377D01*
X100927331Y-117486204D01*
X100927330Y-117486203D01*
X100927328Y-117486202D01*
X100792482Y-117435908D01*
X100792483Y-117435908D01*
X100732883Y-117429501D01*
X100732881Y-117429500D01*
X100732873Y-117429500D01*
X100732864Y-117429500D01*
X99587129Y-117429500D01*
X99587123Y-117429501D01*
X99527516Y-117435908D01*
X99392671Y-117486202D01*
X99392664Y-117486206D01*
X99277455Y-117572452D01*
X99277452Y-117572455D01*
X99191206Y-117687664D01*
X99191202Y-117687671D01*
X99140908Y-117822517D01*
X99134501Y-117882116D01*
X99134501Y-117882123D01*
X99134500Y-117882135D01*
X83700000Y-117882135D01*
X83700000Y-109508543D01*
X84799499Y-109508543D01*
X84837947Y-109701829D01*
X84837950Y-109701839D01*
X84913364Y-109883907D01*
X84913371Y-109883920D01*
X85022860Y-110047781D01*
X85022863Y-110047785D01*
X85162214Y-110187136D01*
X85162218Y-110187139D01*
X85326079Y-110296628D01*
X85326092Y-110296635D01*
X85502578Y-110369737D01*
X85508165Y-110372051D01*
X85508169Y-110372051D01*
X85508170Y-110372052D01*
X85701456Y-110410500D01*
X85701459Y-110410500D01*
X85898543Y-110410500D01*
X86028582Y-110384632D01*
X86091835Y-110372051D01*
X86273914Y-110296632D01*
X86437782Y-110187139D01*
X86577139Y-110047782D01*
X86686632Y-109883914D01*
X86762051Y-109701835D01*
X86797853Y-109521848D01*
X86800500Y-109508543D01*
X86800500Y-109311456D01*
X86762052Y-109118170D01*
X86762051Y-109118169D01*
X86762051Y-109118165D01*
X86750265Y-109089711D01*
X86686635Y-108936092D01*
X86686628Y-108936079D01*
X86624728Y-108843440D01*
X86603850Y-108776763D01*
X86622334Y-108709383D01*
X86624729Y-108705657D01*
X86686189Y-108613676D01*
X86686191Y-108613673D01*
X86761569Y-108431693D01*
X86761572Y-108431681D01*
X86799999Y-108238495D01*
X86800000Y-108238492D01*
X86800000Y-108041508D01*
X86799999Y-108041504D01*
X86761572Y-107848318D01*
X86761569Y-107848306D01*
X86686192Y-107666328D01*
X86662571Y-107630978D01*
X86125000Y-108168551D01*
X86125000Y-108097213D01*
X86102851Y-108014555D01*
X86060064Y-107940446D01*
X85999554Y-107879936D01*
X85925445Y-107837149D01*
X85842787Y-107815000D01*
X85757213Y-107815000D01*
X85674555Y-107837149D01*
X85600446Y-107879936D01*
X85539936Y-107940446D01*
X85497149Y-108014555D01*
X85475000Y-108097213D01*
X85475000Y-108168553D01*
X84937426Y-107630979D01*
X84913813Y-107666318D01*
X84913809Y-107666325D01*
X84838429Y-107848310D01*
X84838427Y-107848318D01*
X84800000Y-108041504D01*
X84800000Y-108238495D01*
X84838427Y-108431681D01*
X84838430Y-108431693D01*
X84913807Y-108613671D01*
X84913814Y-108613684D01*
X84975270Y-108705659D01*
X84996148Y-108772337D01*
X84977663Y-108839717D01*
X84975271Y-108843440D01*
X84913370Y-108936082D01*
X84913364Y-108936093D01*
X84837950Y-109118160D01*
X84837947Y-109118170D01*
X84799500Y-109311456D01*
X84799500Y-109311459D01*
X84799500Y-109508541D01*
X84799500Y-109508543D01*
X84799499Y-109508543D01*
X83700000Y-109508543D01*
X83700000Y-107505000D01*
X85518553Y-107505000D01*
X85800000Y-107786446D01*
X85800001Y-107786446D01*
X86081446Y-107505001D01*
X86081446Y-107504999D01*
X85800001Y-107223553D01*
X85800000Y-107223553D01*
X85518553Y-107505000D01*
X83700000Y-107505000D01*
X83700000Y-105052135D01*
X84799500Y-105052135D01*
X84799500Y-106147870D01*
X84799501Y-106147876D01*
X84805908Y-106207483D01*
X84856202Y-106342328D01*
X84856203Y-106342330D01*
X84865372Y-106354578D01*
X84889788Y-106420043D01*
X84880665Y-106476340D01*
X84838432Y-106578300D01*
X84838427Y-106578317D01*
X84800000Y-106771504D01*
X84800000Y-106968495D01*
X84838427Y-107161681D01*
X84838430Y-107161693D01*
X84913808Y-107343673D01*
X84913809Y-107343675D01*
X84937425Y-107379019D01*
X84950488Y-107365957D01*
X85475000Y-106841445D01*
X85475000Y-106912787D01*
X85497149Y-106995445D01*
X85539936Y-107069554D01*
X85600446Y-107130064D01*
X85674555Y-107172851D01*
X85757213Y-107195000D01*
X85842787Y-107195000D01*
X85925445Y-107172851D01*
X85999554Y-107130064D01*
X86060064Y-107069554D01*
X86102851Y-106995445D01*
X86125000Y-106912787D01*
X86125000Y-106841447D01*
X86662571Y-107379019D01*
X86662573Y-107379019D01*
X86686187Y-107343680D01*
X86686190Y-107343676D01*
X86761569Y-107161693D01*
X86761572Y-107161681D01*
X86799999Y-106968495D01*
X86800000Y-106968492D01*
X86800000Y-106771506D01*
X86799999Y-106771504D01*
X86761573Y-106578318D01*
X86761570Y-106578309D01*
X86719333Y-106476339D01*
X86711864Y-106406870D01*
X86734629Y-106354576D01*
X86743796Y-106342331D01*
X86794091Y-106207483D01*
X86800500Y-106147873D01*
X86800499Y-105052128D01*
X86794091Y-104992517D01*
X86788991Y-104978844D01*
X86743797Y-104857671D01*
X86743793Y-104857664D01*
X86657547Y-104742455D01*
X86657544Y-104742452D01*
X86542335Y-104656206D01*
X86542328Y-104656202D01*
X86407482Y-104605908D01*
X86407483Y-104605908D01*
X86347883Y-104599501D01*
X86347881Y-104599500D01*
X86347873Y-104599500D01*
X86347864Y-104599500D01*
X85252129Y-104599500D01*
X85252123Y-104599501D01*
X85192516Y-104605908D01*
X85057671Y-104656202D01*
X85057664Y-104656206D01*
X84942455Y-104742452D01*
X84942452Y-104742455D01*
X84856206Y-104857664D01*
X84856202Y-104857671D01*
X84805908Y-104992517D01*
X84799501Y-105052116D01*
X84799501Y-105052123D01*
X84799500Y-105052135D01*
X83700000Y-105052135D01*
X83700000Y-102616153D01*
X91699500Y-102616153D01*
X91699500Y-102773846D01*
X91730261Y-102928489D01*
X91730264Y-102928501D01*
X91790602Y-103074172D01*
X91790609Y-103074185D01*
X91866185Y-103187291D01*
X91875040Y-103200544D01*
X91878602Y-103205874D01*
X91899480Y-103272551D01*
X91899500Y-103274765D01*
X91899500Y-106220234D01*
X91879815Y-106287273D01*
X91878602Y-106289125D01*
X91790609Y-106420814D01*
X91790602Y-106420827D01*
X91730264Y-106566498D01*
X91730261Y-106566510D01*
X91699500Y-106721153D01*
X91699500Y-106878846D01*
X91730261Y-107033489D01*
X91730264Y-107033501D01*
X91790602Y-107179172D01*
X91790609Y-107179185D01*
X91878210Y-107310288D01*
X91878213Y-107310292D01*
X91989707Y-107421786D01*
X91989711Y-107421789D01*
X92120814Y-107509390D01*
X92120827Y-107509397D01*
X92266498Y-107569735D01*
X92266503Y-107569737D01*
X92396982Y-107595691D01*
X92421153Y-107600499D01*
X92421156Y-107600500D01*
X92421158Y-107600500D01*
X92578844Y-107600500D01*
X92578845Y-107600499D01*
X92733497Y-107569737D01*
X92733509Y-107569731D01*
X92739324Y-107567969D01*
X92740158Y-107570720D01*
X92797359Y-107564497D01*
X92859878Y-107595691D01*
X92895608Y-107655734D01*
X92899500Y-107686555D01*
X92899500Y-111420234D01*
X92879815Y-111487273D01*
X92878602Y-111489125D01*
X92790609Y-111620814D01*
X92790602Y-111620827D01*
X92730264Y-111766498D01*
X92730261Y-111766510D01*
X92699500Y-111921153D01*
X92699500Y-112078846D01*
X92730261Y-112233489D01*
X92730264Y-112233501D01*
X92790602Y-112379172D01*
X92790609Y-112379185D01*
X92878210Y-112510288D01*
X92878213Y-112510292D01*
X92989707Y-112621786D01*
X92989711Y-112621789D01*
X93120814Y-112709390D01*
X93120827Y-112709397D01*
X93266498Y-112769735D01*
X93266503Y-112769737D01*
X93421153Y-112800499D01*
X93421156Y-112800500D01*
X93421158Y-112800500D01*
X93578844Y-112800500D01*
X93578845Y-112800499D01*
X93733497Y-112769737D01*
X93877851Y-112709944D01*
X93879172Y-112709397D01*
X93879172Y-112709396D01*
X93879179Y-112709394D01*
X94010289Y-112621789D01*
X94048496Y-112583580D01*
X94074285Y-112563813D01*
X94081513Y-112559649D01*
X94081785Y-112559577D01*
X94141287Y-112525223D01*
X94218716Y-112480520D01*
X94330520Y-112368716D01*
X94330520Y-112368714D01*
X94340724Y-112358511D01*
X94340728Y-112358506D01*
X95812416Y-110886818D01*
X95873739Y-110853333D01*
X95900097Y-110850499D01*
X96525002Y-110850499D01*
X96525008Y-110850499D01*
X96627797Y-110839999D01*
X96794334Y-110784814D01*
X96943656Y-110692712D01*
X97067712Y-110568656D01*
X97159814Y-110419334D01*
X97214999Y-110252797D01*
X97225500Y-110150009D01*
X97225499Y-109549992D01*
X97222287Y-109518552D01*
X97214999Y-109447203D01*
X97214998Y-109447200D01*
X97196970Y-109392796D01*
X97159814Y-109280666D01*
X97067712Y-109131344D01*
X96943656Y-109007288D01*
X96940819Y-109005538D01*
X96939283Y-109003830D01*
X96937989Y-109002807D01*
X96938163Y-109002585D01*
X96894096Y-108953594D01*
X96882872Y-108884632D01*
X96910713Y-108820549D01*
X96940817Y-108794462D01*
X96943656Y-108792712D01*
X97067712Y-108668656D01*
X97159814Y-108519334D01*
X97214999Y-108352797D01*
X97225500Y-108250009D01*
X97225500Y-108174562D01*
X97245185Y-108107523D01*
X97297989Y-108061768D01*
X97349500Y-108050562D01*
X97749965Y-108050562D01*
X97779405Y-108059206D01*
X97809392Y-108065730D01*
X97814407Y-108069484D01*
X97817004Y-108070247D01*
X97837646Y-108086881D01*
X97965425Y-108214660D01*
X97998910Y-108275983D01*
X97999361Y-108278149D01*
X98030261Y-108433491D01*
X98030264Y-108433501D01*
X98090602Y-108579172D01*
X98090609Y-108579185D01*
X98178210Y-108710288D01*
X98178213Y-108710292D01*
X98289707Y-108821786D01*
X98289711Y-108821789D01*
X98420814Y-108909390D01*
X98420827Y-108909397D01*
X98527530Y-108953594D01*
X98566503Y-108969737D01*
X98714145Y-108999105D01*
X98721153Y-109000499D01*
X98721156Y-109000500D01*
X98721158Y-109000500D01*
X98878844Y-109000500D01*
X98878845Y-109000499D01*
X99033497Y-108969737D01*
X99179179Y-108909394D01*
X99310289Y-108821789D01*
X99421789Y-108710289D01*
X99509394Y-108579179D01*
X99569737Y-108433497D01*
X99600500Y-108278842D01*
X99600500Y-108121158D01*
X99600500Y-108121155D01*
X99600499Y-108121153D01*
X99590221Y-108069484D01*
X99569737Y-107966503D01*
X99558944Y-107940446D01*
X99509397Y-107820827D01*
X99509390Y-107820814D01*
X99431398Y-107704091D01*
X99410520Y-107637413D01*
X99410500Y-107635200D01*
X99410500Y-102269765D01*
X99430185Y-102202726D01*
X99431398Y-102200874D01*
X99442201Y-102184707D01*
X99519394Y-102069179D01*
X99579737Y-101923497D01*
X99610500Y-101768842D01*
X99610500Y-101611158D01*
X99610500Y-101611155D01*
X99610499Y-101611153D01*
X99604139Y-101579179D01*
X99579737Y-101456503D01*
X99570208Y-101433497D01*
X99519397Y-101310827D01*
X99519390Y-101310814D01*
X99431791Y-101179713D01*
X99428642Y-101175876D01*
X99401333Y-101111564D01*
X99400500Y-101097216D01*
X99400500Y-95079765D01*
X99420185Y-95012726D01*
X99421398Y-95010874D01*
X99509390Y-94879185D01*
X99509390Y-94879184D01*
X99509394Y-94879179D01*
X99569737Y-94733497D01*
X99600500Y-94578842D01*
X99600500Y-94421158D01*
X99600500Y-94421155D01*
X99600499Y-94421153D01*
X99589157Y-94364134D01*
X99569737Y-94266503D01*
X99538092Y-94190104D01*
X99509397Y-94120827D01*
X99509390Y-94120814D01*
X99421398Y-93989125D01*
X99400520Y-93922447D01*
X99400500Y-93920234D01*
X99400500Y-88479765D01*
X99420185Y-88412726D01*
X99421398Y-88410874D01*
X99443222Y-88378213D01*
X99509394Y-88279179D01*
X99569737Y-88133497D01*
X99600500Y-87978842D01*
X99600500Y-87821158D01*
X99600500Y-87821155D01*
X99600499Y-87821153D01*
X99590423Y-87770500D01*
X99569737Y-87666503D01*
X99557485Y-87636924D01*
X99509397Y-87520827D01*
X99509390Y-87520814D01*
X99421788Y-87389709D01*
X99310292Y-87278213D01*
X99310288Y-87278210D01*
X99179185Y-87190609D01*
X99179172Y-87190602D01*
X99033501Y-87130264D01*
X99033489Y-87130261D01*
X98878845Y-87099500D01*
X98878842Y-87099500D01*
X98721158Y-87099500D01*
X98721155Y-87099500D01*
X98566510Y-87130261D01*
X98566498Y-87130264D01*
X98420827Y-87190602D01*
X98420814Y-87190609D01*
X98289711Y-87278210D01*
X98289707Y-87278213D01*
X98178213Y-87389707D01*
X98178212Y-87389709D01*
X98090609Y-87520814D01*
X98090602Y-87520827D01*
X98030264Y-87666498D01*
X98030261Y-87666508D01*
X97999361Y-87821850D01*
X97966976Y-87883761D01*
X97965425Y-87885339D01*
X96895741Y-88955022D01*
X96847064Y-88985047D01*
X96680668Y-89040185D01*
X96680663Y-89040187D01*
X96531342Y-89132289D01*
X96407285Y-89256346D01*
X96405537Y-89259182D01*
X96403829Y-89260717D01*
X96402807Y-89262011D01*
X96402585Y-89261836D01*
X96353589Y-89305905D01*
X96284626Y-89317126D01*
X96220544Y-89289282D01*
X96194463Y-89259182D01*
X96192714Y-89256346D01*
X96068657Y-89132289D01*
X96068656Y-89132288D01*
X95919334Y-89040186D01*
X95752797Y-88985001D01*
X95752795Y-88985000D01*
X95650010Y-88974500D01*
X95049998Y-88974500D01*
X95049980Y-88974501D01*
X94947203Y-88985000D01*
X94947200Y-88985001D01*
X94780668Y-89040185D01*
X94780663Y-89040187D01*
X94631342Y-89132289D01*
X94507289Y-89256342D01*
X94415187Y-89405663D01*
X94415185Y-89405668D01*
X94387349Y-89489670D01*
X94360001Y-89572203D01*
X94360001Y-89572204D01*
X94360000Y-89572204D01*
X94349500Y-89674983D01*
X94349500Y-90299901D01*
X94340855Y-90329341D01*
X94334332Y-90359328D01*
X94330577Y-90364343D01*
X94329815Y-90366940D01*
X94313181Y-90387582D01*
X94312181Y-90388582D01*
X94250858Y-90422067D01*
X94181166Y-90417083D01*
X94125233Y-90375211D01*
X94100816Y-90309747D01*
X94100500Y-90300901D01*
X94100500Y-86325316D01*
X94109939Y-86277864D01*
X94169735Y-86133501D01*
X94169737Y-86133497D01*
X94200500Y-85978842D01*
X94200500Y-85821158D01*
X94200500Y-85821155D01*
X94200499Y-85821153D01*
X94169738Y-85666510D01*
X94169737Y-85666503D01*
X94133445Y-85578885D01*
X94109397Y-85520827D01*
X94109390Y-85520814D01*
X94021789Y-85389711D01*
X94021786Y-85389707D01*
X93910292Y-85278213D01*
X93910288Y-85278210D01*
X93779185Y-85190609D01*
X93779172Y-85190602D01*
X93633501Y-85130264D01*
X93633489Y-85130261D01*
X93478845Y-85099500D01*
X93478842Y-85099500D01*
X93321158Y-85099500D01*
X93321155Y-85099500D01*
X93166510Y-85130261D01*
X93166498Y-85130264D01*
X93020827Y-85190602D01*
X93020814Y-85190609D01*
X92889711Y-85278210D01*
X92889707Y-85278213D01*
X92778213Y-85389707D01*
X92778210Y-85389711D01*
X92690609Y-85520814D01*
X92690602Y-85520827D01*
X92630264Y-85666498D01*
X92630261Y-85666510D01*
X92599500Y-85821153D01*
X92599500Y-85978846D01*
X92630261Y-86133489D01*
X92630264Y-86133501D01*
X92690061Y-86277864D01*
X92699500Y-86325316D01*
X92699500Y-87770500D01*
X92679815Y-87837539D01*
X92627011Y-87883294D01*
X92575500Y-87894500D01*
X92521155Y-87894500D01*
X92366510Y-87925261D01*
X92366498Y-87925264D01*
X92220827Y-87985602D01*
X92220814Y-87985609D01*
X92089711Y-88073210D01*
X92089707Y-88073213D01*
X91978213Y-88184707D01*
X91978210Y-88184711D01*
X91890609Y-88315814D01*
X91890602Y-88315827D01*
X91830264Y-88461498D01*
X91830261Y-88461510D01*
X91799500Y-88616153D01*
X91799500Y-88773846D01*
X91830261Y-88928489D01*
X91830264Y-88928501D01*
X91890602Y-89074172D01*
X91890609Y-89074185D01*
X91978602Y-89205874D01*
X91999480Y-89272551D01*
X91999500Y-89274765D01*
X91999500Y-91920234D01*
X91979815Y-91987273D01*
X91978602Y-91989125D01*
X91890609Y-92120814D01*
X91890602Y-92120827D01*
X91830264Y-92266498D01*
X91830261Y-92266510D01*
X91799500Y-92421153D01*
X91799500Y-92578846D01*
X91830261Y-92733489D01*
X91830264Y-92733501D01*
X91890602Y-92879172D01*
X91890609Y-92879185D01*
X91978210Y-93010288D01*
X91978213Y-93010292D01*
X92089707Y-93121786D01*
X92089711Y-93121789D01*
X92220814Y-93209390D01*
X92220827Y-93209397D01*
X92366498Y-93269735D01*
X92366503Y-93269737D01*
X92495745Y-93295445D01*
X92521153Y-93300499D01*
X92521156Y-93300500D01*
X92521158Y-93300500D01*
X92678843Y-93300500D01*
X92694564Y-93297372D01*
X92751309Y-93286085D01*
X92820899Y-93292312D01*
X92876077Y-93335174D01*
X92899322Y-93401063D01*
X92899500Y-93407702D01*
X92899500Y-97620234D01*
X92879815Y-97687273D01*
X92878602Y-97689125D01*
X92790609Y-97820814D01*
X92790602Y-97820827D01*
X92730264Y-97966498D01*
X92730261Y-97966510D01*
X92699500Y-98121153D01*
X92699500Y-98278846D01*
X92730261Y-98433489D01*
X92730264Y-98433501D01*
X92790602Y-98579172D01*
X92790609Y-98579185D01*
X92878602Y-98710874D01*
X92899480Y-98777551D01*
X92899500Y-98779765D01*
X92899500Y-101808444D01*
X92879815Y-101875483D01*
X92827011Y-101921238D01*
X92757853Y-101931182D01*
X92739575Y-101926202D01*
X92739324Y-101927031D01*
X92733500Y-101925264D01*
X92733497Y-101925263D01*
X92733492Y-101925262D01*
X92733489Y-101925261D01*
X92578845Y-101894500D01*
X92578842Y-101894500D01*
X92421158Y-101894500D01*
X92421155Y-101894500D01*
X92266510Y-101925261D01*
X92266498Y-101925264D01*
X92120827Y-101985602D01*
X92120814Y-101985609D01*
X91989711Y-102073210D01*
X91989707Y-102073213D01*
X91878213Y-102184707D01*
X91878210Y-102184711D01*
X91790609Y-102315814D01*
X91790602Y-102315827D01*
X91730264Y-102461498D01*
X91730261Y-102461510D01*
X91699500Y-102616153D01*
X83700000Y-102616153D01*
X83700000Y-95808543D01*
X84799499Y-95808543D01*
X84837947Y-96001829D01*
X84837950Y-96001839D01*
X84913364Y-96183907D01*
X84913371Y-96183920D01*
X85022860Y-96347781D01*
X85022863Y-96347785D01*
X85162214Y-96487136D01*
X85162218Y-96487139D01*
X85326079Y-96596628D01*
X85326092Y-96596635D01*
X85508160Y-96672049D01*
X85508165Y-96672051D01*
X85508169Y-96672051D01*
X85508170Y-96672052D01*
X85701456Y-96710500D01*
X85701459Y-96710500D01*
X85898543Y-96710500D01*
X86028582Y-96684632D01*
X86091835Y-96672051D01*
X86273914Y-96596632D01*
X86437782Y-96487139D01*
X86577139Y-96347782D01*
X86686632Y-96183914D01*
X86687514Y-96181786D01*
X86718075Y-96108004D01*
X86762051Y-96001835D01*
X86782452Y-95899272D01*
X86800500Y-95808543D01*
X86800500Y-95611456D01*
X86762052Y-95418170D01*
X86762051Y-95418169D01*
X86762051Y-95418165D01*
X86750265Y-95389711D01*
X86686635Y-95236092D01*
X86686628Y-95236079D01*
X86624728Y-95143440D01*
X86603850Y-95076763D01*
X86622334Y-95009383D01*
X86624729Y-95005657D01*
X86686189Y-94913676D01*
X86686191Y-94913673D01*
X86761569Y-94731693D01*
X86761572Y-94731681D01*
X86799999Y-94538495D01*
X86800000Y-94538492D01*
X86800000Y-94341508D01*
X86799999Y-94341504D01*
X86761572Y-94148318D01*
X86761569Y-94148306D01*
X86686192Y-93966328D01*
X86662571Y-93930978D01*
X86125000Y-94468551D01*
X86125000Y-94397213D01*
X86102851Y-94314555D01*
X86060064Y-94240446D01*
X85999554Y-94179936D01*
X85925445Y-94137149D01*
X85842787Y-94115000D01*
X85757213Y-94115000D01*
X85674555Y-94137149D01*
X85600446Y-94179936D01*
X85539936Y-94240446D01*
X85497149Y-94314555D01*
X85475000Y-94397213D01*
X85475000Y-94468553D01*
X84937426Y-93930979D01*
X84913813Y-93966318D01*
X84913809Y-93966325D01*
X84838429Y-94148310D01*
X84838427Y-94148318D01*
X84800000Y-94341504D01*
X84800000Y-94538495D01*
X84838427Y-94731681D01*
X84838430Y-94731693D01*
X84913807Y-94913671D01*
X84913814Y-94913684D01*
X84975270Y-95005659D01*
X84996148Y-95072337D01*
X84977663Y-95139717D01*
X84975271Y-95143440D01*
X84913370Y-95236082D01*
X84913364Y-95236093D01*
X84837950Y-95418160D01*
X84837947Y-95418170D01*
X84799500Y-95611456D01*
X84799500Y-95611459D01*
X84799500Y-95808541D01*
X84799500Y-95808543D01*
X84799499Y-95808543D01*
X83700000Y-95808543D01*
X83700000Y-93805000D01*
X85518553Y-93805000D01*
X85800000Y-94086446D01*
X85800001Y-94086446D01*
X86081446Y-93805001D01*
X86081446Y-93804999D01*
X85800001Y-93523553D01*
X85800000Y-93523553D01*
X85518553Y-93805000D01*
X83700000Y-93805000D01*
X83700000Y-91352135D01*
X84799500Y-91352135D01*
X84799500Y-92447870D01*
X84799501Y-92447876D01*
X84805908Y-92507483D01*
X84856202Y-92642328D01*
X84856203Y-92642330D01*
X84865372Y-92654578D01*
X84889788Y-92720043D01*
X84880665Y-92776340D01*
X84838432Y-92878300D01*
X84838427Y-92878317D01*
X84800000Y-93071504D01*
X84800000Y-93268495D01*
X84838427Y-93461681D01*
X84838430Y-93461693D01*
X84913808Y-93643673D01*
X84913809Y-93643675D01*
X84937425Y-93679019D01*
X84950488Y-93665957D01*
X85475000Y-93141445D01*
X85475000Y-93212787D01*
X85497149Y-93295445D01*
X85539936Y-93369554D01*
X85600446Y-93430064D01*
X85674555Y-93472851D01*
X85757213Y-93495000D01*
X85842787Y-93495000D01*
X85925445Y-93472851D01*
X85999554Y-93430064D01*
X86060064Y-93369554D01*
X86102851Y-93295445D01*
X86125000Y-93212787D01*
X86125000Y-93141447D01*
X86662571Y-93679019D01*
X86662573Y-93679019D01*
X86686187Y-93643680D01*
X86686190Y-93643676D01*
X86761569Y-93461693D01*
X86761572Y-93461681D01*
X86799999Y-93268495D01*
X86800000Y-93268492D01*
X86800000Y-93071508D01*
X86799999Y-93071504D01*
X86761573Y-92878318D01*
X86761570Y-92878309D01*
X86719333Y-92776339D01*
X86711864Y-92706870D01*
X86734629Y-92654576D01*
X86743796Y-92642331D01*
X86794091Y-92507483D01*
X86800500Y-92447873D01*
X86800499Y-91352128D01*
X86794091Y-91292517D01*
X86793044Y-91289711D01*
X86743797Y-91157671D01*
X86743793Y-91157664D01*
X86657547Y-91042455D01*
X86657544Y-91042452D01*
X86542335Y-90956206D01*
X86542328Y-90956202D01*
X86407482Y-90905908D01*
X86407483Y-90905908D01*
X86347883Y-90899501D01*
X86347881Y-90899500D01*
X86347873Y-90899500D01*
X86347864Y-90899500D01*
X85252129Y-90899500D01*
X85252123Y-90899501D01*
X85192516Y-90905908D01*
X85057671Y-90956202D01*
X85057664Y-90956206D01*
X84942455Y-91042452D01*
X84942452Y-91042455D01*
X84856206Y-91157664D01*
X84856202Y-91157671D01*
X84805908Y-91292517D01*
X84801209Y-91336230D01*
X84799501Y-91352123D01*
X84799500Y-91352135D01*
X83700000Y-91352135D01*
X83700000Y-82224986D01*
X110950001Y-82224986D01*
X110960494Y-82327697D01*
X111015641Y-82494119D01*
X111015643Y-82494124D01*
X111107684Y-82643345D01*
X111231654Y-82767315D01*
X111380875Y-82859356D01*
X111380880Y-82859358D01*
X111547302Y-82914505D01*
X111547309Y-82914506D01*
X111650019Y-82924999D01*
X111699999Y-82924998D01*
X111700000Y-82924998D01*
X111700000Y-81950000D01*
X110950001Y-81950000D01*
X110950001Y-82224986D01*
X83700000Y-82224986D01*
X83700000Y-81175013D01*
X110950000Y-81175013D01*
X110950000Y-81450000D01*
X111700000Y-81450000D01*
X111700000Y-80475000D01*
X111699999Y-80474999D01*
X111650029Y-80475000D01*
X111650011Y-80475001D01*
X111547302Y-80485494D01*
X111380880Y-80540641D01*
X111380875Y-80540643D01*
X111231654Y-80632684D01*
X111107684Y-80756654D01*
X111015643Y-80905875D01*
X111015641Y-80905880D01*
X110960494Y-81072302D01*
X110960493Y-81072309D01*
X110950000Y-81175013D01*
X83700000Y-81175013D01*
X83700000Y-76081902D01*
X180959500Y-76081902D01*
X180959500Y-76318097D01*
X180996446Y-76551368D01*
X181069433Y-76775996D01*
X181176657Y-76986433D01*
X181315483Y-77177510D01*
X181482490Y-77344517D01*
X181673567Y-77483343D01*
X181772991Y-77534002D01*
X181884003Y-77590566D01*
X181884005Y-77590566D01*
X181884008Y-77590568D01*
X182004412Y-77629689D01*
X182108631Y-77663553D01*
X182341903Y-77700500D01*
X182341908Y-77700500D01*
X182578097Y-77700500D01*
X182811368Y-77663553D01*
X183035992Y-77590568D01*
X183246433Y-77483343D01*
X183437510Y-77344517D01*
X183437516Y-77344511D01*
X183441221Y-77341348D01*
X183442662Y-77343035D01*
X183495848Y-77313933D01*
X183565544Y-77318856D01*
X183621514Y-77360678D01*
X183627852Y-77369980D01*
X183657682Y-77418343D01*
X183781654Y-77542315D01*
X183930875Y-77634356D01*
X183930880Y-77634358D01*
X184097302Y-77689505D01*
X184097309Y-77689506D01*
X184200019Y-77699999D01*
X184749999Y-77699999D01*
X184750000Y-77699998D01*
X184750000Y-76748482D01*
X184768409Y-76759111D01*
X184921009Y-76800000D01*
X185078991Y-76800000D01*
X185231591Y-76759111D01*
X185250000Y-76748482D01*
X185250000Y-77699999D01*
X185799972Y-77699999D01*
X185799986Y-77699998D01*
X185902697Y-77689505D01*
X186069119Y-77634358D01*
X186069124Y-77634356D01*
X186218345Y-77542315D01*
X186342315Y-77418345D01*
X186434356Y-77269124D01*
X186434358Y-77269119D01*
X186489505Y-77102697D01*
X186489506Y-77102690D01*
X186499999Y-76999986D01*
X186500000Y-76999973D01*
X186500000Y-76450000D01*
X185548482Y-76450000D01*
X185559111Y-76431591D01*
X185600000Y-76278991D01*
X185600000Y-76121009D01*
X185559111Y-75968409D01*
X185548482Y-75950000D01*
X186499999Y-75950000D01*
X186499999Y-75400028D01*
X186499998Y-75400013D01*
X186489505Y-75297302D01*
X186434358Y-75130880D01*
X186434356Y-75130875D01*
X186342315Y-74981654D01*
X186218345Y-74857684D01*
X186069124Y-74765643D01*
X186069119Y-74765641D01*
X185902697Y-74710494D01*
X185902690Y-74710493D01*
X185799986Y-74700000D01*
X185250000Y-74700000D01*
X185250000Y-75651517D01*
X185231591Y-75640889D01*
X185078991Y-75600000D01*
X184921009Y-75600000D01*
X184768409Y-75640889D01*
X184750000Y-75651517D01*
X184750000Y-74700000D01*
X184200028Y-74700000D01*
X184200012Y-74700001D01*
X184097302Y-74710494D01*
X183930880Y-74765641D01*
X183930875Y-74765643D01*
X183781654Y-74857684D01*
X183657684Y-74981654D01*
X183627850Y-75030022D01*
X183575901Y-75076745D01*
X183506938Y-75087966D01*
X183442856Y-75060122D01*
X183441226Y-75058632D01*
X183441214Y-75058647D01*
X183437517Y-75055490D01*
X183437510Y-75055483D01*
X183246433Y-74916657D01*
X183035996Y-74809433D01*
X182811368Y-74736446D01*
X182578097Y-74699500D01*
X182578092Y-74699500D01*
X182341908Y-74699500D01*
X182341903Y-74699500D01*
X182108631Y-74736446D01*
X181884003Y-74809433D01*
X181673566Y-74916657D01*
X181564550Y-74995862D01*
X181482490Y-75055483D01*
X181482488Y-75055485D01*
X181482487Y-75055485D01*
X181315485Y-75222487D01*
X181315485Y-75222488D01*
X181315483Y-75222490D01*
X181261129Y-75297302D01*
X181176657Y-75413566D01*
X181069433Y-75624003D01*
X180996446Y-75848631D01*
X180959500Y-76081902D01*
X83700000Y-76081902D01*
X83700000Y-71623758D01*
X83719685Y-71556719D01*
X83772489Y-71510964D01*
X83823755Y-71499758D01*
X186200000Y-71300000D01*
X188675552Y-71300000D01*
X188742591Y-71319685D01*
G37*
%TD.AperFunction*%
%TD*%
M02*
