%TF.GenerationSoftware,KiCad,Pcbnew,9.0.7*%
%TF.CreationDate,2026-02-19T21:01:26-05:00*%
%TF.ProjectId,DAC8822,44414338-3832-4322-9e6b-696361645f70,rev?*%
%TF.SameCoordinates,Original*%
%TF.FileFunction,Legend,Bot*%
%TF.FilePolarity,Positive*%
%FSLAX46Y46*%
G04 Gerber Fmt 4.6, Leading zero omitted, Abs format (unit mm)*
G04 Created by KiCad (PCBNEW 9.0.7) date 2026-02-19 21:01:26*
%MOMM*%
%LPD*%
G01*
G04 APERTURE LIST*
%ADD10C,0.100000*%
%ADD11C,0.150000*%
%ADD12C,0.120000*%
G04 APERTURE END LIST*
D10*
X185296115Y-78491466D02*
X184534211Y-78491466D01*
X182796115Y-78491466D02*
X182034211Y-78491466D01*
X182415163Y-78872419D02*
X182415163Y-78110514D01*
D11*
X96942857Y-102879580D02*
X96990476Y-102927200D01*
X96990476Y-102927200D02*
X97133333Y-102974819D01*
X97133333Y-102974819D02*
X97228571Y-102974819D01*
X97228571Y-102974819D02*
X97371428Y-102927200D01*
X97371428Y-102927200D02*
X97466666Y-102831961D01*
X97466666Y-102831961D02*
X97514285Y-102736723D01*
X97514285Y-102736723D02*
X97561904Y-102546247D01*
X97561904Y-102546247D02*
X97561904Y-102403390D01*
X97561904Y-102403390D02*
X97514285Y-102212914D01*
X97514285Y-102212914D02*
X97466666Y-102117676D01*
X97466666Y-102117676D02*
X97371428Y-102022438D01*
X97371428Y-102022438D02*
X97228571Y-101974819D01*
X97228571Y-101974819D02*
X97133333Y-101974819D01*
X97133333Y-101974819D02*
X96990476Y-102022438D01*
X96990476Y-102022438D02*
X96942857Y-102070057D01*
X95990476Y-102974819D02*
X96561904Y-102974819D01*
X96276190Y-102974819D02*
X96276190Y-101974819D01*
X96276190Y-101974819D02*
X96371428Y-102117676D01*
X96371428Y-102117676D02*
X96466666Y-102212914D01*
X96466666Y-102212914D02*
X96561904Y-102260533D01*
X95038095Y-102974819D02*
X95609523Y-102974819D01*
X95323809Y-102974819D02*
X95323809Y-101974819D01*
X95323809Y-101974819D02*
X95419047Y-102117676D01*
X95419047Y-102117676D02*
X95514285Y-102212914D01*
X95514285Y-102212914D02*
X95609523Y-102260533D01*
X96742857Y-95279580D02*
X96790476Y-95327200D01*
X96790476Y-95327200D02*
X96933333Y-95374819D01*
X96933333Y-95374819D02*
X97028571Y-95374819D01*
X97028571Y-95374819D02*
X97171428Y-95327200D01*
X97171428Y-95327200D02*
X97266666Y-95231961D01*
X97266666Y-95231961D02*
X97314285Y-95136723D01*
X97314285Y-95136723D02*
X97361904Y-94946247D01*
X97361904Y-94946247D02*
X97361904Y-94803390D01*
X97361904Y-94803390D02*
X97314285Y-94612914D01*
X97314285Y-94612914D02*
X97266666Y-94517676D01*
X97266666Y-94517676D02*
X97171428Y-94422438D01*
X97171428Y-94422438D02*
X97028571Y-94374819D01*
X97028571Y-94374819D02*
X96933333Y-94374819D01*
X96933333Y-94374819D02*
X96790476Y-94422438D01*
X96790476Y-94422438D02*
X96742857Y-94470057D01*
X95790476Y-95374819D02*
X96361904Y-95374819D01*
X96076190Y-95374819D02*
X96076190Y-94374819D01*
X96076190Y-94374819D02*
X96171428Y-94517676D01*
X96171428Y-94517676D02*
X96266666Y-94612914D01*
X96266666Y-94612914D02*
X96361904Y-94660533D01*
X95171428Y-94374819D02*
X95076190Y-94374819D01*
X95076190Y-94374819D02*
X94980952Y-94422438D01*
X94980952Y-94422438D02*
X94933333Y-94470057D01*
X94933333Y-94470057D02*
X94885714Y-94565295D01*
X94885714Y-94565295D02*
X94838095Y-94755771D01*
X94838095Y-94755771D02*
X94838095Y-94993866D01*
X94838095Y-94993866D02*
X94885714Y-95184342D01*
X94885714Y-95184342D02*
X94933333Y-95279580D01*
X94933333Y-95279580D02*
X94980952Y-95327200D01*
X94980952Y-95327200D02*
X95076190Y-95374819D01*
X95076190Y-95374819D02*
X95171428Y-95374819D01*
X95171428Y-95374819D02*
X95266666Y-95327200D01*
X95266666Y-95327200D02*
X95314285Y-95279580D01*
X95314285Y-95279580D02*
X95361904Y-95184342D01*
X95361904Y-95184342D02*
X95409523Y-94993866D01*
X95409523Y-94993866D02*
X95409523Y-94755771D01*
X95409523Y-94755771D02*
X95361904Y-94565295D01*
X95361904Y-94565295D02*
X95314285Y-94470057D01*
X95314285Y-94470057D02*
X95266666Y-94422438D01*
X95266666Y-94422438D02*
X95171428Y-94374819D01*
X108166666Y-116839580D02*
X108214285Y-116887200D01*
X108214285Y-116887200D02*
X108357142Y-116934819D01*
X108357142Y-116934819D02*
X108452380Y-116934819D01*
X108452380Y-116934819D02*
X108595237Y-116887200D01*
X108595237Y-116887200D02*
X108690475Y-116791961D01*
X108690475Y-116791961D02*
X108738094Y-116696723D01*
X108738094Y-116696723D02*
X108785713Y-116506247D01*
X108785713Y-116506247D02*
X108785713Y-116363390D01*
X108785713Y-116363390D02*
X108738094Y-116172914D01*
X108738094Y-116172914D02*
X108690475Y-116077676D01*
X108690475Y-116077676D02*
X108595237Y-115982438D01*
X108595237Y-115982438D02*
X108452380Y-115934819D01*
X108452380Y-115934819D02*
X108357142Y-115934819D01*
X108357142Y-115934819D02*
X108214285Y-115982438D01*
X108214285Y-115982438D02*
X108166666Y-116030057D01*
X107833332Y-115934819D02*
X107166666Y-115934819D01*
X107166666Y-115934819D02*
X107595237Y-116934819D01*
X113066666Y-83739580D02*
X113114285Y-83787200D01*
X113114285Y-83787200D02*
X113257142Y-83834819D01*
X113257142Y-83834819D02*
X113352380Y-83834819D01*
X113352380Y-83834819D02*
X113495237Y-83787200D01*
X113495237Y-83787200D02*
X113590475Y-83691961D01*
X113590475Y-83691961D02*
X113638094Y-83596723D01*
X113638094Y-83596723D02*
X113685713Y-83406247D01*
X113685713Y-83406247D02*
X113685713Y-83263390D01*
X113685713Y-83263390D02*
X113638094Y-83072914D01*
X113638094Y-83072914D02*
X113590475Y-82977676D01*
X113590475Y-82977676D02*
X113495237Y-82882438D01*
X113495237Y-82882438D02*
X113352380Y-82834819D01*
X113352380Y-82834819D02*
X113257142Y-82834819D01*
X113257142Y-82834819D02*
X113114285Y-82882438D01*
X113114285Y-82882438D02*
X113066666Y-82930057D01*
X112495237Y-83263390D02*
X112590475Y-83215771D01*
X112590475Y-83215771D02*
X112638094Y-83168152D01*
X112638094Y-83168152D02*
X112685713Y-83072914D01*
X112685713Y-83072914D02*
X112685713Y-83025295D01*
X112685713Y-83025295D02*
X112638094Y-82930057D01*
X112638094Y-82930057D02*
X112590475Y-82882438D01*
X112590475Y-82882438D02*
X112495237Y-82834819D01*
X112495237Y-82834819D02*
X112304761Y-82834819D01*
X112304761Y-82834819D02*
X112209523Y-82882438D01*
X112209523Y-82882438D02*
X112161904Y-82930057D01*
X112161904Y-82930057D02*
X112114285Y-83025295D01*
X112114285Y-83025295D02*
X112114285Y-83072914D01*
X112114285Y-83072914D02*
X112161904Y-83168152D01*
X112161904Y-83168152D02*
X112209523Y-83215771D01*
X112209523Y-83215771D02*
X112304761Y-83263390D01*
X112304761Y-83263390D02*
X112495237Y-83263390D01*
X112495237Y-83263390D02*
X112590475Y-83311009D01*
X112590475Y-83311009D02*
X112638094Y-83358628D01*
X112638094Y-83358628D02*
X112685713Y-83453866D01*
X112685713Y-83453866D02*
X112685713Y-83644342D01*
X112685713Y-83644342D02*
X112638094Y-83739580D01*
X112638094Y-83739580D02*
X112590475Y-83787200D01*
X112590475Y-83787200D02*
X112495237Y-83834819D01*
X112495237Y-83834819D02*
X112304761Y-83834819D01*
X112304761Y-83834819D02*
X112209523Y-83787200D01*
X112209523Y-83787200D02*
X112161904Y-83739580D01*
X112161904Y-83739580D02*
X112114285Y-83644342D01*
X112114285Y-83644342D02*
X112114285Y-83453866D01*
X112114285Y-83453866D02*
X112161904Y-83358628D01*
X112161904Y-83358628D02*
X112209523Y-83311009D01*
X112209523Y-83311009D02*
X112304761Y-83263390D01*
X96466666Y-88879580D02*
X96514285Y-88927200D01*
X96514285Y-88927200D02*
X96657142Y-88974819D01*
X96657142Y-88974819D02*
X96752380Y-88974819D01*
X96752380Y-88974819D02*
X96895237Y-88927200D01*
X96895237Y-88927200D02*
X96990475Y-88831961D01*
X96990475Y-88831961D02*
X97038094Y-88736723D01*
X97038094Y-88736723D02*
X97085713Y-88546247D01*
X97085713Y-88546247D02*
X97085713Y-88403390D01*
X97085713Y-88403390D02*
X97038094Y-88212914D01*
X97038094Y-88212914D02*
X96990475Y-88117676D01*
X96990475Y-88117676D02*
X96895237Y-88022438D01*
X96895237Y-88022438D02*
X96752380Y-87974819D01*
X96752380Y-87974819D02*
X96657142Y-87974819D01*
X96657142Y-87974819D02*
X96514285Y-88022438D01*
X96514285Y-88022438D02*
X96466666Y-88070057D01*
X95990475Y-88974819D02*
X95799999Y-88974819D01*
X95799999Y-88974819D02*
X95704761Y-88927200D01*
X95704761Y-88927200D02*
X95657142Y-88879580D01*
X95657142Y-88879580D02*
X95561904Y-88736723D01*
X95561904Y-88736723D02*
X95514285Y-88546247D01*
X95514285Y-88546247D02*
X95514285Y-88165295D01*
X95514285Y-88165295D02*
X95561904Y-88070057D01*
X95561904Y-88070057D02*
X95609523Y-88022438D01*
X95609523Y-88022438D02*
X95704761Y-87974819D01*
X95704761Y-87974819D02*
X95895237Y-87974819D01*
X95895237Y-87974819D02*
X95990475Y-88022438D01*
X95990475Y-88022438D02*
X96038094Y-88070057D01*
X96038094Y-88070057D02*
X96085713Y-88165295D01*
X96085713Y-88165295D02*
X96085713Y-88403390D01*
X96085713Y-88403390D02*
X96038094Y-88498628D01*
X96038094Y-88498628D02*
X95990475Y-88546247D01*
X95990475Y-88546247D02*
X95895237Y-88593866D01*
X95895237Y-88593866D02*
X95704761Y-88593866D01*
X95704761Y-88593866D02*
X95609523Y-88546247D01*
X95609523Y-88546247D02*
X95561904Y-88498628D01*
X95561904Y-88498628D02*
X95514285Y-88403390D01*
X94679580Y-108257142D02*
X94727200Y-108209523D01*
X94727200Y-108209523D02*
X94774819Y-108066666D01*
X94774819Y-108066666D02*
X94774819Y-107971428D01*
X94774819Y-107971428D02*
X94727200Y-107828571D01*
X94727200Y-107828571D02*
X94631961Y-107733333D01*
X94631961Y-107733333D02*
X94536723Y-107685714D01*
X94536723Y-107685714D02*
X94346247Y-107638095D01*
X94346247Y-107638095D02*
X94203390Y-107638095D01*
X94203390Y-107638095D02*
X94012914Y-107685714D01*
X94012914Y-107685714D02*
X93917676Y-107733333D01*
X93917676Y-107733333D02*
X93822438Y-107828571D01*
X93822438Y-107828571D02*
X93774819Y-107971428D01*
X93774819Y-107971428D02*
X93774819Y-108066666D01*
X93774819Y-108066666D02*
X93822438Y-108209523D01*
X93822438Y-108209523D02*
X93870057Y-108257142D01*
X94774819Y-109209523D02*
X94774819Y-108638095D01*
X94774819Y-108923809D02*
X93774819Y-108923809D01*
X93774819Y-108923809D02*
X93917676Y-108828571D01*
X93917676Y-108828571D02*
X94012914Y-108733333D01*
X94012914Y-108733333D02*
X94060533Y-108638095D01*
X93870057Y-109590476D02*
X93822438Y-109638095D01*
X93822438Y-109638095D02*
X93774819Y-109733333D01*
X93774819Y-109733333D02*
X93774819Y-109971428D01*
X93774819Y-109971428D02*
X93822438Y-110066666D01*
X93822438Y-110066666D02*
X93870057Y-110114285D01*
X93870057Y-110114285D02*
X93965295Y-110161904D01*
X93965295Y-110161904D02*
X94060533Y-110161904D01*
X94060533Y-110161904D02*
X94203390Y-110114285D01*
X94203390Y-110114285D02*
X94774819Y-109542857D01*
X94774819Y-109542857D02*
X94774819Y-110161904D01*
D12*
%TO.C,C11*%
X96561252Y-103465000D02*
X96038748Y-103465000D01*
X96561252Y-104935000D02*
X96038748Y-104935000D01*
%TO.C,C10*%
X96361252Y-95865000D02*
X95838748Y-95865000D01*
X96361252Y-97335000D02*
X95838748Y-97335000D01*
%TO.C,C7*%
X107738748Y-114065000D02*
X108261252Y-114065000D01*
X107738748Y-115535000D02*
X108261252Y-115535000D01*
%TO.C,C8*%
X112638748Y-80965000D02*
X113161252Y-80965000D01*
X112638748Y-82435000D02*
X113161252Y-82435000D01*
%TO.C,C9*%
X96561252Y-89465000D02*
X96038748Y-89465000D01*
X96561252Y-90935000D02*
X96038748Y-90935000D01*
%TO.C,C12*%
X95265000Y-108638748D02*
X95265000Y-109161252D01*
X96735000Y-108638748D02*
X96735000Y-109161252D01*
%TO.C,J1*%
X165720000Y-92690000D02*
X165720000Y-110580000D01*
X168480000Y-90040000D02*
X167100000Y-90040000D01*
X168480000Y-91420000D02*
X168480000Y-90040000D01*
X168480000Y-92690000D02*
X165720000Y-92690000D01*
X168480000Y-92690000D02*
X168480000Y-110580000D01*
X168480000Y-110580000D02*
X165720000Y-110580000D01*
%TD*%
M02*
